<svg width="2487" height="7831" viewBox="0 0 2487 7831" fill="none" xmlns="http://www.w3.org/2000/svg">
<g clip-path="url(#clip0_680_322)">
<rect width="2487" height="7831" fill="#FDFCFC"/>
<path d="M-111.887 7452.95C-97.8276 7429.38 -42.9574 7458.08 13.6783 7424.46C47.8916 7404.19 80.6672 7361.99 76.8052 7326.22C72.8226 7290.26 34.765 7289.92 -23.5122 7230.74C-59.2587 7194.57 -92.244 7160.85 -81.6089 7129.69C-70.0685 7095.8 -11.8601 7077.9 51.4359 7058.27C105.388 7041.56 111.46 7048.22 139.767 7032.08C150.848 7025.89 214.461 6987.97 223.438 6933.16C226.839 6912.31 220.085 6901.84 228.18 6869.95C236.603 6838.11 248.227 6828.63 252.59 6825.78C264.194 6817.65 276.453 6817.87 293.156 6818.1C382.067 6818.93 373.876 6816.31 406.497 6819.69C460.607 6825.22 469.447 6831.13 474.687 6838.34C484.565 6851.81 477.793 6864.23 480.357 6885.15C484.026 6914.66 500.876 6918.79 546.58 6971.31C591.473 7023.03 613.876 7049.05 618.873 7072.38C620.139 7078.46 622.717 7093 634.955 7102.8C642.963 7109.26 654.471 7112.89 672.991 7112.74C708.595 7112.03 725.367 7096.8 755.095 7087.44C806.607 7071.53 817.803 7098.51 870.93 7087.39C878.732 7085.74 935.13 7073.28 967.544 7030.52C978.713 7015.76 980.404 7001.89 985.287 6975.55C993.88 6929.77 991.09 6902.08 991.343 6866.28C992.03 6799.07 991.64 6765.02 1007.47 6738.7C1038.86 6687.03 1081.51 6699.53 1124.43 6636.86C1146.78 6604.15 1143.09 6589.27 1175.09 6546.78C1184.25 6534.4 1202.93 6510.21 1229.29 6489.22C1281.81 6447.39 1309.96 6463.53 1377.45 6430.25C1421.11 6408.58 1451.49 6380.98 1511.02 6327.11C1551.82 6290.02 1568.35 6269.36 1605.38 6255.75C1641.38 6242.82 1645.64 6254.93 1689.62 6244.75C1729.22 6235.58 1763.78 6214.01 1831.59 6170.68C1890.88 6132.93 1889.39 6128.32 1909.51 6122.86C1942.61 6113.69 1976.22 6122.26 2043.24 6139.55C2082.92 6149.74 2106.07 6155.86 2134.31 6171.68C2166.26 6189.59 2162.13 6196.01 2192.37 6212.65C2235.54 6236.51 2245.69 6224.28 2296.38 6248.8C2336.78 6268.36 2337.4 6279.39 2362.76 6281.14C2387.79 6282.83 2409.29 6273.54 2422.26 6286.32C2430.49 6294.5 2427.52 6303.63 2436.62 6308.57C2448.86 6315.18 2467.52 6305.62 2477.18 6300.9C2508.39 6286.05 2543 6283.33 2575.89 6274.3C2621.13 6261.96 2660.51 6251.07 2704.75 6256.42C2748.87 6261.57 2748.02 6276.76 2812.3 6287.06C2870.68 6296.45 2889.54 6286.75 2896.94 6282.18C2923.69 6265.46 2927.46 6236.93 2941.77 6237.13C2954.36 6237.4 2964.63 6260.2 2962.6 6280.41C2959.85 6309.6 2931.39 6333.29 2908.8 6344.09C2878.87 6358.63 2851.16 6354.17 2796.91 6344.74C2750.65 6336.73 2740.07 6329.03 2693.57 6320.65C2640.18 6311.19 2627.93 6307.78 2610.63 6311.66C2583.42 6318.04 2577.72 6330.28 2543.12 6343.09C2513.83 6354.03 2490.43 6355.79 2468.1 6357.37C2401.33 6362 2347.87 6348.32 2317.77 6341.97C2180.68 6313.65 2143.91 6361.12 2015.82 6331.17C2000.19 6327.57 1965.96 6311.15 1894.31 6284.4C1868.33 6274.81 1853.67 6269.51 1835.85 6275.33C1807.11 6284.84 1802.95 6312.3 1764 6338.06C1748.21 6348.4 1735.18 6352.95 1708.76 6361.47C1649.78 6380.93 1639.57 6370.6 1590.67 6385.06C1536.03 6401.16 1491.8 6430.64 1478.41 6439.67C1442.62 6463.91 1439.17 6474.14 1414.2 6481.72C1376.91 6493.1 1365.32 6476.49 1327.07 6488.23C1297.56 6497.45 1277.94 6515.61 1260.37 6531.9C1234.83 6555.54 1212.46 6576.3 1210.91 6602.31C1209.15 6631.66 1236.23 6634.67 1251.76 6676.63C1261.13 6702.14 1269.92 6751.97 1245.25 6775.57C1222.82 6797.16 1196.3 6774.37 1132.99 6792.16C1115.75 6797.06 1060.96 6812.45 1034.28 6856.78C1022.46 6876.49 1020.8 6894.06 1018.76 6914.28C1012.37 6980.43 1042.1 6995.8 1031.59 7032.2C1017.82 7080.05 951.118 7107.23 911.449 7123.63C871.66 7139.84 854.977 7138.26 774.462 7156.4C683.169 7177.08 689.81 7184.17 663.006 7185.23C595.979 7187.62 515.579 7154.63 492.37 7094.83C478.79 7059.57 497.163 7047.28 478.135 6996.71C464.454 6959.92 443.05 6935.91 427.958 6918.93C404.449 6892.57 392.634 6879.29 370.945 6874.08C345.402 6867.93 311.084 6873.38 288.439 6893.26C274.805 6905.11 277.002 6912.18 251.732 6961.44C237.612 6989.03 230.613 7002.92 220.57 7016.68C208.255 7033.78 184.717 7066.48 145.182 7084.92C106.599 7103 89.301 7090.39 67.0183 7110.83C42.9861 7132.68 42.4783 7166.26 42.5714 7170.98C42.8614 7203.5 63.417 7212.92 89.2092 7254.27C111.142 7289.64 135.125 7328.19 125.071 7369.88C117.566 7400.86 94.4391 7419.99 48.6007 7457.98C-1.56809 7499.33 -36.1983 7528.12 -69.6901 7519.73C-101.748 7511.73 -123.86 7471.96 -112.631 7453.17L-111.887 7452.95Z" fill="#A40616"/>
<path d="M46.0652 3509.81C60.4365 3489.95 105.628 3506.51 157.985 3474.29C189.61 3454.86 221.964 3418.48 221.831 3391C221.61 3363.39 188.499 3367.16 143.093 3327.2C115.23 3302.79 89.5501 3279.99 101.626 3254.57C114.736 3226.93 167.043 3206.8 223.936 3184.79C272.429 3166.04 277.115 3170.59 303.224 3155.01C313.432 3149 372.255 3112.69 385.022 3069.01C389.866 3052.4 384.929 3044.95 394.859 3019.22C405.07 2993.5 416.048 2984.89 420.106 2982.2C430.945 2974.63 441.601 2973.5 456.126 2971.91C533.478 2963.13 526.582 2961.96 554.685 2961.13C601.307 2959.71 608.471 2963.38 612.383 2968.45C619.768 2977.91 612.75 2988.3 613.093 3004.35C613.623 3026.97 627.924 3028.4 662.982 3064.5C697.406 3100.06 714.565 3117.98 716.81 3135.63C717.363 3140.24 718.296 3151.3 728.067 3157.65C734.458 3161.83 744.152 3163.45 760.293 3161.36C791.363 3157.04 807.345 3143.38 834.078 3132.93C880.374 3115.07 887.687 3134.92 934.956 3120.62C941.9 3118.51 992.138 3102.81 1024.23 3066.04C1035.29 3053.35 1038.01 3042.35 1044.64 3021.3C1056.26 2984.7 1056.33 2963.4 1059.79 2935.46C1066.45 2882.99 1069.19 2856.49 1085.35 2834.29C1117.36 2790.67 1153.37 2795.9 1196.4 2742.49C1218.82 2714.61 1216.95 2703.41 1248.65 2666.89C1257.75 2656.26 1276.2 2635.42 1301.05 2616.26C1350.57 2578.08 1373.62 2587.68 1435.4 2554.58C1475.38 2533.06 1504.32 2508.32 1561.03 2460.01C1599.92 2426.77 1616.17 2408.91 1649.65 2394.37C1682.17 2380.47 1684.78 2389.46 1724 2376.86C1759.32 2365.51 1791.36 2345.04 1854.33 2304.06C1909.37 2268.34 1908.48 2264.91 1926.5 2258.52C1956.15 2247.86 1984.65 2250.98 2041.45 2257.36C2075.08 2261.1 2094.7 2263.41 2117.86 2272.75C2144.06 2283.33 2139.88 2288.78 2164.72 2298.54C2200.16 2312.56 2210.1 2301.96 2252.03 2315.7C2285.45 2326.66 2284.99 2335.2 2306.91 2333.87C2328.56 2332.54 2348.12 2323.02 2358.27 2331.61C2364.69 2337.11 2361.28 2344.54 2368.76 2347.43C2378.82 2351.29 2395.94 2341.86 2404.78 2337.15C2433.3 2322.26 2463.68 2316.48 2493.14 2305.95C2533.65 2291.54 2568.93 2278.87 2606.97 2278.35C2644.92 2277.69 2642.81 2289.62 2697.86 2290.84C2747.85 2291.97 2765.16 2282.41 2772.01 2278.06C2796.81 2262.19 2802.67 2239.55 2815.12 2238.19C2826.06 2237.06 2832.94 2253.74 2829.35 2269.72C2824.32 2292.77 2797.39 2314.26 2776.75 2325.07C2749.37 2339.58 2725.64 2339.04 2679.24 2337.44C2639.69 2336.1 2631.17 2331.22 2591.44 2329.61C2545.79 2327.9 2535.43 2326.53 2520.02 2331.39C2495.74 2339.25 2489.67 2349.4 2458.39 2363.06C2431.89 2374.69 2411.35 2378.54 2391.76 2382.14C2333.2 2392.83 2287.89 2387.83 2262.24 2386.07C2145.41 2378.53 2109.11 2419.44 2000.26 2409.66C1986.98 2408.51 1958.65 2399.34 1898.68 2386.07C1876.91 2381.36 1864.63 2378.78 1848.59 2385.2C1822.7 2395.67 1816.6 2417.51 1780.35 2441.73C1765.67 2451.46 1753.91 2456.39 1730.13 2465.83C1677.01 2487.26 1669.05 2480.29 1625.16 2496.74C1576.13 2515.09 1534.95 2542.77 1522.47 2551.23C1489.11 2573.91 1485.19 2582.26 1462.76 2590.81C1429.26 2603.64 1420.66 2591.92 1386.3 2605.12C1359.76 2615.44 1341.03 2631.68 1324.26 2646.25C1299.89 2667.38 1278.53 2685.94 1274.84 2706.38C1270.65 2729.45 1293.96 2728.93 1303.7 2759.99C1309.55 2778.89 1312.71 2816.81 1289.09 2837.83C1267.61 2857.04 1246.57 2842.08 1189.83 2862.66C1174.38 2868.3 1125.27 2886.12 1098.04 2923.5C1085.96 2940.12 1082.93 2954 1079.33 2969.98C1067.79 3022.23 1092.29 3031.07 1079.85 3060.56C1063.54 3099.32 1003 3127.59 966.969 3144.58C930.855 3161.43 916.47 3161.97 844.715 3184.65C763.346 3210.45 768.49 3215.27 745.052 3218.94C686.466 3227.91 619.43 3210.71 604.619 3166.55C595.976 3140.5 613.087 3128.97 601.084 3091.56C592.492 3064.33 576.02 3047.87 564.411 3036.23C546.319 3018.17 537.229 3009.08 518.812 3007.31C497.124 3005.22 466.746 3013.11 445.231 3031.01C432.287 3041.7 433.562 3046.98 407.108 3088.06C392.319 3111.07 384.969 3122.64 374.981 3134.43C362.712 3149.07 339.261 3177.06 303.168 3195.63C267.935 3213.81 254.01 3205.81 232.76 3224.11C209.858 3243.7 206.384 3269.93 206.038 3273.6C203.353 3298.93 220.404 3304.09 239.13 3333.6C255.036 3358.85 272.44 3386.36 259.92 3419.93C250.587 3444.88 228.719 3462.24 185.37 3496.72C137.946 3534.28 105.189 3560.4 76.7805 3557.41C49.5859 3554.57 33.9212 3525.9 45.3973 3510.07L46.0652 3509.81Z" fill="#3A4E82"/>
<path d="M2862.96 5426.83C2852.18 5436.57 2832.37 5426.27 2805.36 5421.64C2760.69 5413.86 2752 5430.97 2712 5429.36C2666.66 5427.43 2616.18 5402.33 2587.63 5366.71C2557.76 5329.45 2573.57 5308.2 2539.19 5271.24C2516.07 5246.41 2489.4 5235.2 2467.09 5225.66C2403.79 5198.95 2382.9 5216.16 2344.29 5197.55C2288.31 5170.53 2258.76 5098.71 2253.37 5047.51C2244.89 4966.08 2295.91 4918.91 2261.9 4872.72C2258.74 4868.44 2247.52 4853.66 2228.03 4846.54C2191.21 4833.23 2172.65 4865.17 2124.17 4864.96C2084.59 4864.78 2033.67 4843.14 2012.6 4807.67C2001.26 4788.64 2002.71 4772.55 1987.29 4765.02C1969.74 4756.34 1956.46 4771.73 1933.64 4768.51C1905.8 4764.58 1887.55 4736.42 1869.84 4709.05C1846.52 4673.07 1819.29 4630.65 1829.45 4586.34C1836.83 4554.06 1855.63 4557.47 1889.33 4491.91C1908 4455.77 1908.82 4441.75 1906.86 4429.98C1904.56 4416.35 1893.32 4400.45 1871.25 4368.98C1856.15 4347.54 1848.4 4336.66 1835.38 4323.91C1833.61 4322.17 1815.63 4304.74 1791.71 4290.16C1734.61 4255.55 1698.36 4271.01 1625.52 4241.47C1572.91 4220.1 1577.89 4206.36 1531.6 4193.55C1475.52 4178.05 1426.9 4187.13 1418.38 4188.73C1367.98 4198.52 1362.2 4217.62 1302.78 4225.56C1287.39 4227.59 1276.57 4227.78 1262.12 4234.68C1236.09 4246.93 1225.47 4268.04 1212.7 4289.32C1198.9 4312.36 1172.94 4355.94 1137.88 4388.33C1118.18 4406.69 1079.65 4442.5 1043.11 4432.59C1017.72 4425.67 1015.53 4402.96 993.565 4400.16C985.095 4399.11 965.928 4400.05 914.039 4466.33C865.866 4527.92 864.388 4550.23 835.033 4559.05C823.826 4562.48 800.354 4557.78 753.636 4548.42C704.224 4538.44 679.589 4533.69 650.18 4522.08C602.22 4503.33 600.449 4491.82 577.833 4492.42C540.643 4493.23 537.896 4524.58 495.091 4531.44C469.412 4535.78 447.676 4528.14 406.593 4513.85C358.938 4497.17 355.064 4485.63 323.693 4481.78C302.405 4479.13 284.768 4483.08 249.454 4491.21C218.324 4498.3 187.112 4505.81 156.16 4527.81C137.969 4540.75 140.662 4543.81 129.965 4548.24C87.7067 4565.66 11.4414 4532 0.212018 4484.35C-3.80289 4467.45 -0.651133 4443.74 11.6585 4439.45C30.5416 4432.67 52.018 4478.22 105.083 4489.92C119.676 4493.26 130.659 4492.22 152.398 4490.09C201.019 4485.9 222.13 4471.19 263.875 4460.09C308.295 4448.5 330.831 4443.44 355.037 4449.2C400.754 4460.11 410.234 4492.48 457.302 4496.37C480.366 4498.31 500.29 4492.22 508.741 4489.71C542.852 4479.31 546.797 4464.89 570.435 4458.97C598.259 4452.02 608.602 4467.71 658.442 4479.12C675.954 4483.12 728.611 4494.51 786.606 4479.36C809.795 4473.34 839.17 4465.63 863.509 4441.45C880.865 4424.32 879.705 4414.51 918.773 4356.39C937.501 4328.48 942.728 4323.24 951.058 4318.93C968.554 4309.61 981.289 4314.08 1025.3 4309.5C1039.89 4307.95 1055.43 4306.4 1074.04 4302.22C1104.68 4295.24 1134.61 4288.33 1153.64 4264.93C1163.75 4252.58 1158.79 4250.34 1172.19 4226.98C1177.82 4217.17 1194.16 4188.27 1215.95 4173.71C1242.33 4155.99 1268.33 4164.61 1323.05 4166.47C1376.12 4168.4 1361.94 4160.49 1453.14 4156.72C1540.31 4153.13 1584.91 4151.57 1622.97 4171.83C1637.24 4179.31 1649.07 4188.46 1676.2 4199.77C1710.44 4214.27 1734.57 4218.02 1749.98 4221.99C1793.1 4232.97 1799.2 4253.68 1893.25 4331.38C1971.32 4395.88 1994.77 4404.35 1996.55 4431.63C1998.12 4453.97 1981.94 4474.69 1949.64 4515.93C1931.01 4539.64 1916.23 4553.13 1897.32 4585.67C1883.22 4610.2 1880.57 4621.58 1879.99 4631.88C1879.79 4635.39 1879 4666.29 1901.87 4692.4C1922.6 4716.24 1951.64 4722.44 1975.93 4727.78C2020.47 4737.53 2036.08 4725.78 2064.92 4742.82C2076.71 4749.73 2076.96 4753.34 2096.59 4765.83C2116.04 4778.05 2130.24 4787.07 2144.92 4789.99C2185.53 4798.17 2200.43 4753.62 2239.96 4758.89C2268.74 4762.82 2290.8 4790.73 2299.85 4809.46C2303.89 4817.71 2306.66 4827.67 2302.94 4894.54C2300.68 4935.55 2299.32 4936.57 2298.39 4962.11C2296.76 5005.93 2296.08 5027.76 2302.7 5055.47C2309.12 5081.81 2316.85 5113.55 2343 5135.97C2367.8 5156.97 2385.19 5149.4 2448.66 5165.48C2517.04 5182.91 2552.34 5191.87 2574.46 5220.69C2601.84 5256.27 2584.15 5289.75 2619.72 5318.09C2629.47 5325.88 2641.37 5331.04 2665.35 5341.64C2688.25 5351.76 2705.7 5357.31 2725.17 5363.32C2767.88 5376.43 2789.11 5383.06 2812.68 5386.01C2842.22 5389.66 2858.4 5387.15 2866.12 5398.24C2871.77 5406.64 2870.58 5420.13 2863.45 5426.72L2862.96 5426.83Z" fill="#47650C"/>
<path d="M3028.93 1259.91C3001.14 1267.06 2978.05 1210.16 2909.47 1195.87C2868.08 1187.22 2812.3 1194.93 2790.05 1222.65C2767.76 1250.58 2797.62 1276.3 2801.84 1356.89C2804.52 1406.24 2806.75 1452.01 2776.29 1466.79C2743.19 1482.88 2684.5 1456.49 2620.55 1427.91C2566.07 1403.54 2565.98 1394.79 2532.17 1387.18C2519.03 1384.12 2441.89 1368.18 2396.02 1400.69C2378.58 1413.06 2376.52 1424.94 2347.55 1441.93C2318.37 1458.67 2302.47 1457.54 2297 1456.63C2282.07 1454.57 2272.53 1446.21 2259.49 1434.87C2189.76 1374.77 2194.39 1382.09 2170.98 1357.88C2132.1 1317.78 2129.29 1307.7 2130.25 1299.13C2131.97 1283.05 2146.11 1278.86 2158.88 1262.44C2176.86 1239.25 2166.45 1225.07 2167.47 1157.57C2168.55 1091.17 2169.24 1057.89 2181.79 1038.16C2185.1 1033.03 2193.34 1021.1 2190.6 1006.01C2188.84 996.114 2182.31 985.856 2167.55 973.57C2138.89 950.232 2114.85 949.711 2084.72 936.386C2032.73 913.082 2042.96 886.632 1993.09 858.878C1985.75 854.815 1932.33 825.817 1876.45 834.168C1857.17 837.062 1846.02 845.678 1823.53 860.913C1784.35 887.332 1766.96 908.66 1741.43 933.648C1693.35 980.409 1669.57 1004.6 1638.43 1012.5C1577.05 1027.79 1552.16 990.455 1473.88 1005.76C1433.07 1013.79 1425.46 1026.71 1370.1 1035.15C1354.1 1037.72 1322.21 1042.22 1286.51 1039.31C1215.38 1033.55 1204.54 1003.36 1127.62 981.573C1077.77 967.575 1034.22 966.636 949.029 964.637C890.522 963.383 862.838 966.838 823.923 951.61C786.311 936.6 791.504 925.243 749.526 902.955C711.72 882.892 669.131 874.909 584.85 859.966C511.252 846.806 509.175 851.044 489.398 841.412C456.734 825.7 436.221 797.173 395.454 740.162C371.285 706.441 357.298 686.643 346.16 656.626C333.565 622.654 341.378 620.902 329.232 588.97C311.967 543.304 295.296 545.105 272.552 493.941C254.438 453.154 261.757 444.99 242.934 426.786C224.335 408.838 200.765 400.974 199.546 383.308C198.821 372.055 207.635 367.633 203.935 358.066C198.928 345.224 177.408 339.449 166.424 336.305C131.238 325.848 101.953 304.587 69.5498 288.919C25.0422 267.3 -13.8036 248.592 -45.006 215.224C-76.2453 182.069 -64.8354 171.968 -108.383 121.697C-147.904 76.0266 -169.685 70.2077 -178.768 68.473C-211.752 62.3118 -234.911 79.8373 -246.091 70.1127C-255.855 61.4976 -247.852 38.6044 -231.943 25.7622C-209.121 7.08909 -169.854 9.49713 -144.349 17.0292C-110.392 26.8454 -91.6386 48.53 -55.397 91.4699C-24.4872 128.063 -21.5645 140.556 9.27142 177.573C44.8051 219.958 52.0788 230.558 68.5051 239.413C94.5409 253.145 107.708 248.358 144.128 262.515C175.036 274.441 194.784 288.87 213.562 302.701C269.638 344.15 302.237 389.538 321.553 414.154C409.931 525.825 472.59 517.077 552.698 623.875C562.506 636.863 577.968 671.313 615.698 738.076C629.469 762.203 637.305 775.735 655.517 783.577C684.974 796.135 707.688 779.627 756.714 787.593C776.519 790.899 790.037 796.43 816.963 808.128C877.369 833.929 878.135 848.027 927.035 870.597C981.634 895.865 1037.47 904.75 1054.45 907.366C1099.9 914.299 1109.87 909.414 1134.97 920.808C1172.51 937.771 1169.93 957.204 1208.48 974.554C1238.35 987.835 1266.71 988.203 1292.13 988.518C1329.05 989.006 1361.43 989.391 1381.05 972.148C1403.2 952.708 1383.93 932.465 1401.32 892.585C1411.96 868.386 1440.26 827.489 1476.47 827.422C1509.48 827.258 1514.33 861.029 1576.98 890.914C1594.07 899.007 1648.3 924.867 1700.76 911.577C1724.05 905.643 1737.8 894.405 1753.71 881.563C1805.56 839.359 1792.93 808.656 1826.99 790.113C1871.73 765.712 1943.7 791.262 1986.68 806.294C2029.61 821.538 2041.69 833.813 2118.2 874.962C2205.02 921.544 2204.78 912.118 2226.73 929.316C2281.43 972.499 2321.67 1049.5 2297.72 1107.06C2283.52 1140.92 2260.29 1137.27 2239.56 1185.54C2224.36 1220.54 2224.29 1251.75 2224.22 1273.78C2224.16 1308.04 2224.11 1325.28 2237.57 1343.46C2253.42 1364.88 2284.42 1384.02 2316.39 1385.21C2335.56 1386.01 2338.82 1379.57 2393.65 1361.88C2424.34 1351.94 2439.7 1346.86 2457.38 1343.92C2479.22 1340.14 2520.96 1332.92 2565.27 1346.43C2608.57 1359.56 2613.33 1380 2645.41 1380.55C2679.88 1381.28 2704.03 1358.03 2707.3 1354.65C2730.08 1331.6 2720.48 1311.23 2729.34 1264.9C2737.02 1225.36 2745.33 1182.22 2782.77 1159.66C2810.62 1142.92 2842.44 1144.96 2905.57 1148.95C2974.5 1153.47 3022.25 1156.42 3042.8 1184.73C3062.5 1211.81 3051.85 1254.57 3029.67 1260.25L3028.93 1259.91Z" fill="#D49634"/>
</g>
<defs>
<clipPath id="clip0_680_322">
<rect width="2487" height="7831" fill="white"/>
</clipPath>
</defs>
</svg>
