<svg width="2487" height="10706" viewBox="0 0 2487 10706" fill="none" xmlns="http://www.w3.org/2000/svg">
<g clip-path="url(#clip0_680_322)">
<rect width="2487" height="10706" fill="#FDFCFC"/>
<path d="M-245.234 9404.97C-231.175 9381.41 -176.305 9410.11 -119.669 9376.48C-85.456 9356.21 -52.6804 9314.01 -56.5424 9278.24C-60.5251 9242.29 -98.5827 9241.94 -156.86 9182.76C-192.606 9146.59 -225.592 9112.87 -214.957 9081.71C-203.416 9047.83 -145.208 9029.93 -81.9117 9010.29C-27.9596 8993.59 -21.888 9000.25 6.41971 8984.11C17.5001 8977.92 81.1138 8939.99 90.0902 8885.18C93.4916 8864.34 86.737 8853.87 94.8319 8821.97C103.255 8790.13 114.879 8780.66 119.243 8777.8C130.846 8769.67 143.105 8769.89 159.808 8770.12C248.719 8770.95 240.529 8768.34 273.15 8771.71C327.259 8777.24 336.099 8783.15 341.34 8790.36C351.217 8803.84 344.446 8816.25 347.01 8837.18C350.678 8866.69 367.528 8870.82 413.232 8923.33C458.125 8975.06 480.528 9001.08 485.525 9024.4C486.791 9030.49 489.369 9045.02 501.607 9054.83C509.616 9061.28 521.123 9064.92 539.643 9064.76C575.247 9064.06 592.02 9048.82 621.747 9039.46C673.26 9023.55 684.456 9050.53 737.583 9039.42C745.385 9037.77 801.783 9025.31 834.196 8982.54C845.365 8967.79 847.056 8953.91 851.94 8927.58C860.533 8881.8 857.742 8854.1 857.995 8818.3C858.682 8751.1 858.292 8717.05 874.121 8690.73C905.517 8639.06 948.164 8651.56 991.084 8588.89C1013.43 8556.17 1009.74 8541.3 1041.74 8498.81C1050.9 8486.43 1069.58 8462.23 1095.94 8441.25C1148.46 8399.41 1176.61 8415.56 1244.11 8382.27C1287.76 8360.6 1318.14 8333 1377.67 8279.13C1418.48 8242.05 1435 8221.39 1472.04 8207.78C1508.03 8194.85 1512.29 8206.95 1556.27 8196.78C1595.87 8187.6 1630.43 8166.04 1698.24 8122.7C1757.53 8084.95 1756.04 8080.34 1776.16 8074.88C1809.26 8065.71 1842.87 8074.29 1909.89 8091.58C1949.57 8101.77 1972.73 8107.88 2000.96 8123.7C2032.91 8141.61 2028.78 8148.04 2059.02 8164.67C2102.19 8188.53 2112.34 8176.31 2163.03 8200.82C2203.43 8220.38 2204.05 8231.41 2229.41 8233.16C2254.44 8234.85 2275.94 8225.57 2288.92 8238.35C2297.15 8246.52 2294.17 8255.65 2303.27 8260.6C2315.51 8267.21 2334.18 8257.65 2343.84 8252.92C2375.05 8238.07 2409.65 8235.36 2442.54 8226.32C2487.79 8213.99 2527.17 8203.1 2571.4 8208.44C2615.52 8213.6 2614.67 8228.78 2678.96 8239.08C2737.33 8248.47 2756.2 8238.78 2763.59 8234.2C2790.34 8217.48 2794.11 8188.96 2808.43 8189.16C2821.01 8189.43 2831.28 8212.22 2829.25 8232.43C2826.5 8261.62 2798.04 8285.31 2775.45 8296.11C2745.52 8310.66 2717.81 8306.19 2663.56 8296.77C2617.3 8288.76 2606.72 8281.06 2560.23 8272.67C2506.84 8263.22 2494.58 8259.8 2477.28 8263.68C2450.07 8270.06 2444.37 8282.3 2409.78 8295.11C2380.48 8306.05 2357.08 8307.81 2334.75 8309.4C2267.98 8314.02 2214.53 8300.35 2184.42 8294C2047.33 8265.67 2010.56 8313.15 1882.47 8283.19C1866.84 8279.59 1832.61 8263.18 1760.96 8236.42C1734.98 8226.84 1720.33 8221.54 1702.5 8227.36C1673.76 8236.87 1669.6 8264.32 1630.66 8290.09C1614.86 8300.43 1601.83 8304.97 1575.41 8313.49C1516.44 8332.96 1506.22 8322.62 1457.32 8337.08C1402.68 8353.18 1358.45 8382.67 1345.07 8391.7C1309.27 8415.93 1305.82 8426.17 1280.86 8433.74C1243.57 8445.12 1231.97 8428.52 1193.73 8440.25C1164.21 8449.48 1144.59 8467.64 1127.02 8483.93C1101.48 8507.56 1079.11 8528.33 1077.57 8554.34C1075.81 8583.68 1102.88 8586.7 1118.41 8628.65C1127.78 8654.17 1136.57 8703.99 1111.9 8727.59C1089.47 8749.19 1062.95 8726.4 999.64 8744.18C982.407 8749.08 927.61 8764.48 900.934 8808.8C889.114 8828.51 887.449 8846.09 885.415 8866.3C879.024 8932.45 908.748 8947.83 898.24 8984.23C884.472 9032.07 817.77 9059.25 778.101 9075.65C738.312 9091.86 721.629 9090.29 641.114 9108.43C549.821 9129.1 556.463 9136.19 529.659 9137.25C462.632 9139.65 382.232 9106.65 359.023 9046.85C345.442 9011.6 363.816 8999.3 344.788 8948.73C331.107 8911.95 309.702 8887.93 294.61 8870.95C271.101 8844.59 259.287 8831.32 237.598 8826.1C212.055 8819.96 177.736 8825.4 155.092 8845.28C141.457 8857.14 143.654 8864.21 118.385 8913.46C104.265 8941.06 97.265 8954.95 87.2223 8968.7C74.907 8985.81 51.3691 9018.51 11.8341 9036.94C-26.749 9055.02 -44.0466 9042.41 -66.3293 9062.85C-90.3616 9084.7 -90.8694 9118.28 -90.7762 9123.01C-90.4862 9155.53 -69.9306 9164.94 -44.1384 9206.3C-22.206 9241.67 1.77695 9280.22 -8.27659 9321.9C-15.7815 9352.88 -38.9085 9372.01 -84.7469 9410C-134.916 9451.36 -169.546 9480.15 -203.038 9471.76C-235.095 9463.76 -257.208 9423.98 -245.978 9405.2L-245.234 9404.97Z" fill="#A40616"/>
<path d="M-87.2825 5461.84C-72.9111 5441.97 -27.7197 5458.53 24.6375 5426.32C56.2627 5406.88 88.6163 5370.51 88.4832 5343.03C88.2619 5315.42 55.1512 5319.18 9.74543 5279.22C-18.1178 5254.81 -43.7976 5232.02 -31.7217 5206.59C-18.6119 5178.95 33.6949 5158.83 90.5888 5136.81C139.081 5118.06 143.767 5122.62 169.876 5107.03C180.085 5101.03 238.907 5064.72 251.674 5021.03C256.518 5004.42 251.582 4996.97 261.512 4971.25C271.723 4945.53 282.7 4936.91 286.759 4934.22C297.598 4926.65 308.254 4925.52 322.778 4923.94C400.13 4915.16 393.234 4913.99 421.337 4913.16C467.959 4911.73 475.123 4915.41 479.036 4920.47C486.42 4929.93 479.403 4940.33 479.746 4956.37C480.275 4978.99 494.576 4980.42 529.634 5016.52C564.058 5052.09 581.218 5070 583.463 5087.66C584.015 5092.27 584.948 5103.32 594.72 5109.67C601.111 5113.86 610.804 5115.47 626.946 5113.39C658.015 5109.06 673.997 5095.41 700.73 5084.96C747.026 5067.1 754.34 5086.94 801.608 5072.64C808.552 5070.53 858.791 5054.84 890.88 5018.06C901.939 5005.37 904.665 4994.38 911.296 4973.33C922.913 4936.72 922.984 4915.43 926.438 4887.49C933.105 4835.02 935.84 4808.51 952.002 4786.31C984.009 4742.7 1020.02 4747.92 1063.06 4694.51C1085.47 4666.64 1083.6 4655.43 1115.31 4618.91C1124.4 4608.29 1142.85 4587.44 1167.7 4568.29C1217.22 4530.11 1240.27 4539.71 1302.06 4506.6C1342.03 4485.08 1370.98 4460.34 1427.69 4412.03C1466.57 4378.79 1482.83 4360.93 1516.31 4346.39C1548.82 4332.5 1551.44 4341.48 1590.65 4328.89C1625.97 4317.54 1658.01 4297.06 1720.98 4256.09C1776.02 4220.37 1775.14 4216.93 1793.15 4210.54C1822.81 4199.88 1851.3 4203.01 1908.1 4209.38C1941.73 4213.12 1961.35 4215.43 1984.51 4224.77C2010.71 4235.35 2006.54 4240.8 2031.37 4250.56C2066.81 4264.59 2076.75 4253.98 2118.68 4267.72C2152.1 4278.69 2151.64 4287.23 2173.57 4285.9C2195.21 4284.56 2214.77 4275.04 2224.92 4283.63C2231.35 4289.14 2227.93 4296.57 2235.41 4299.46C2245.48 4303.31 2262.59 4293.88 2271.43 4289.17C2299.95 4274.29 2330.33 4268.51 2359.79 4257.97C2400.3 4243.56 2435.58 4230.9 2473.62 4230.37C2511.57 4229.72 2509.46 4241.64 2564.52 4242.86C2614.5 4243.99 2631.81 4234.43 2638.66 4230.08C2663.47 4214.21 2669.32 4191.57 2681.77 4190.21C2692.71 4189.09 2699.6 4205.77 2696 4221.74C2690.97 4244.79 2664.04 4266.28 2643.4 4277.1C2616.02 4291.61 2592.29 4291.06 2545.9 4289.47C2506.34 4288.12 2497.82 4283.24 2458.09 4281.63C2412.45 4279.92 2402.08 4278.56 2386.67 4283.42C2362.39 4291.28 2356.32 4301.43 2325.04 4315.08C2298.54 4326.71 2278 4330.57 2258.42 4334.17C2199.85 4344.85 2154.54 4339.86 2128.89 4338.1C2012.07 4330.55 1975.76 4371.46 1866.92 4361.68C1853.64 4360.53 1825.31 4351.36 1765.33 4338.1C1743.57 4333.38 1731.28 4330.8 1715.24 4337.23C1689.35 4347.69 1683.25 4369.54 1647 4393.75C1632.32 4403.49 1620.56 4408.41 1596.78 4417.86C1543.67 4439.28 1535.71 4432.31 1491.82 4448.77C1442.78 4467.11 1401.6 4494.79 1389.13 4503.25C1355.77 4525.94 1351.84 4534.28 1329.41 4542.83C1295.91 4555.66 1287.31 4543.94 1252.95 4557.15C1226.41 4567.47 1207.69 4583.71 1190.91 4598.27C1166.54 4619.41 1145.18 4637.96 1141.49 4658.41C1137.31 4681.47 1160.61 4680.96 1170.35 4712.02C1176.2 4730.92 1179.36 4768.83 1155.74 4789.85C1134.26 4809.06 1113.22 4794.11 1056.48 4814.68C1041.03 4820.33 991.922 4838.14 964.688 4875.53C952.615 4892.15 949.578 4906.03 945.981 4922C934.442 4974.25 958.938 4983.09 946.499 5012.59C930.189 5051.35 869.648 5079.61 833.622 5096.6C797.508 5113.46 783.122 5114 711.368 5136.67C629.999 5162.47 635.142 5167.3 611.704 5170.96C553.118 5179.94 486.082 5162.74 471.271 5118.57C462.628 5092.53 479.739 5080.99 467.736 5043.58C459.144 5016.35 442.673 4999.9 431.064 4988.26C412.972 4970.2 403.882 4961.1 385.465 4959.33C363.776 4957.25 333.398 4965.14 311.883 4983.03C298.939 4993.72 300.214 4999 273.76 5040.08C258.972 5063.09 251.622 5074.67 241.634 5086.45C229.364 5101.1 205.914 5129.08 169.82 5147.65C134.587 5165.84 120.662 5157.84 99.4119 5176.14C76.5103 5195.72 73.0359 5221.95 72.6902 5225.63C70.0058 5250.95 87.0564 5256.11 105.783 5285.62C121.688 5310.87 139.092 5338.39 126.572 5371.95C117.239 5396.9 95.3715 5414.27 52.0227 5448.74C4.59869 5486.31 -28.1587 5512.42 -56.5671 5509.43C-83.7618 5506.59 -99.4264 5477.93 -87.9504 5462.09L-87.2825 5461.84Z" fill="#3A4E82"/>
<path d="M2729.61 7378.85C2718.83 7388.6 2699.02 7378.29 2672.02 7373.67C2627.34 7365.88 2618.66 7382.99 2578.65 7381.39C2533.32 7379.45 2482.83 7354.35 2454.29 7318.73C2424.42 7281.47 2440.22 7260.22 2405.84 7223.27C2382.73 7198.44 2356.05 7187.23 2333.75 7177.68C2270.44 7150.98 2249.55 7168.18 2210.94 7149.58C2154.96 7122.55 2125.41 7050.73 2120.02 6999.54C2111.54 6918.1 2162.57 6870.94 2128.56 6824.74C2125.39 6820.47 2114.17 6805.69 2094.68 6798.56C2057.87 6785.25 2039.3 6817.19 1990.82 6816.98C1951.24 6816.8 1900.33 6795.16 1879.25 6759.7C1867.91 6740.67 1869.37 6724.57 1853.94 6717.04C1836.39 6708.36 1823.12 6723.76 1800.3 6720.53C1772.46 6716.6 1754.2 6688.44 1736.49 6661.08C1713.17 6625.1 1685.94 6582.67 1696.1 6538.37C1703.48 6506.08 1722.28 6509.5 1755.98 6443.93C1774.65 6407.8 1775.47 6393.77 1773.52 6382C1771.22 6368.37 1759.97 6352.48 1737.9 6321C1722.8 6299.56 1715.05 6288.68 1702.03 6275.93C1700.26 6274.2 1682.28 6256.76 1658.37 6242.18C1601.27 6207.58 1565.01 6223.04 1492.17 6193.49C1439.56 6172.12 1444.55 6158.39 1398.26 6145.57C1342.17 6130.07 1293.55 6139.15 1285.04 6140.76C1234.64 6150.54 1228.85 6169.64 1169.43 6177.58C1154.04 6179.61 1143.22 6179.8 1128.77 6186.71C1102.74 6198.96 1092.12 6220.07 1079.35 6241.35C1065.55 6264.39 1039.59 6307.96 1004.53 6340.35C984.827 6358.71 946.298 6394.53 909.765 6384.61C884.375 6377.69 882.179 6354.99 860.218 6352.18C851.747 6351.13 832.581 6352.07 780.691 6418.36C732.518 6479.94 731.041 6502.25 701.686 6511.08C690.479 6514.51 667.007 6509.8 620.288 6500.44C570.876 6490.47 546.241 6485.72 516.833 6474.1C468.873 6455.35 467.101 6443.85 444.485 6444.44C407.295 6445.26 404.548 6476.61 361.743 6483.46C336.064 6487.8 314.328 6480.16 273.245 6465.87C225.591 6449.19 221.717 6437.65 190.346 6433.8C169.058 6431.15 151.421 6435.11 116.106 6443.24C84.976 6450.32 53.7639 6457.83 22.8123 6479.84C4.62096 6492.77 7.31439 6495.83 -3.38284 6500.27C-45.6409 6517.69 -121.906 6484.02 -133.136 6436.38C-137.151 6419.47 -133.999 6395.77 -121.689 6391.48C-102.806 6384.7 -81.3297 6430.25 -28.2641 6441.95C-13.6712 6445.29 -2.68905 6444.25 19.0501 6442.12C67.6716 6437.92 88.7819 6423.21 130.527 6412.12C174.947 6400.52 197.483 6395.47 221.689 6401.23C267.407 6412.14 276.887 6444.5 323.954 6448.39C347.018 6450.34 366.942 6444.24 375.393 6441.73C409.504 6431.33 413.449 6416.91 437.088 6411C464.911 6404.04 475.254 6419.73 525.095 6431.14C542.606 6435.15 595.263 6446.53 653.258 6431.38C676.447 6425.37 705.822 6417.65 730.162 6393.47C747.517 6376.35 746.357 6366.53 785.425 6308.42C804.153 6280.51 809.381 6275.26 817.71 6270.95C835.206 6261.63 847.941 6266.1 891.95 6261.52C906.544 6259.97 922.078 6258.42 940.695 6254.25C971.335 6247.27 1001.26 6240.35 1020.29 6216.95C1030.4 6204.61 1025.44 6202.36 1038.84 6179.01C1044.48 6169.19 1060.82 6140.29 1082.6 6125.74C1108.98 6108.02 1134.98 6116.63 1189.7 6118.5C1242.77 6120.43 1228.59 6112.52 1319.79 6108.74C1406.97 6105.16 1451.57 6103.6 1489.63 6123.85C1503.89 6131.34 1515.73 6140.48 1542.85 6151.8C1577.09 6166.3 1601.22 6170.04 1616.63 6174.01C1659.75 6184.99 1665.85 6205.7 1759.9 6283.4C1837.97 6347.9 1861.42 6356.38 1863.2 6383.65C1864.77 6405.99 1848.59 6426.72 1816.29 6467.95C1797.66 6491.67 1782.88 6505.16 1763.97 6537.69C1749.88 6562.22 1747.22 6573.6 1746.64 6583.91C1746.44 6587.41 1745.65 6618.32 1768.52 6644.43C1789.25 6668.27 1818.3 6674.47 1842.58 6679.8C1887.12 6689.55 1902.74 6677.81 1931.57 6694.84C1943.37 6701.76 1943.61 6705.37 1963.24 6717.85C1982.69 6730.08 1996.89 6739.1 2011.57 6742.01C2052.18 6750.2 2067.08 6705.65 2106.61 6710.92C2135.39 6714.84 2157.45 6742.76 2166.5 6761.48C2170.54 6769.74 2173.31 6779.7 2169.6 6846.57C2167.34 6887.57 2165.97 6888.59 2165.04 6914.14C2163.41 6957.95 2162.73 6979.78 2169.35 7007.5C2175.77 7033.83 2183.5 7065.58 2209.66 7088C2234.45 7108.99 2251.84 7101.43 2315.32 7117.51C2383.69 7134.93 2419 7143.9 2441.11 7172.72C2468.49 7208.29 2450.8 7241.77 2486.37 7270.12C2496.12 7277.9 2508.02 7283.07 2532 7293.66C2554.9 7303.79 2572.35 7309.33 2591.82 7315.34C2634.54 7328.45 2655.76 7335.08 2679.34 7338.04C2708.87 7341.69 2725.06 7339.17 2732.77 7350.27C2738.42 7358.66 2737.23 7372.16 2730.1 7378.74L2729.61 7378.85Z" fill="#47650C"/>
<path d="M2895.58 3211.93C2867.79 3219.08 2844.7 3162.18 2776.13 3147.9C2734.73 3139.24 2678.95 3146.95 2656.7 3174.67C2634.42 3202.6 2664.27 3228.32 2668.49 3308.92C2671.17 3358.26 2673.4 3404.04 2642.94 3418.82C2609.85 3434.9 2551.15 3408.51 2487.21 3379.94C2432.72 3355.56 2432.63 3346.82 2398.83 3339.21C2385.68 3336.14 2308.55 3320.21 2262.67 3352.71C2245.24 3365.08 2243.17 3376.96 2214.21 3393.95C2185.02 3410.69 2169.12 3409.57 2163.65 3408.65C2148.72 3406.6 2139.18 3398.24 2126.14 3386.89C2056.41 3326.79 2061.04 3334.11 2037.63 3309.91C1998.75 3269.8 1995.94 3259.73 1996.9 3251.16C1998.62 3235.07 2012.76 3230.88 2025.54 3214.46C2043.51 3191.27 2033.11 3177.09 2034.12 3109.59C2035.2 3043.2 2035.9 3009.92 2048.45 2990.18C2051.75 2985.06 2059.99 2973.12 2057.25 2958.04C2055.49 2948.14 2048.96 2937.88 2034.2 2925.59C2005.55 2902.26 1981.5 2901.74 1951.37 2888.41C1899.38 2865.11 1909.61 2838.66 1859.74 2810.9C1852.4 2806.84 1798.99 2777.84 1743.1 2786.19C1723.83 2789.09 1712.67 2797.7 1690.18 2812.94C1651 2839.36 1633.61 2860.68 1608.08 2885.67C1560 2932.43 1536.22 2956.62 1505.08 2964.52C1443.7 2979.81 1418.82 2942.48 1340.54 2957.79C1299.72 2965.82 1292.11 2978.74 1236.75 2987.17C1220.75 2989.74 1188.86 2994.24 1153.17 2991.34C1082.04 2985.58 1071.2 2955.39 994.272 2933.6C944.418 2919.6 900.873 2918.66 815.681 2916.66C757.175 2915.41 729.491 2918.86 690.576 2903.63C652.963 2888.62 658.156 2877.27 616.178 2854.98C578.372 2834.92 535.784 2826.93 451.502 2811.99C377.904 2798.83 375.827 2803.07 356.05 2793.44C323.386 2777.72 302.873 2749.2 262.106 2692.19C237.937 2658.47 223.95 2638.67 212.812 2608.65C200.218 2574.68 208.03 2572.93 195.885 2540.99C178.619 2495.33 161.949 2497.13 139.204 2445.97C121.09 2405.18 128.409 2397.01 109.587 2378.81C90.9874 2360.86 67.4172 2353 66.1986 2335.33C65.4737 2324.08 74.2872 2319.66 70.5879 2310.09C65.5807 2297.25 44.0605 2291.47 33.0768 2288.33C-2.10921 2277.87 -31.3949 2256.61 -63.798 2240.94C-108.306 2219.32 -147.151 2200.62 -178.354 2167.25C-209.593 2134.09 -198.183 2123.99 -241.731 2073.72C-281.252 2028.05 -303.032 2022.23 -312.116 2020.5C-345.1 2014.34 -368.258 2031.86 -379.438 2022.14C-389.203 2013.52 -381.199 1990.63 -365.291 1977.79C-342.469 1959.11 -303.202 1961.52 -277.697 1969.05C-243.74 1978.87 -224.986 2000.55 -188.745 2043.49C-157.835 2080.09 -154.912 2092.58 -124.076 2129.6C-88.5427 2171.98 -81.2689 2182.58 -64.8426 2191.44C-38.8068 2205.17 -25.6398 2200.38 10.7802 2214.54C41.6886 2226.47 61.4361 2240.89 80.2149 2254.73C136.291 2296.17 168.889 2341.56 188.205 2366.18C276.583 2477.85 339.242 2469.1 419.35 2575.9C429.159 2588.89 444.62 2623.34 482.35 2690.1C496.121 2714.23 503.958 2727.76 522.169 2735.6C551.627 2748.16 574.34 2731.65 623.367 2739.62C643.171 2742.92 656.689 2748.45 683.615 2760.15C744.021 2785.95 744.787 2800.05 793.688 2822.62C848.287 2847.89 904.126 2856.77 921.1 2859.39C966.553 2866.32 976.519 2861.44 1001.62 2872.83C1039.16 2889.8 1036.59 2909.23 1075.13 2926.58C1105 2939.86 1133.36 2940.23 1158.78 2940.54C1195.7 2941.03 1228.08 2941.42 1247.7 2924.17C1269.85 2904.73 1250.58 2884.49 1267.97 2844.61C1278.62 2820.41 1306.91 2779.51 1343.12 2779.45C1376.13 2779.28 1380.99 2813.05 1443.63 2842.94C1460.73 2851.03 1514.96 2876.89 1567.41 2863.6C1590.7 2857.67 1604.45 2846.43 1620.36 2833.59C1672.21 2791.38 1659.58 2760.68 1693.64 2742.14C1738.38 2717.74 1810.36 2743.29 1853.33 2758.32C1896.26 2773.56 1908.34 2785.84 1984.85 2826.99C2071.67 2873.57 2071.43 2864.14 2093.38 2881.34C2148.08 2924.52 2188.32 3001.53 2164.37 3059.09C2150.17 3092.95 2126.94 3089.29 2106.21 3137.56C2091.01 3172.57 2090.95 3203.77 2090.87 3225.81C2090.81 3260.07 2090.76 3277.3 2104.23 3295.48C2120.08 3316.9 2151.07 3336.05 2183.04 3337.24C2202.21 3338.04 2205.47 3331.6 2260.3 3313.9C2290.99 3303.96 2306.35 3298.89 2324.03 3295.94C2345.87 3292.17 2387.61 3284.95 2431.92 3298.46C2475.23 3311.58 2479.98 3332.02 2512.07 3332.57C2546.53 3333.31 2570.68 3310.05 2573.95 3306.67C2596.73 3283.63 2587.14 3263.25 2595.99 3216.93C2603.67 3177.39 2611.98 3134.25 2649.42 3111.68C2677.27 3094.94 2709.09 3096.98 2772.22 3100.97C2841.15 3105.49 2888.91 3108.44 2909.46 3136.76C2929.15 3163.84 2918.5 3206.59 2896.33 3212.27L2895.58 3211.93Z" fill="#D49634"/>
</g>
<defs>
<clipPath id="clip0_680_322">
<rect width="2487" height="10706" fill="white"/>
</clipPath>
</defs>
</svg>
