<svg width="1440" height="833" viewBox="0 0 1440 833" fill="none" xmlns="http://www.w3.org/2000/svg">
<g clip-path="url(#clip0_911_426)">
<rect width="1440" height="833" fill="#FDFCFC"/>
<path d="M871.508 -123.091C874.523 -126.141 879.766 -123.099 887.01 -121.84C898.995 -119.718 901.521 -125.013 912.309 -124.756C924.533 -124.43 937.904 -117.035 945.236 -106.286C952.908 -95.043 948.413 -88.4364 957.307 -77.3123C963.288 -69.8381 970.374 -66.5591 976.297 -63.7648C993.113 -55.9543 998.937 -61.3498 1009.17 -55.8745C1024 -47.9224 1031.22 -26.0837 1032.13 -10.425C1033.56 14.4837 1019.28 29.2399 1027.98 43.1985C1028.78 44.4905 1031.66 48.9545 1036.85 51.0235C1046.65 54.8862 1052 44.9861 1065.09 44.766C1075.78 44.5867 1089.31 50.9207 1094.62 61.6662C1097.48 67.431 1096.92 72.3736 1101.01 74.5898C1105.66 77.1466 1109.4 72.3508 1115.53 73.2044C1123.01 74.2445 1127.64 82.7676 1132.14 91.0511C1138.05 101.941 1144.96 114.784 1141.74 128.422C1139.41 138.36 1134.37 137.425 1124.57 157.718C1119.14 168.904 1118.77 173.207 1119.18 176.803C1119.65 180.966 1122.52 185.772 1128.15 195.289C1132 201.771 1133.98 205.06 1137.36 208.89C1137.82 209.413 1142.49 214.651 1148.79 218.978C1163.85 229.248 1173.81 224.295 1193.17 232.922C1207.15 239.161 1205.66 243.401 1218.03 247.055C1233.01 251.475 1246.24 248.406 1248.55 247.864C1262.27 244.569 1264.04 238.68 1280.17 235.896C1284.35 235.184 1287.27 235.062 1291.25 232.86C1298.41 228.952 1301.5 222.421 1305.18 215.823C1309.15 208.679 1316.62 195.171 1326.43 185.038C1331.95 179.294 1342.74 168.09 1352.5 170.914C1359.28 172.886 1359.64 179.832 1365.54 180.563C1367.82 180.835 1373 180.433 1387.72 159.811C1401.39 140.652 1402.02 133.806 1410.04 130.928C1413.11 129.811 1419.4 131.115 1431.92 133.708C1445.16 136.474 1451.76 137.785 1459.58 141.172C1472.33 146.635 1472.69 150.151 1478.81 149.835C1488.86 149.366 1489.93 139.743 1501.57 137.389C1508.55 135.908 1514.34 138.121 1525.28 142.258C1537.98 147.09 1538.9 150.605 1547.34 151.6C1553.06 152.287 1557.86 150.97 1567.49 148.271C1575.97 145.916 1584.48 143.43 1593.07 136.503C1598.12 132.432 1597.43 131.51 1600.37 130.088C1611.96 124.5 1632.21 134.368 1634.73 148.905C1635.64 154.063 1634.54 161.346 1631.17 162.733C1625.99 164.922 1620.68 151.089 1606.47 147.815C1602.56 146.878 1599.58 147.261 1593.69 148.042C1580.51 149.614 1574.65 154.246 1563.26 157.893C1551.14 161.709 1545 163.391 1538.52 161.768C1526.29 158.694 1524.07 148.83 1511.4 147.915C1505.19 147.454 1499.75 149.441 1497.44 150.259C1488.11 153.648 1486.9 158.09 1480.45 160.042C1472.86 162.338 1470.23 157.59 1456.89 154.388C1452.2 153.263 1438.1 150.084 1422.28 155.068C1415.95 157.049 1407.94 159.586 1401.1 167.141C1396.24 172.491 1396.44 175.492 1385.28 193.535C1379.92 202.199 1378.45 203.837 1376.16 205.207C1371.33 208.167 1367.94 206.872 1356.01 208.536C1352.05 209.096 1347.84 209.663 1342.76 211.053C1334.41 213.372 1326.26 215.668 1320.87 222.952C1318.01 226.795 1319.32 227.453 1315.46 234.691C1313.83 237.732 1309.11 246.686 1303.07 251.275C1295.76 256.862 1288.83 254.375 1274.07 254.126C1259.75 253.847 1263.5 256.187 1238.83 257.881C1215.24 259.494 1203.18 260.235 1193.12 254.251C1189.34 252.042 1186.24 249.308 1179.04 246C1169.94 241.758 1163.46 240.752 1159.35 239.626C1147.81 236.515 1146.39 230.203 1121.81 206.942C1101.41 187.634 1095.16 185.175 1094.97 176.826C1094.78 169.988 1099.37 163.541 1108.53 150.712C1113.82 143.334 1117.95 139.112 1123.41 129.03C1127.47 121.428 1128.31 117.924 1128.58 114.762C1128.67 113.687 1129.21 104.21 1123.31 96.3429C1117.96 89.1584 1110.18 87.4284 1103.68 85.936C1091.75 83.2108 1087.41 86.903 1079.8 81.8518C1076.69 79.8009 1076.66 78.6964 1071.49 74.9851C1066.37 71.3536 1062.63 68.6716 1058.7 67.8649C1047.81 65.5956 1043.32 79.3384 1032.7 77.9552C1024.96 76.9228 1019.3 68.4961 1017.06 62.8102C1016.05 60.3049 1015.41 57.2684 1017.12 36.7506C1018.17 24.1695 1018.55 23.8491 1019.07 16.0144C1019.97 2.57605 1020.39 -4.11765 1018.89 -12.5737C1017.44 -20.6084 1015.69 -30.2921 1008.86 -37.0089C1002.39 -43.2976 997.61 -40.8762 980.637 -45.4308C962.355 -50.3681 952.913 -52.909 947.245 -61.6118C940.227 -72.3541 945.36 -82.7189 936.054 -91.1971C933.502 -93.5252 930.343 -95.0382 923.979 -98.1442C917.902 -101.113 913.247 -102.71 908.052 -104.437C896.654 -108.203 890.991 -110.111 884.655 -110.877C876.717 -111.822 872.318 -110.956 870.353 -114.31C868.915 -116.851 869.38 -120.994 871.374 -123.054L871.508 -123.091Z" fill="#3A4E82"/>
<path d="M843.998 1250.02C838.877 1253 830.971 1247.79 819.695 1244.27C801.044 1238.39 796.426 1244.29 779.44 1241.06C760.197 1237.35 739.991 1224.53 729.713 1209.17C718.955 1193.1 726.835 1186.09 714.137 1169.84C705.597 1158.92 694.813 1152.92 685.804 1147.85C660.213 1133.58 650.381 1138.72 634.897 1129.14C612.451 1115.23 603.676 1086.1 604.109 1066.36C604.837 1034.97 629.13 1020.47 617.083 1000.74C615.962 998.915 611.963 992.581 604.026 988.604C589.025 981.146 579.396 992.02 558.72 988.755C541.84 986.089 521.266 974.549 514.167 959.737C510.343 951.789 511.823 945.789 505.641 941.926C498.615 937.487 492.129 942.443 482.563 939.723C470.893 936.407 464.605 924.546 458.509 913.021C450.48 897.868 441.123 880.016 447.824 863.91C452.697 852.172 460.537 854.699 478.42 832.09C488.317 819.634 489.416 814.379 489.21 809.793C488.955 804.483 485.007 797.726 477.268 784.36C471.97 775.25 469.242 770.622 464.368 764.94C463.703 764.166 456.963 756.383 447.535 749.293C425.016 732.44 408.718 735.912 379.212 719.941C357.901 708.395 360.761 703.522 341.692 695.63C318.586 686.077 297.351 686.32 293.633 686.369C271.603 686.762 268.115 693.615 242.333 692.718C235.657 692.475 231.03 691.836 224.493 693.501C212.732 696.43 207.072 703.723 200.488 710.942C193.366 718.759 179.962 733.551 163.272 743.511C153.883 749.169 135.528 760.197 120.467 754.043C110.002 749.755 110.277 741.014 101.055 738.509C97.4963 737.555 89.2667 736.653 63.584 758.34C39.7383 778.492 37.9165 786.842 24.9182 788.255C19.9525 788.818 10.1873 785.494 -9.24995 778.882C-29.8039 771.859 -40.063 768.442 -51.9929 762.113C-71.4588 751.865 -71.6004 747.391 -81.2836 746.132C-97.1978 743.997 -100.043 755.685 -118.677 755.469C-129.867 755.425 -138.734 751.105 -155.504 742.997C-174.95 733.552 -175.986 728.926 -189.168 725.408C-198.112 723.006 -205.849 723.346 -221.354 724.103C-235.017 724.741 -248.737 725.535 -263.121 731.833C-271.574 735.535 -270.588 736.87 -275.39 737.847C-294.354 741.666 -325.102 723.911 -327.35 705.134C-328.161 698.47 -325.551 689.702 -320.069 688.887C-311.648 687.56 -304.915 706.217 -282.894 714.132C-276.845 716.355 -272.103 716.683 -262.712 717.304C-241.739 718.911 -231.945 714.728 -213.538 713.269C-193.963 711.797 -184.076 711.363 -174.054 715.135C-155.126 722.267 -152.809 735.145 -132.93 739.709C-123.192 741.961 -114.364 740.961 -110.624 740.567C-95.5113 738.87 -93.0582 733.67 -82.6548 732.983C-70.4099 732.178 -66.8337 738.797 -46.1734 746.39C-38.9144 749.057 -17.0509 756.827 8.50686 754.901C18.7242 754.146 31.6715 753.156 43.3493 745.599C51.6701 740.256 51.699 736.464 71.4741 717.027C80.9562 707.69 83.467 706.049 87.2517 704.964C95.2156 702.585 100.412 705.113 119.437 706.269C125.748 706.643 132.459 707.075 140.627 706.717C154.075 706.088 167.215 705.434 176.586 697.825C181.559 693.816 179.563 692.641 186.527 684.678C189.457 681.333 197.973 671.464 208.046 667.384C220.249 662.407 230.885 667.377 254.138 671.678C276.682 675.895 271.052 671.969 310.172 676.53C347.567 680.9 366.683 683.238 381.844 693.408C387.532 697.178 392.094 701.419 403.064 707.484C416.904 715.223 426.999 718.225 433.363 720.741C451.181 727.731 452.676 735.973 488.662 771.569C518.535 801.117 528.09 805.866 527.395 816.31C526.87 824.871 518.862 831.655 502.874 845.144C493.66 852.9 486.631 857.037 476.823 868.111C469.499 876.473 467.757 880.608 466.962 884.472C466.687 885.785 464.701 897.435 473.068 908.822C480.641 919.209 492.704 923.465 502.784 927.081C521.268 933.697 528.561 930.276 539.956 938.62C544.621 942.014 544.532 943.396 552.243 949.413C559.889 955.318 565.469 959.667 571.576 961.735C588.471 967.502 597.207 951.612 613.797 956.205C625.869 959.581 633.79 971.599 636.655 979.284C637.937 982.673 638.589 986.627 633.431 1011.7C630.277 1027.08 629.639 1027.37 627.879 1036.98C624.845 1053.47 623.389 1061.68 624.736 1072.61C626.069 1083.01 627.671 1095.53 637.637 1105.74C647.096 1115.32 654.923 1113.59 681.151 1123.85C709.399 1134.94 723.988 1140.66 731.887 1153.02C741.671 1168.29 732.335 1179.8 746 1192.87C749.747 1196.46 754.548 1199.19 764.216 1204.78C773.447 1210.12 780.597 1213.36 788.585 1216.92C806.115 1224.69 814.818 1228.59 824.721 1231.26C837.13 1234.58 844.172 1234.69 846.87 1239.4C848.833 1242.95 847.606 1247.98 844.213 1250.01L843.998 1250.02Z" fill="#47650C"/>
<path d="M1486.44 914.607C1483.65 919.565 1474.07 918.589 1462.5 920.628C1443.34 923.954 1442.55 931.258 1426.24 936.153C1407.74 941.659 1383.51 939.588 1366.44 930.755C1348.57 921.519 1351.57 911.76 1331.94 903.248C1318.75 897.531 1306.27 897.17 1295.81 896.807C1266.19 895.916 1260.52 904.922 1242.08 903.549C1215.35 901.541 1192.17 879.904 1181.93 862.338C1165.69 834.383 1178.73 810.544 1157.8 798.677C1155.85 797.581 1149.02 793.831 1140.07 793.948C1123.19 794.223 1120.78 808.182 1101.28 814.733C1085.37 820.082 1061.51 819.305 1047.46 809.506C1039.91 804.255 1037.96 798.3 1030.58 797.718C1022.16 797.015 1019.26 804.332 1009.59 806.3C997.798 808.701 986.029 801.13 974.606 793.767C959.574 784.091 941.952 772.647 939.046 755.418C936.919 742.866 945.003 741.517 948.196 713.469C949.992 697.996 948.111 692.87 945.471 688.928C942.398 684.371 935.38 680.225 921.556 671.99C912.115 666.388 907.288 663.559 900.053 660.781C899.066 660.402 889.101 656.626 877.201 654.684C848.824 650.118 836.707 660.603 802.809 659.998C778.32 659.552 778.156 653.959 757.554 655.707C732.596 657.833 714.508 667.727 711.344 669.464C692.654 679.852 693.345 687.474 670.743 698.436C664.885 701.266 660.572 702.812 655.858 707.258C647.341 715.197 646.405 724.195 644.636 733.549C642.726 743.674 639.176 762.802 630.209 779.176C625.194 788.434 615.373 806.506 599.144 807.956C587.861 808.953 583.399 801.135 574.141 803.135C570.575 803.917 563.03 806.875 552.65 837.667C543.021 866.272 545.946 874.45 535.553 881.619C531.595 884.378 521.431 885.904 501.201 888.946C479.792 892.135 469.154 893.805 455.517 893.673C433.309 893.527 430.784 889.655 421.799 892.961C406.998 898.337 410.838 909.919 394.735 918.223C385.111 923.285 375.181 923.526 356.436 924.035C334.677 924.587 331.301 920.989 318.101 923.902C309.137 925.865 302.681 929.691 289.786 937.425C278.407 944.215 267.062 951.168 258.106 963.267C252.843 970.378 254.406 971.104 250.811 974.152C236.594 986.157 200.671 984.549 188.651 969.05C184.374 963.555 181.902 954.649 186.168 951.433C192.679 946.427 208.482 959.776 231.628 956.703C238.013 955.902 242.258 954.029 250.649 950.295C269.506 942.148 275.661 934.003 290.67 924.328C306.673 914.11 314.923 909.221 325.548 907.971C345.62 905.62 354.529 915.896 374.036 910.851C383.602 908.394 390.638 903.49 393.636 901.438C405.689 893.056 405 887.361 413.556 882.015C423.629 875.724 430.255 879.919 452.061 877.183C459.722 876.222 482.655 873.093 503.548 859.747C511.908 854.425 522.484 847.653 528.442 835.678C532.71 827.184 530.697 823.834 537.217 797.714C540.335 785.175 541.607 782.586 544.271 779.906C549.825 774.182 555.642 774.039 572.586 766.383C578.201 763.835 584.192 761.157 591.007 757.118C602.207 750.434 613.129 743.869 617.08 732.901C619.192 727.107 616.847 726.982 618.543 716.8C619.259 712.521 621.262 699.954 627.712 691.772C635.507 681.829 647.303 681.354 669.564 674.54C691.172 667.974 684.232 667.086 720.247 653.267C754.678 640.066 772.336 633.41 790.808 635.448C797.714 636.173 803.907 637.826 816.579 638.163C832.612 638.664 842.887 636.705 849.699 636.017C868.742 634.047 874.454 640.619 924.459 655.54C965.967 667.925 976.717 667.749 981.734 677.257C985.884 685.03 982.659 694.651 976.191 713.81C972.454 724.835 968.647 731.68 966.184 745.896C964.394 756.593 965.122 761.026 966.515 764.789C966.986 766.07 971.542 777.228 984.84 783.434C996.92 789.123 1009.56 787.37 1020.15 785.957C1039.56 783.354 1043.98 777.018 1058.24 779.166C1064.07 780.027 1064.73 781.284 1074.58 783.064C1084.32 784.775 1091.44 786.059 1097.79 785.095C1115.39 782.468 1114.34 764.503 1131.04 760.983C1143.22 758.45 1156.47 765.416 1163.06 770.873C1165.98 773.271 1168.66 776.453 1177.71 800.87C1183.27 815.839 1182.88 816.391 1186.54 825.65C1192.79 841.538 1195.96 849.434 1202.99 858.438C1209.72 866.977 1217.82 877.27 1231.86 881.709C1245.12 885.825 1250.91 880.742 1278.93 877.813C1309.12 874.694 1324.71 873.074 1338.13 880.354C1354.73 889.33 1352.91 903.717 1371.65 908.988C1376.8 910.438 1382.39 910.658 1393.68 911.167C1404.47 911.656 1412.35 911.254 1421.12 910.741C1440.33 909.586 1449.9 909.056 1459.82 906.889C1472.26 904.156 1478.36 901.044 1483.2 903.955C1486.79 906.185 1488.45 911.173 1486.62 914.501L1486.44 914.607Z" fill="#47650C"/>
<path d="M1468.74 534.413C1468.88 533.983 1469.18 533.767 1469.83 533.873C1469.44 534.096 1469.08 534.273 1468.74 534.413C1468.24 535.974 1469.98 540.358 1466.06 542.455C1456.5 547.701 1463.57 553.147 1456.68 559.742C1444.71 571.091 1438.31 565.872 1425.3 576.24C1423.39 577.767 1409.66 588.941 1406.21 604.353C1405.03 609.67 1406.3 613.414 1408.27 620.76C1411.65 633.545 1415.86 640.141 1420.26 649.218C1428.46 666.287 1432.82 674.83 1431.81 683.73C1429.76 701.247 1406.99 688.364 1403.18 710.3C1401.2 721.742 1413.71 740.77 1410.34 756.055C1409.41 760.484 1407.37 769.253 1402.84 778.305C1393.83 796.344 1384.19 796.274 1370.05 814.286C1360.98 825.898 1356.2 837.122 1346.91 858.925L1346.73 859.343C1340.3 874.517 1328.23 874.753 1319.89 883.461C1311.75 891.849 1307.27 896.369 1296.62 905.198C1287.04 913.151 1292.35 923.879 1279.38 944.474C1268.03 962.447 1269.01 963.398 1264.24 967.641C1256.41 974.669 1246.23 977.287 1225.92 982.459C1213.89 985.533 1222.57 991.166 1212.94 991.19C1207.89 997.787 1209.81 1031.52 1195 1039.44C1173.79 1045.95 1168.35 1056.56 1161.26 1059.73C1154.27 1062.87 1140.95 1071.58 1138.98 1074.84C1131.75 1087.62 1144.25 1108.33 1128.67 1133.97C1124.43 1140.96 1143.09 1151.14 1138.94 1154.85C1121.82 1175.4 1131.8 1198.16 1113.79 1197.38C1114.52 1184.65 1109.45 1105.22 1108.62 1103.41C1107.8 1101.6 1105.02 1083.65 1114.18 1076C1117.19 1069.13 1131.33 1063.04 1139.1 1054.88C1145.68 1047.95 1150.74 1038.76 1155.29 1033.98C1162.3 1026.62 1171.92 1027.26 1180.87 1024.58C1221.55 1012.22 1165.57 972.99 1204.02 962.323C1208.71 961.009 1221.92 953.077 1244.68 949.637C1252.91 948.358 1261.06 922.658 1265.17 918.652C1271.77 912.16 1269.47 904.634 1276.81 892.584C1279.8 887.725 1282.76 884.723 1288.86 878.81C1302.41 865.501 1306.47 866.657 1317.91 856.045C1330.71 844.203 1339.02 830.461 1341.52 826.276C1348.19 815.061 1347.85 811.985 1353.67 806.52C1362.35 798.338 1367.57 800.881 1376.47 792.473C1383.31 785.943 1386.36 778.565 1389.09 771.95C1393.06 762.346 1396.53 753.919 1393.71 747.13C1390.52 739.469 1387.4 738.685 1377.95 730.302C1375.25 724.28 1375.09 717.72 1376.45 710.231C1379.83 701.586 1376.19 701.598 1391.13 688.097L1391.19 688.042C1395.31 684.293 1408.12 672.646 1409.81 657.728C1410.55 651.138 1408.85 646.49 1406.9 641.166L1406.84 640.999C1400.32 623.384 1390.34 623.731 1388.65 613.044C1386.43 599.129 1400.83 582.939 1409.56 573.123L1409.79 572.857C1418.55 563.1 1423.27 561.123 1442.82 545.082C1463.77 527.86 1462.87 536.833 1468.74 534.413Z" fill="#47650C"/>
</g>
<defs>
<clipPath id="clip0_911_426">
<rect width="1440" height="833" fill="white"/>
</clipPath>
</defs>
</svg>
