<svg width="2487" height="6808" viewBox="0 0 2487 6808" fill="none" xmlns="http://www.w3.org/2000/svg">
<g clip-path="url(#clip0_680_322)">
<rect width="2487" height="6808" fill="#FDFCFC"/>
<path d="M-38.8768 5291.14C-24.8178 5267.57 30.0524 5296.27 86.6881 5262.65C120.901 5242.37 153.677 5200.17 149.815 5164.4C145.832 5128.45 107.775 5128.1 49.4975 5068.92C13.7511 5032.75 -19.2342 4999.03 -8.59913 4967.87C2.94123 4933.99 61.1497 4916.09 124.446 4896.45C178.398 4879.75 184.469 4886.41 212.777 4870.27C223.858 4864.08 287.471 4826.15 296.448 4771.34C299.849 4750.5 293.094 4740.03 301.189 4708.13C309.613 4676.29 321.236 4666.82 325.6 4663.96C337.204 4655.83 349.463 4656.05 366.166 4656.29C455.076 4657.11 446.886 4654.5 479.507 4657.87C533.617 4663.4 542.457 4669.32 547.697 4676.52C557.575 4690 550.803 4702.41 553.367 4723.34C557.036 4752.85 573.886 4756.98 619.59 4809.5C664.483 4861.22 686.886 4887.24 691.883 4910.56C693.148 4916.65 695.727 4931.18 707.964 4940.99C715.973 4947.45 727.481 4951.08 746 4950.92C781.605 4950.22 798.377 4934.98 828.105 4925.62C879.617 4909.72 890.813 4936.69 943.94 4925.58C951.742 4923.93 1008.14 4911.47 1040.55 4868.71C1051.72 4853.95 1053.41 4840.07 1058.3 4813.74C1066.89 4767.96 1064.1 4740.26 1064.35 4704.46C1065.04 4637.26 1064.65 4603.21 1080.48 4576.89C1111.87 4525.22 1154.52 4537.72 1197.44 4475.05C1219.79 4442.33 1216.1 4427.46 1248.1 4384.97C1257.26 4372.59 1275.94 4348.39 1302.3 4327.41C1354.82 4285.58 1382.97 4301.72 1450.46 4268.43C1494.12 4246.76 1524.5 4219.17 1584.03 4165.29C1624.83 4128.21 1641.36 4107.55 1678.39 4093.94C1714.39 4081.01 1718.65 4093.11 1762.63 4082.94C1802.23 4073.76 1836.79 4052.2 1904.6 4008.87C1963.89 3971.11 1962.4 3966.5 1982.52 3961.04C2015.62 3951.87 2049.23 3960.45 2116.25 3977.74C2155.93 3987.93 2179.08 3994.04 2207.32 4009.86C2239.27 4027.77 2235.14 4034.2 2265.38 4050.84C2308.55 4074.69 2318.7 4062.47 2369.39 4086.99C2409.79 4106.54 2410.41 4117.58 2435.77 4119.32C2460.8 4121.01 2482.3 4111.73 2495.27 4124.51C2503.5 4132.68 2500.53 4141.81 2509.63 4146.76C2521.87 4153.37 2540.53 4143.81 2550.19 4139.08C2581.4 4124.23 2616.01 4121.52 2648.9 4112.49C2694.14 4100.15 2733.52 4089.26 2777.76 4094.6C2821.88 4099.76 2821.03 4114.94 2885.31 4125.25C2943.69 4134.63 2962.55 4124.94 2969.95 4120.36C2996.7 4103.64 3000.47 4075.12 3014.78 4075.32C3027.37 4075.59 3037.64 4098.38 3035.61 4118.6C3032.86 4147.79 3004.4 4171.47 2981.81 4182.27C2951.88 4196.82 2924.17 4192.35 2869.92 4182.93C2823.66 4174.92 2813.08 4167.22 2766.58 4158.83C2713.19 4149.38 2700.94 4145.96 2683.64 4149.84C2656.43 4156.22 2650.73 4168.47 2616.13 4181.28C2586.83 4192.21 2563.44 4193.97 2541.11 4195.56C2474.34 4200.18 2420.88 4186.51 2390.78 4180.16C2253.69 4151.84 2216.92 4199.31 2088.83 4169.35C2073.2 4165.75 2038.97 4149.34 1967.32 4122.58C1941.34 4113 1926.68 4107.7 1908.86 4113.52C1880.12 4123.03 1875.96 4150.48 1837.01 4176.25C1821.22 4186.59 1808.19 4191.13 1781.77 4199.65C1722.79 4219.12 1712.58 4208.78 1663.68 4223.25C1609.04 4239.34 1564.81 4268.83 1551.42 4277.86C1515.63 4302.09 1512.18 4312.33 1487.21 4319.9C1449.92 4331.28 1438.32 4314.68 1400.08 4326.42C1370.56 4335.64 1350.95 4353.8 1333.38 4370.09C1307.84 4393.73 1285.47 4414.49 1283.92 4440.5C1282.16 4469.84 1309.24 4472.86 1324.77 4514.81C1334.14 4540.33 1342.93 4590.15 1318.26 4613.75C1295.83 4635.35 1269.31 4612.56 1206 4630.34C1188.76 4635.24 1133.97 4650.64 1107.29 4694.97C1095.47 4714.67 1093.81 4732.25 1091.77 4752.46C1085.38 4818.61 1115.11 4833.99 1104.6 4870.39C1090.83 4918.23 1024.13 4945.41 984.459 4961.81C944.669 4978.02 927.987 4976.45 847.472 4994.59C756.179 5015.27 762.82 5022.35 736.016 5023.41C668.989 5025.81 588.589 4992.82 565.38 4933.02C551.799 4897.76 570.173 4885.46 551.145 4834.89C537.464 4798.11 516.059 4774.09 500.968 4757.11C477.459 4730.75 465.644 4717.48 443.955 4712.26C418.412 4706.12 384.094 4711.57 361.449 4731.44C347.814 4743.3 350.012 4750.37 324.742 4799.62C310.622 4827.22 303.622 4841.11 293.58 4854.86C281.264 4871.97 257.727 4904.67 218.192 4923.1C179.608 4941.19 162.311 4928.58 140.028 4949.01C115.996 4970.87 115.488 5004.44 115.581 5009.17C115.871 5041.69 136.427 5051.1 162.219 5092.46C184.151 5127.83 208.134 5166.38 198.081 5208.07C190.576 5239.04 167.449 5258.17 121.61 5296.16C71.4417 5337.52 36.8115 5366.31 3.31963 5357.92C-28.7379 5349.92 -50.8506 5310.14 -39.6208 5291.36L-38.8768 5291.14Z" fill="#A40616"/>
<path d="M-87.2825 2804.84C-72.9111 2784.97 -27.7197 2801.53 24.6375 2769.32C56.2627 2749.88 88.6163 2713.51 88.4832 2686.03C88.2619 2658.42 55.1512 2662.18 9.74543 2622.22C-18.1178 2597.81 -43.7976 2575.02 -31.7217 2549.59C-18.6119 2521.95 33.6949 2501.83 90.5888 2479.81C139.081 2461.06 143.767 2465.62 169.876 2450.03C180.085 2444.03 238.907 2407.72 251.674 2364.03C256.518 2347.42 251.582 2339.97 261.512 2314.25C271.723 2288.53 282.7 2279.91 286.759 2277.22C297.598 2269.65 308.254 2268.52 322.778 2266.94C400.13 2258.16 393.234 2256.99 421.337 2256.16C467.959 2254.73 475.123 2258.41 479.036 2263.47C486.42 2272.93 479.403 2283.33 479.746 2299.37C480.275 2321.99 494.576 2323.42 529.634 2359.52C564.058 2395.09 581.218 2413 583.463 2430.66C584.015 2435.27 584.948 2446.33 594.72 2452.67C601.111 2456.86 610.804 2458.47 626.946 2456.39C658.015 2452.06 673.997 2438.41 700.73 2427.96C747.026 2410.1 754.34 2429.94 801.608 2415.64C808.552 2413.53 858.791 2397.84 890.88 2361.06C901.939 2348.37 904.665 2337.38 911.296 2316.33C922.913 2279.72 922.984 2258.43 926.438 2230.49C933.105 2178.02 935.84 2151.51 952.002 2129.31C984.009 2085.7 1020.02 2090.92 1063.06 2037.51C1085.47 2009.64 1083.6 1998.43 1115.31 1961.91C1124.4 1951.29 1142.85 1930.44 1167.7 1911.29C1217.22 1873.11 1240.27 1882.71 1302.06 1849.6C1342.03 1828.08 1370.98 1803.34 1427.69 1755.03C1466.57 1721.79 1482.83 1703.93 1516.31 1689.39C1548.82 1675.5 1551.44 1684.48 1590.65 1671.89C1625.97 1660.54 1658.01 1640.06 1720.98 1599.09C1776.02 1563.37 1775.14 1559.93 1793.15 1553.54C1822.81 1542.88 1851.3 1546.01 1908.1 1552.38C1941.73 1556.12 1961.35 1558.43 1984.51 1567.77C2010.71 1578.35 2006.54 1583.8 2031.37 1593.56C2066.81 1607.59 2076.75 1596.98 2118.68 1610.72C2152.1 1621.69 2151.64 1630.23 2173.57 1628.9C2195.21 1627.56 2214.77 1618.04 2224.92 1626.63C2231.35 1632.14 2227.93 1639.57 2235.41 1642.46C2245.48 1646.31 2262.59 1636.88 2271.43 1632.17C2299.95 1617.29 2330.33 1611.51 2359.79 1600.97C2400.3 1586.56 2435.58 1573.9 2473.62 1573.37C2511.57 1572.72 2509.46 1584.64 2564.52 1585.86C2614.5 1586.99 2631.81 1577.43 2638.66 1573.08C2663.47 1557.21 2669.32 1534.57 2681.77 1533.21C2692.71 1532.09 2699.6 1548.77 2696 1564.74C2690.97 1587.79 2664.04 1609.28 2643.4 1620.1C2616.02 1634.61 2592.29 1634.06 2545.9 1632.47C2506.34 1631.12 2497.82 1626.24 2458.09 1624.63C2412.45 1622.92 2402.08 1621.56 2386.67 1626.42C2362.39 1634.28 2356.32 1644.43 2325.04 1658.08C2298.54 1669.71 2278 1673.57 2258.42 1677.17C2199.85 1687.85 2154.54 1682.86 2128.89 1681.1C2012.07 1673.55 1975.76 1714.46 1866.92 1704.68C1853.64 1703.53 1825.31 1694.36 1765.33 1681.1C1743.57 1676.38 1731.28 1673.8 1715.24 1680.23C1689.35 1690.69 1683.25 1712.54 1647 1736.75C1632.32 1746.49 1620.56 1751.41 1596.78 1760.86C1543.67 1782.28 1535.71 1775.31 1491.82 1791.77C1442.78 1810.11 1401.6 1837.79 1389.13 1846.25C1355.77 1868.94 1351.84 1877.28 1329.41 1885.83C1295.91 1898.66 1287.31 1886.94 1252.95 1900.15C1226.41 1910.47 1207.69 1926.71 1190.91 1941.27C1166.54 1962.41 1145.18 1980.96 1141.49 2001.41C1137.31 2024.47 1160.61 2023.96 1170.35 2055.02C1176.2 2073.92 1179.36 2111.83 1155.74 2132.85C1134.26 2152.06 1113.22 2137.11 1056.48 2157.68C1041.03 2163.33 991.922 2181.14 964.688 2218.53C952.615 2235.15 949.578 2249.03 945.981 2265C934.442 2317.25 958.938 2326.09 946.499 2355.59C930.189 2394.35 869.648 2422.61 833.622 2439.6C797.508 2456.46 783.122 2457 711.368 2479.67C629.999 2505.47 635.142 2510.3 611.704 2513.96C553.118 2522.94 486.082 2505.74 471.271 2461.57C462.628 2435.53 479.739 2423.99 467.736 2386.58C459.144 2359.35 442.673 2342.9 431.063 2331.26C412.972 2313.2 403.882 2304.1 385.465 2302.33C363.776 2300.25 333.398 2308.14 311.883 2326.03C298.939 2336.72 300.214 2342 273.76 2383.08C258.972 2406.09 251.622 2417.67 241.634 2429.45C229.364 2444.1 205.914 2472.08 169.82 2490.65C134.587 2508.84 120.662 2500.84 99.4119 2519.14C76.5103 2538.72 73.0359 2564.95 72.6902 2568.63C70.0058 2593.95 87.0565 2599.11 105.783 2628.62C121.688 2653.87 139.092 2681.39 126.572 2714.95C117.239 2739.9 95.3715 2757.27 52.0227 2791.74C4.5987 2829.31 -28.1587 2855.42 -56.5671 2852.43C-83.7618 2849.59 -99.4264 2820.93 -87.9504 2805.09L-87.2825 2804.84Z" fill="#3A4E82"/>
<path d="M2802.36 4030.08C2791.58 4039.82 2771.76 4029.51 2744.76 4024.89C2700.08 4017.11 2691.4 4034.21 2651.39 4032.61C2606.06 4030.67 2555.57 4005.57 2527.03 3969.95C2497.16 3932.7 2512.97 3911.44 2478.59 3874.49C2455.47 3849.66 2428.8 3838.45 2406.49 3828.9C2343.18 3802.2 2322.3 3819.4 2283.69 3800.8C2227.71 3773.78 2198.16 3701.95 2192.77 3650.76C2184.28 3569.33 2235.31 3522.16 2201.3 3475.96C2198.14 3471.69 2186.92 3456.91 2167.43 3449.78C2130.61 3436.47 2112.04 3468.42 2063.57 3468.2C2023.99 3468.03 1973.07 3446.38 1952 3410.92C1940.66 3391.89 1942.11 3375.79 1926.68 3368.26C1909.13 3359.58 1895.86 3374.98 1873.04 3371.75C1845.2 3367.82 1826.94 3339.66 1809.24 3312.3C1785.92 3276.32 1758.68 3233.89 1768.84 3189.59C1776.23 3157.3 1795.02 3160.72 1828.73 3095.16C1847.39 3059.02 1848.22 3044.99 1846.26 3033.22C1843.96 3019.59 1832.72 3003.7 1810.65 2972.22C1795.55 2950.78 1787.8 2939.91 1774.78 2927.16C1773 2925.42 1755.03 2907.98 1731.11 2893.4C1674.01 2858.8 1637.75 2874.26 1564.92 2844.71C1512.3 2823.35 1517.29 2809.61 1471 2796.8C1414.92 2781.3 1366.29 2790.37 1357.78 2791.98C1307.38 2801.76 1301.6 2820.87 1242.18 2828.81C1226.79 2830.83 1215.97 2831.02 1201.51 2837.93C1175.49 2850.18 1164.86 2871.29 1152.1 2892.57C1138.29 2915.61 1112.33 2959.19 1077.28 2991.57C1057.57 3009.94 1019.04 3045.75 982.509 3035.83C957.12 3028.91 954.924 3006.21 932.962 3003.4C924.491 3002.35 905.325 3003.29 853.435 3069.58C805.262 3131.16 803.785 3153.47 774.43 3162.3C763.223 3165.73 739.751 3161.02 693.032 3151.66C643.62 3141.69 618.986 3136.94 589.577 3125.32C541.617 3106.58 539.845 3095.07 517.229 3095.67C480.039 3096.48 477.293 3127.83 434.487 3134.68C408.808 3139.02 387.072 3131.38 345.989 3117.1C298.335 3100.42 294.461 3088.87 263.09 3085.02C241.802 3082.37 224.165 3086.33 188.85 3094.46C157.72 3101.54 126.508 3109.06 95.5564 3131.06C77.3651 3143.99 80.0585 3147.05 69.3613 3151.49C27.1033 3168.91 -49.1622 3135.24 -60.3916 3087.6C-64.4065 3070.69 -61.2546 3046.99 -48.9449 3042.7C-30.0619 3035.92 -8.5855 3081.47 44.48 3093.17C59.073 3096.51 70.0553 3095.47 91.7942 3093.34C140.416 3089.15 161.526 3074.44 203.272 3063.34C247.691 3051.75 270.227 3046.69 294.433 3052.45C340.151 3063.36 349.631 3095.72 396.698 3099.61C419.762 3101.56 439.686 3095.46 448.137 3092.95C482.249 3082.55 486.193 3068.14 509.832 3062.22C537.655 3055.27 547.998 3070.96 597.839 3082.36C615.35 3086.37 668.008 3097.75 726.002 3082.6C749.192 3076.59 778.567 3068.88 802.906 3044.69C820.262 3027.57 819.101 3017.76 858.17 2959.64C876.897 2931.73 882.125 2926.49 890.454 2922.17C907.95 2912.86 920.685 2917.32 964.694 2912.74C979.288 2911.2 994.822 2909.64 1013.44 2905.47C1044.08 2898.49 1074 2891.57 1093.04 2868.17C1103.14 2855.83 1098.19 2853.59 1111.58 2830.23C1117.22 2820.42 1133.56 2791.51 1155.35 2776.96C1181.72 2759.24 1207.72 2767.85 1262.45 2769.72C1315.52 2771.65 1301.33 2763.74 1392.53 2759.96C1479.71 2756.38 1524.31 2754.82 1562.37 2775.07C1576.64 2782.56 1588.47 2791.7 1615.59 2803.02C1649.84 2817.52 1673.96 2821.26 1689.37 2825.23C1732.5 2836.21 1738.59 2856.93 1832.64 2934.63C1910.71 2999.12 1934.16 3007.6 1935.95 3034.87C1937.51 3057.21 1921.34 3077.94 1889.03 3119.17C1870.41 3142.89 1855.63 3156.38 1836.71 3188.91C1822.62 3213.44 1819.96 3224.82 1819.39 3235.13C1819.18 3238.63 1818.4 3269.54 1841.27 3295.65C1862 3319.49 1891.04 3325.69 1915.33 3331.03C1959.86 3340.77 1975.48 3329.03 2004.32 3346.06C2016.11 3352.98 2016.35 3356.59 2035.99 3369.08C2055.43 3381.3 2069.64 3390.32 2084.31 3393.24C2124.93 3401.42 2139.82 3356.87 2179.36 3362.14C2208.14 3366.06 2230.19 3393.98 2239.25 3412.71C2243.29 3420.96 2246.06 3430.92 2242.34 3497.79C2240.08 3538.8 2238.71 3539.82 2237.78 3565.36C2236.16 3609.17 2235.47 3631 2242.1 3658.72C2248.52 3685.06 2256.24 3716.8 2282.4 3739.22C2307.19 3760.21 2324.59 3752.65 2388.06 3768.73C2456.43 3786.15 2491.74 3795.12 2513.86 3823.94C2541.24 3859.52 2523.55 3892.99 2559.11 3921.34C2568.87 3929.12 2580.77 3934.29 2604.75 3944.88C2627.64 3955.01 2645.09 3960.56 2664.56 3966.57C2707.28 3979.67 2728.51 3986.31 2752.08 3989.26C2781.61 3992.91 2797.8 3990.4 2805.51 4001.49C2811.16 4009.89 2809.97 4023.38 2802.85 4029.97L2802.36 4030.08Z" fill="#47650C"/>
<path d="M3028.93 1259.91C3001.14 1267.06 2978.05 1210.16 2909.47 1195.87C2868.08 1187.22 2812.3 1194.93 2790.05 1222.65C2767.76 1250.58 2797.62 1276.3 2801.84 1356.89C2804.52 1406.24 2806.75 1452.01 2776.29 1466.79C2743.19 1482.88 2684.5 1456.49 2620.55 1427.91C2566.07 1403.54 2565.98 1394.79 2532.17 1387.18C2519.03 1384.12 2441.89 1368.18 2396.02 1400.69C2378.58 1413.06 2376.52 1424.94 2347.55 1441.93C2318.37 1458.67 2302.47 1457.54 2297 1456.63C2282.07 1454.57 2272.53 1446.21 2259.49 1434.87C2189.76 1374.77 2194.39 1382.09 2170.98 1357.88C2132.1 1317.78 2129.29 1307.7 2130.25 1299.13C2131.97 1283.05 2146.11 1278.86 2158.88 1262.44C2176.86 1239.25 2166.45 1225.07 2167.47 1157.57C2168.55 1091.17 2169.24 1057.89 2181.79 1038.16C2185.1 1033.03 2193.34 1021.1 2190.6 1006.01C2188.84 996.114 2182.31 985.856 2167.55 973.57C2138.89 950.232 2114.85 949.711 2084.72 936.386C2032.73 913.082 2042.96 886.632 1993.09 858.878C1985.75 854.815 1932.33 825.817 1876.45 834.168C1857.17 837.062 1846.02 845.678 1823.53 860.913C1784.35 887.332 1766.96 908.66 1741.43 933.648C1693.35 980.409 1669.57 1004.6 1638.43 1012.5C1577.05 1027.79 1552.16 990.455 1473.88 1005.76C1433.07 1013.79 1425.46 1026.71 1370.1 1035.15C1354.1 1037.72 1322.21 1042.22 1286.51 1039.31C1215.38 1033.55 1204.54 1003.36 1127.62 981.573C1077.77 967.575 1034.22 966.636 949.029 964.637C890.522 963.383 862.838 966.838 823.923 951.61C786.311 936.6 791.504 925.243 749.526 902.955C711.72 882.892 669.131 874.909 584.85 859.966C511.252 846.806 509.175 851.044 489.398 841.412C456.734 825.7 436.221 797.173 395.454 740.162C371.285 706.441 357.298 686.643 346.16 656.626C333.565 622.654 341.378 620.902 329.232 588.97C311.967 543.304 295.296 545.105 272.552 493.941C254.438 453.154 261.757 444.99 242.934 426.786C224.335 408.838 200.765 400.974 199.546 383.308C198.821 372.055 207.635 367.633 203.935 358.066C198.928 345.224 177.408 339.449 166.424 336.305C131.238 325.848 101.953 304.587 69.5498 288.919C25.0422 267.3 -13.8036 248.592 -45.006 215.224C-76.2453 182.069 -64.8354 171.968 -108.383 121.697C-147.904 76.0266 -169.685 70.2077 -178.768 68.473C-211.752 62.3118 -234.911 79.8373 -246.091 70.1127C-255.855 61.4976 -247.852 38.6044 -231.943 25.7622C-209.121 7.08909 -169.854 9.49713 -144.349 17.0292C-110.392 26.8454 -91.6386 48.53 -55.397 91.4699C-24.4872 128.063 -21.5645 140.556 9.27142 177.573C44.8051 219.958 52.0788 230.558 68.5051 239.413C94.5409 253.145 107.708 248.358 144.128 262.515C175.036 274.441 194.784 288.87 213.562 302.701C269.638 344.15 302.237 389.538 321.553 414.154C409.931 525.825 472.59 517.077 552.698 623.875C562.506 636.863 577.968 671.313 615.698 738.076C629.469 762.203 637.305 775.735 655.517 783.577C684.974 796.135 707.688 779.627 756.714 787.593C776.519 790.899 790.037 796.43 816.963 808.128C877.369 833.929 878.135 848.027 927.035 870.597C981.634 895.865 1037.47 904.75 1054.45 907.366C1099.9 914.299 1109.87 909.414 1134.97 920.808C1172.51 937.771 1169.93 957.204 1208.48 974.554C1238.35 987.835 1266.71 988.203 1292.13 988.518C1329.05 989.006 1361.43 989.391 1381.05 972.148C1403.2 952.708 1383.93 932.465 1401.32 892.585C1411.96 868.386 1440.26 827.489 1476.47 827.422C1509.48 827.258 1514.33 861.029 1576.98 890.914C1594.07 899.007 1648.3 924.867 1700.76 911.577C1724.05 905.643 1737.8 894.405 1753.71 881.563C1805.56 839.359 1792.93 808.656 1826.99 790.113C1871.73 765.712 1943.7 791.262 1986.68 806.294C2029.61 821.538 2041.69 833.813 2118.2 874.962C2205.02 921.544 2204.78 912.118 2226.73 929.316C2281.43 972.499 2321.67 1049.5 2297.72 1107.06C2283.52 1140.92 2260.29 1137.27 2239.56 1185.54C2224.36 1220.54 2224.29 1251.75 2224.22 1273.78C2224.16 1308.04 2224.11 1325.28 2237.57 1343.46C2253.42 1364.88 2284.42 1384.02 2316.39 1385.21C2335.56 1386.01 2338.82 1379.57 2393.65 1361.88C2424.34 1351.94 2439.7 1346.86 2457.38 1343.92C2479.22 1340.14 2520.96 1332.92 2565.27 1346.43C2608.57 1359.56 2613.33 1380 2645.41 1380.55C2679.88 1381.28 2704.03 1358.03 2707.3 1354.65C2730.08 1331.6 2720.48 1311.23 2729.34 1264.9C2737.02 1225.36 2745.33 1182.22 2782.77 1159.66C2810.62 1142.92 2842.44 1144.96 2905.57 1148.95C2974.5 1153.47 3022.25 1156.42 3042.8 1184.73C3062.5 1211.81 3051.85 1254.57 3029.67 1260.25L3028.93 1259.91Z" fill="#D49634"/>
<path d="M3203.93 6684.91C3176.14 6692.06 3153.05 6635.16 3084.47 6620.87C3043.08 6612.22 2987.3 6619.93 2965.05 6647.65C2942.76 6675.58 2972.62 6701.3 2976.84 6781.89C2979.52 6831.24 2981.75 6877.01 2951.29 6891.79C2918.19 6907.88 2859.5 6881.49 2795.55 6852.91C2741.07 6828.54 2740.98 6819.79 2707.17 6812.18C2694.03 6809.12 2616.89 6793.18 2571.02 6825.69C2553.58 6838.06 2551.52 6849.94 2522.55 6866.93C2493.37 6883.67 2477.47 6882.54 2472 6881.63C2457.07 6879.57 2447.53 6871.21 2434.49 6859.87C2364.76 6799.77 2369.39 6807.09 2345.98 6782.88C2307.1 6742.78 2304.29 6732.7 2305.25 6724.13C2306.97 6708.05 2321.11 6703.86 2333.88 6687.44C2351.86 6664.25 2341.45 6650.07 2342.47 6582.57C2343.55 6516.17 2344.24 6482.89 2356.79 6463.16C2360.1 6458.03 2368.34 6446.1 2365.6 6431.01C2363.84 6421.11 2357.31 6410.86 2342.55 6398.57C2313.89 6375.23 2289.85 6374.71 2259.72 6361.39C2207.73 6338.08 2217.96 6311.63 2168.09 6283.88C2160.75 6279.82 2107.33 6250.82 2051.45 6259.17C2032.17 6262.06 2021.02 6270.68 1998.53 6285.91C1959.35 6312.33 1941.96 6333.66 1916.43 6358.65C1868.35 6405.41 1844.57 6429.6 1813.43 6437.5C1752.05 6452.79 1727.16 6415.45 1648.88 6430.76C1608.07 6438.79 1600.46 6451.71 1545.1 6460.15C1529.1 6462.72 1497.21 6467.22 1461.51 6464.31C1390.38 6458.55 1379.54 6428.36 1302.62 6406.57C1252.77 6392.57 1209.22 6391.64 1124.03 6389.64C1065.52 6388.38 1037.84 6391.84 998.923 6376.61C961.311 6361.6 966.504 6350.24 924.526 6327.96C886.72 6307.89 844.131 6299.91 759.85 6284.97C686.252 6271.81 684.175 6276.04 664.398 6266.41C631.734 6250.7 611.221 6222.17 570.454 6165.16C546.285 6131.44 532.298 6111.64 521.16 6081.63C508.565 6047.65 516.378 6045.9 504.232 6013.97C486.967 5968.3 470.296 5970.11 447.552 5918.94C429.438 5878.15 436.757 5869.99 417.934 5851.79C399.335 5833.84 375.765 5825.97 374.546 5808.31C373.821 5797.05 382.635 5792.63 378.935 5783.07C373.928 5770.22 352.408 5764.45 341.424 5761.31C306.238 5750.85 276.953 5729.59 244.55 5713.92C200.042 5692.3 161.196 5673.59 129.994 5640.22C98.7547 5607.07 110.165 5596.97 66.6171 5546.7C27.0962 5501.03 5.3151 5495.21 -3.76845 5493.47C-36.7519 5487.31 -59.9106 5504.84 -71.0908 5495.11C-80.855 5486.5 -72.8517 5463.6 -56.9431 5450.76C-34.1213 5432.09 5.14599 5434.5 30.6511 5442.03C64.6079 5451.85 83.3614 5473.53 119.603 5516.47C150.513 5553.06 153.435 5565.56 184.271 5602.57C219.805 5644.96 227.079 5655.56 243.505 5664.41C269.541 5678.15 282.708 5673.36 319.128 5687.51C350.036 5699.44 369.784 5713.87 388.562 5727.7C444.638 5769.15 477.237 5814.54 496.553 5839.15C584.931 5950.83 647.59 5942.08 727.698 6048.87C737.506 6061.86 752.968 6096.31 790.698 6163.08C804.469 6187.2 812.305 6200.73 830.517 6208.58C859.974 6221.14 882.688 6204.63 931.714 6212.59C951.519 6215.9 965.037 6221.43 991.963 6233.13C1052.37 6258.93 1053.13 6273.03 1102.04 6295.6C1156.63 6320.86 1212.47 6329.75 1229.45 6332.37C1274.9 6339.3 1284.87 6334.41 1309.97 6345.81C1347.51 6362.77 1344.93 6382.2 1383.48 6399.55C1413.35 6412.83 1441.71 6413.2 1467.13 6413.52C1504.05 6414.01 1536.43 6414.39 1556.05 6397.15C1578.2 6377.71 1558.93 6357.46 1576.32 6317.59C1586.96 6293.39 1615.26 6252.49 1651.47 6252.42C1684.48 6252.26 1689.33 6286.03 1751.98 6315.91C1769.07 6324.01 1823.3 6349.87 1875.76 6336.58C1899.05 6330.64 1912.8 6319.4 1928.71 6306.56C1980.56 6264.36 1967.93 6233.66 2001.99 6215.11C2046.73 6190.71 2118.7 6216.26 2161.68 6231.29C2204.61 6246.54 2216.69 6258.81 2293.2 6299.96C2380.02 6346.54 2379.78 6337.12 2401.73 6354.32C2456.43 6397.5 2496.67 6474.5 2472.72 6532.06C2458.52 6565.92 2435.29 6562.27 2414.56 6610.54C2399.36 6645.54 2399.29 6676.75 2399.22 6698.78C2399.16 6733.04 2399.11 6750.28 2412.57 6768.46C2428.42 6789.88 2459.42 6809.02 2491.39 6810.21C2510.56 6811.01 2513.82 6804.57 2568.65 6786.88C2599.34 6776.94 2614.7 6771.86 2632.38 6768.92C2654.22 6765.14 2695.96 6757.92 2740.27 6771.43C2783.57 6784.56 2788.33 6805 2820.41 6805.55C2854.88 6806.28 2879.03 6783.03 2882.3 6779.65C2905.08 6756.6 2895.48 6736.23 2904.34 6689.9C2912.02 6650.36 2920.33 6607.22 2957.77 6584.66C2985.62 6567.92 3017.44 6569.96 3080.57 6573.95C3149.5 6578.47 3197.25 6581.42 3217.8 6609.73C3237.5 6636.81 3226.85 6679.57 3204.67 6685.25L3203.93 6684.91Z" fill="#D49634"/>
</g>
<defs>
<clipPath id="clip0_680_322">
<rect width="2487" height="6808" fill="white"/>
</clipPath>
</defs>
</svg>
