<svg width="2487" height="20985" viewBox="0 0 2487 20985" fill="none" xmlns="http://www.w3.org/2000/svg">
<g clip-path="url(#clip0_680_322)">
<rect width="2487" height="20985" fill="#FDFCFC"/>
<path d="M-38.8768 5291.14C-24.8178 5267.57 30.0524 5296.27 86.6881 5262.65C120.901 5242.37 153.677 5200.17 149.815 5164.4C145.832 5128.45 107.775 5128.1 49.4975 5068.92C13.7511 5032.75 -19.2342 4999.03 -8.59913 4967.87C2.94123 4933.99 61.1497 4916.09 124.446 4896.45C178.398 4879.75 184.469 4886.41 212.777 4870.27C223.858 4864.08 287.471 4826.15 296.448 4771.34C299.849 4750.5 293.094 4740.03 301.189 4708.13C309.613 4676.29 321.236 4666.82 325.6 4663.96C337.204 4655.83 349.463 4656.05 366.166 4656.29C455.076 4657.11 446.886 4654.5 479.507 4657.87C533.617 4663.4 542.457 4669.32 547.697 4676.52C557.575 4690 550.803 4702.41 553.367 4723.34C557.036 4752.85 573.886 4756.98 619.59 4809.5C664.483 4861.22 686.886 4887.24 691.883 4910.56C693.148 4916.65 695.727 4931.18 707.964 4940.99C715.973 4947.45 727.481 4951.08 746 4950.92C781.605 4950.22 798.377 4934.98 828.105 4925.62C879.617 4909.72 890.813 4936.69 943.94 4925.58C951.742 4923.93 1008.14 4911.47 1040.55 4868.71C1051.72 4853.95 1053.41 4840.07 1058.3 4813.74C1066.89 4767.96 1064.1 4740.26 1064.35 4704.46C1065.04 4637.26 1064.65 4603.21 1080.48 4576.89C1111.87 4525.22 1154.52 4537.72 1197.44 4475.05C1219.79 4442.33 1216.1 4427.46 1248.1 4384.97C1257.26 4372.59 1275.94 4348.39 1302.3 4327.41C1354.82 4285.58 1382.97 4301.72 1450.46 4268.43C1494.12 4246.76 1524.5 4219.17 1584.03 4165.29C1624.83 4128.21 1641.36 4107.55 1678.39 4093.94C1714.39 4081.01 1718.65 4093.11 1762.63 4082.94C1802.23 4073.76 1836.79 4052.2 1904.6 4008.87C1963.89 3971.11 1962.4 3966.5 1982.52 3961.04C2015.62 3951.87 2049.23 3960.45 2116.25 3977.74C2155.93 3987.93 2179.08 3994.04 2207.32 4009.86C2239.27 4027.77 2235.14 4034.2 2265.38 4050.84C2308.55 4074.69 2318.7 4062.47 2369.39 4086.99C2409.79 4106.54 2410.41 4117.58 2435.77 4119.32C2460.8 4121.01 2482.3 4111.73 2495.27 4124.51C2503.5 4132.68 2500.53 4141.81 2509.63 4146.76C2521.87 4153.37 2540.53 4143.81 2550.19 4139.08C2581.4 4124.23 2616.01 4121.52 2648.9 4112.49C2694.14 4100.15 2733.52 4089.26 2777.76 4094.6C2821.88 4099.76 2821.03 4114.94 2885.31 4125.25C2943.69 4134.63 2962.55 4124.94 2969.95 4120.36C2996.7 4103.64 3000.47 4075.12 3014.78 4075.32C3027.37 4075.59 3037.64 4098.38 3035.61 4118.6C3032.86 4147.79 3004.4 4171.47 2981.81 4182.27C2951.88 4196.82 2924.17 4192.35 2869.92 4182.93C2823.66 4174.92 2813.08 4167.22 2766.58 4158.83C2713.19 4149.38 2700.94 4145.96 2683.64 4149.84C2656.43 4156.22 2650.73 4168.47 2616.13 4181.28C2586.83 4192.21 2563.44 4193.97 2541.11 4195.56C2474.34 4200.18 2420.88 4186.51 2390.78 4180.16C2253.69 4151.84 2216.92 4199.31 2088.83 4169.35C2073.2 4165.75 2038.97 4149.34 1967.32 4122.58C1941.34 4113 1926.68 4107.7 1908.86 4113.52C1880.12 4123.03 1875.96 4150.48 1837.01 4176.25C1821.22 4186.59 1808.19 4191.13 1781.77 4199.65C1722.79 4219.12 1712.58 4208.78 1663.68 4223.25C1609.04 4239.34 1564.81 4268.83 1551.42 4277.86C1515.63 4302.09 1512.18 4312.33 1487.21 4319.9C1449.92 4331.28 1438.32 4314.68 1400.08 4326.42C1370.56 4335.64 1350.95 4353.8 1333.38 4370.09C1307.84 4393.73 1285.47 4414.49 1283.92 4440.5C1282.16 4469.84 1309.24 4472.86 1324.77 4514.81C1334.14 4540.33 1342.93 4590.15 1318.26 4613.75C1295.83 4635.35 1269.31 4612.56 1206 4630.34C1188.76 4635.24 1133.97 4650.64 1107.29 4694.97C1095.47 4714.67 1093.81 4732.25 1091.77 4752.46C1085.38 4818.61 1115.11 4833.99 1104.6 4870.39C1090.83 4918.23 1024.13 4945.41 984.459 4961.81C944.669 4978.02 927.987 4976.45 847.472 4994.59C756.179 5015.27 762.82 5022.35 736.016 5023.41C668.989 5025.81 588.589 4992.82 565.38 4933.02C551.799 4897.76 570.173 4885.46 551.145 4834.89C537.464 4798.11 516.059 4774.09 500.968 4757.11C477.459 4730.75 465.644 4717.48 443.955 4712.26C418.412 4706.12 384.094 4711.57 361.449 4731.44C347.814 4743.3 350.012 4750.37 324.742 4799.62C310.622 4827.22 303.622 4841.11 293.58 4854.86C281.264 4871.97 257.727 4904.67 218.192 4923.1C179.608 4941.19 162.311 4928.58 140.028 4949.01C115.996 4970.87 115.488 5004.44 115.581 5009.17C115.871 5041.69 136.427 5051.1 162.219 5092.46C184.151 5127.83 208.134 5166.38 198.081 5208.07C190.576 5239.04 167.449 5258.17 121.61 5296.16C71.4417 5337.52 36.8115 5366.31 3.31963 5357.92C-28.7379 5349.92 -50.8506 5310.14 -39.6208 5291.36L-38.8768 5291.14Z" fill="#A40616"/>
<path d="M-321.877 11655.1C-307.818 11631.6 -252.948 11660.3 -196.312 11626.6C-162.099 11606.4 -129.323 11564.2 -133.185 11528.4C-137.168 11492.4 -175.225 11492.1 -233.502 11432.9C-269.249 11396.8 -302.234 11363 -291.599 11331.9C-280.059 11298 -221.85 11280.1 -158.554 11260.5C-104.602 11243.7 -98.5306 11250.4 -70.2229 11234.3C-59.1425 11228.1 4.47124 11190.2 13.4476 11135.3C16.849 11114.5 10.0944 11104 18.1893 11072.1C26.6126 11040.3 38.2364 11030.8 42.6002 11028C54.2037 11019.8 66.4629 11020.1 83.1658 11020.3C172.076 11021.1 163.886 11018.5 196.507 11021.9C250.617 11027.4 259.457 11033.3 264.697 11040.5C274.575 11054 267.803 11066.4 270.367 11087.3C274.036 11116.9 290.886 11121 336.59 11173.5C381.483 11225.2 403.886 11251.2 408.883 11274.6C410.148 11280.6 412.727 11295.2 424.964 11305C432.973 11311.4 444.481 11315.1 463 11314.9C498.605 11314.2 515.377 11299 545.105 11289.6C596.617 11273.7 607.813 11300.7 660.94 11289.6C668.742 11287.9 725.14 11275.5 757.554 11232.7C768.722 11217.9 770.414 11204.1 775.297 11177.7C783.89 11132 781.099 11104.3 781.353 11068.5C782.04 11001.3 781.649 10967.2 797.478 10940.9C828.875 10889.2 871.522 10901.7 914.441 10839C936.786 10806.3 933.102 10791.5 965.1 10749C974.258 10736.6 992.935 10712.4 1019.3 10691.4C1071.82 10649.6 1099.97 10665.7 1167.46 10632.4C1211.12 10610.8 1241.5 10583.2 1301.03 10529.3C1341.83 10492.2 1358.36 10471.5 1395.39 10457.9C1431.39 10445 1435.65 10457.1 1479.63 10446.9C1519.23 10437.8 1553.79 10416.2 1621.6 10372.9C1680.89 10335.1 1679.4 10330.5 1699.52 10325C1732.62 10315.9 1766.23 10324.4 1833.25 10341.7C1872.93 10351.9 1896.08 10358 1924.32 10373.9C1956.27 10391.8 1952.14 10398.2 1982.38 10414.8C2025.55 10438.7 2035.7 10426.5 2086.39 10451C2126.79 10470.5 2127.41 10481.6 2152.77 10483.3C2177.8 10485 2199.3 10475.7 2212.27 10488.5C2220.5 10496.7 2217.53 10505.8 2226.63 10510.8C2238.87 10517.4 2257.53 10507.8 2267.19 10503.1C2298.4 10488.2 2333.01 10485.5 2365.9 10476.5C2411.14 10464.1 2450.52 10453.3 2494.76 10458.6C2538.88 10463.8 2538.03 10478.9 2602.31 10489.2C2660.69 10498.6 2679.55 10488.9 2686.95 10484.4C2713.7 10467.6 2717.47 10439.1 2731.78 10439.3C2744.37 10439.6 2754.64 10462.4 2752.61 10482.6C2749.86 10511.8 2721.4 10535.5 2698.81 10546.3C2668.88 10560.8 2641.17 10556.4 2586.92 10546.9C2540.66 10538.9 2530.08 10531.2 2483.58 10522.8C2430.19 10513.4 2417.94 10510 2400.64 10513.8C2373.43 10520.2 2367.73 10532.5 2333.13 10545.3C2303.83 10556.2 2280.44 10558 2258.11 10559.6C2191.34 10564.2 2137.88 10550.5 2107.78 10544.2C1970.69 10515.8 1933.92 10563.3 1805.83 10533.4C1790.2 10529.8 1755.97 10513.3 1684.32 10486.6C1658.34 10477 1643.68 10471.7 1625.86 10477.5C1597.12 10487 1592.96 10514.5 1554.01 10540.2C1538.22 10550.6 1525.19 10555.1 1498.77 10563.7C1439.79 10583.1 1429.58 10572.8 1380.68 10587.2C1326.04 10603.3 1281.81 10632.8 1268.42 10641.9C1232.63 10666.1 1229.18 10676.3 1204.21 10683.9C1166.92 10695.3 1155.32 10678.7 1117.08 10690.4C1087.56 10699.6 1067.95 10717.8 1050.38 10734.1C1024.84 10757.7 1002.47 10778.5 1000.92 10804.5C999.164 10833.8 1026.24 10836.9 1041.77 10878.8C1051.14 10904.3 1059.93 10954.2 1035.26 10977.8C1012.83 10999.4 986.307 10976.6 922.998 10994.3C905.764 10999.2 850.968 11014.6 824.291 11059C812.471 11078.7 810.807 11096.2 808.773 11116.5C802.382 11182.6 832.106 11198 821.597 11234.4C807.829 11282.2 741.127 11309.4 701.459 11325.8C661.669 11342 644.987 11340.4 564.472 11358.6C473.179 11379.3 479.82 11386.4 453.016 11387.4C385.989 11389.8 305.589 11356.8 282.38 11297C268.799 11261.8 287.173 11249.5 268.145 11198.9C254.464 11162.1 233.059 11138.1 217.968 11121.1C194.459 11094.8 182.644 11081.5 160.955 11076.3C135.412 11070.1 101.094 11075.6 78.4492 11095.4C64.8143 11107.3 67.0117 11114.4 41.742 11163.6C27.622 11191.2 20.6224 11205.1 10.5797 11218.9C-1.73561 11236 -25.2735 11268.7 -64.8085 11287.1C-103.392 11305.2 -120.689 11292.6 -142.972 11313C-167.004 11334.9 -167.512 11368.4 -167.419 11373.2C-167.129 11405.7 -146.573 11415.1 -120.781 11456.5C-98.8486 11491.8 -74.8656 11530.4 -84.9192 11572.1C-92.4241 11603 -115.551 11622.2 -161.39 11660.2C-211.558 11701.5 -246.189 11730.3 -279.68 11721.9C-311.738 11713.9 -333.851 11674.1 -322.621 11655.4L-321.877 11655.1Z" fill="#A40616"/>
<path d="M-174.877 17157.1C-160.818 17133.6 -105.948 17162.3 -49.3119 17128.6C-15.0986 17108.4 17.677 17066.2 13.815 17030.4C9.83233 16994.4 -28.2252 16994.1 -86.5025 16934.9C-122.249 16898.8 -155.234 16865 -144.599 16833.9C-133.059 16800 -74.8503 16782.1 -11.5543 16762.5C42.3978 16745.7 48.4694 16752.4 76.7771 16736.3C87.8575 16730.1 151.471 16692.2 160.448 16637.3C163.849 16616.5 157.094 16606 165.189 16574.1C173.613 16542.3 185.236 16532.8 189.6 16530C201.204 16521.8 213.463 16522.1 230.166 16522.3C319.076 16523.1 310.886 16520.5 343.507 16523.9C397.617 16529.4 406.457 16535.3 411.697 16542.5C421.575 16556 414.803 16568.4 417.367 16589.3C421.036 16618.9 437.886 16623 483.59 16675.5C528.483 16727.2 550.886 16753.2 555.883 16776.6C557.148 16782.6 559.727 16797.2 571.964 16807C579.973 16813.4 591.481 16817.1 610 16816.9C645.605 16816.2 662.377 16801 692.105 16791.6C743.617 16775.7 754.813 16802.7 807.94 16791.6C815.742 16789.9 872.14 16777.5 904.554 16734.7C915.722 16719.9 917.414 16706.1 922.297 16679.7C930.89 16634 928.099 16606.3 928.353 16570.5C929.04 16503.3 928.649 16469.2 944.478 16442.9C975.875 16391.2 1018.52 16403.7 1061.44 16341C1083.79 16308.3 1080.1 16293.5 1112.1 16251C1121.26 16238.6 1139.94 16214.4 1166.3 16193.4C1218.82 16151.6 1246.97 16167.7 1314.46 16134.4C1358.12 16112.8 1388.5 16085.2 1448.03 16031.3C1488.83 15994.2 1505.36 15973.5 1542.39 15959.9C1578.39 15947 1582.65 15959.1 1626.63 15948.9C1666.23 15939.8 1700.79 15918.2 1768.6 15874.9C1827.89 15837.1 1826.4 15832.5 1846.52 15827C1879.62 15817.9 1913.23 15826.4 1980.25 15843.7C2019.93 15853.9 2043.08 15860 2071.32 15875.9C2103.27 15893.8 2099.14 15900.2 2129.38 15916.8C2172.55 15940.7 2182.7 15928.5 2233.39 15953C2273.79 15972.5 2274.41 15983.6 2299.77 15985.3C2324.8 15987 2346.3 15977.7 2359.27 15990.5C2367.5 15998.7 2364.53 16007.8 2373.63 16012.8C2385.87 16019.4 2404.53 16009.8 2414.19 16005.1C2445.4 15990.2 2480.01 15987.5 2512.9 15978.5C2558.14 15966.1 2597.52 15955.3 2641.76 15960.6C2685.88 15965.8 2685.03 15980.9 2749.31 15991.2C2807.69 16000.6 2826.55 15990.9 2833.95 15986.4C2860.7 15969.6 2864.47 15941.1 2878.78 15941.3C2891.37 15941.6 2901.64 15964.4 2899.61 15984.6C2896.86 16013.8 2868.4 16037.5 2845.81 16048.3C2815.88 16062.8 2788.17 16058.4 2733.92 16048.9C2687.66 16040.9 2677.08 16033.2 2630.58 16024.8C2577.19 16015.4 2564.94 16012 2547.64 16015.8C2520.43 16022.2 2514.73 16034.5 2480.13 16047.3C2450.83 16058.2 2427.44 16060 2405.11 16061.6C2338.34 16066.2 2284.88 16052.5 2254.78 16046.2C2117.69 16017.8 2080.92 16065.3 1952.83 16035.4C1937.2 16031.8 1902.97 16015.3 1831.32 15988.6C1805.34 15979 1790.68 15973.7 1772.86 15979.5C1744.12 15989 1739.96 16016.5 1701.01 16042.2C1685.22 16052.6 1672.19 16057.1 1645.77 16065.7C1586.79 16085.1 1576.58 16074.8 1527.68 16089.2C1473.04 16105.3 1428.81 16134.8 1415.42 16143.9C1379.63 16168.1 1376.18 16178.3 1351.21 16185.9C1313.92 16197.3 1302.32 16180.7 1264.08 16192.4C1234.56 16201.6 1214.95 16219.8 1197.38 16236.1C1171.84 16259.7 1149.47 16280.5 1147.92 16306.5C1146.16 16335.8 1173.24 16338.9 1188.77 16380.8C1198.14 16406.3 1206.93 16456.2 1182.26 16479.8C1159.83 16501.4 1133.31 16478.6 1070 16496.3C1052.76 16501.2 997.968 16516.6 971.291 16561C959.471 16580.7 957.807 16598.2 955.773 16618.5C949.382 16684.6 979.106 16700 968.597 16736.4C954.829 16784.2 888.127 16811.4 848.459 16827.8C808.669 16844 791.987 16842.4 711.472 16860.6C620.179 16881.3 626.82 16888.4 600.016 16889.4C532.989 16891.8 452.589 16858.8 429.38 16799C415.799 16763.8 434.173 16751.5 415.145 16700.9C401.464 16664.1 380.059 16640.1 364.968 16623.1C341.459 16596.8 329.644 16583.5 307.955 16578.3C282.412 16572.1 248.094 16577.6 225.449 16597.4C211.814 16609.3 214.012 16616.4 188.742 16665.6C174.622 16693.2 167.622 16707.1 157.58 16720.9C145.264 16738 121.727 16770.7 82.1915 16789.1C43.6084 16807.2 26.3108 16794.6 4.02811 16815C-20.0042 16836.9 -20.5119 16870.4 -20.4188 16875.2C-20.1288 16907.7 0.426768 16917.1 26.219 16958.5C48.1514 16993.8 72.1344 17032.4 62.0808 17074.1C54.5759 17105 31.4489 17124.2 -14.3895 17162.2C-64.5583 17203.5 -99.1885 17232.3 -132.68 17223.9C-164.738 17215.9 -186.851 17176.1 -175.621 17157.4L-174.877 17157.1Z" fill="#A40616"/>
<path d="M-87.2825 2804.84C-72.9111 2784.97 -27.7197 2801.53 24.6375 2769.32C56.2627 2749.88 88.6163 2713.51 88.4832 2686.03C88.2619 2658.42 55.1512 2662.18 9.74543 2622.22C-18.1178 2597.81 -43.7976 2575.02 -31.7217 2549.59C-18.6119 2521.95 33.6949 2501.83 90.5888 2479.81C139.081 2461.06 143.767 2465.62 169.876 2450.03C180.085 2444.03 238.907 2407.72 251.674 2364.03C256.518 2347.42 251.582 2339.97 261.512 2314.25C271.723 2288.53 282.7 2279.91 286.759 2277.22C297.598 2269.65 308.254 2268.52 322.778 2266.94C400.13 2258.16 393.234 2256.99 421.337 2256.16C467.959 2254.73 475.123 2258.41 479.036 2263.47C486.42 2272.93 479.403 2283.33 479.746 2299.37C480.275 2321.99 494.576 2323.42 529.634 2359.52C564.058 2395.09 581.218 2413 583.463 2430.66C584.015 2435.27 584.948 2446.33 594.72 2452.67C601.111 2456.86 610.804 2458.47 626.946 2456.39C658.015 2452.06 673.997 2438.41 700.73 2427.96C747.026 2410.1 754.34 2429.94 801.608 2415.64C808.552 2413.53 858.791 2397.84 890.88 2361.06C901.939 2348.37 904.665 2337.38 911.296 2316.33C922.913 2279.72 922.984 2258.43 926.438 2230.49C933.105 2178.02 935.84 2151.51 952.002 2129.31C984.009 2085.7 1020.02 2090.92 1063.06 2037.51C1085.47 2009.64 1083.6 1998.43 1115.31 1961.91C1124.4 1951.29 1142.85 1930.44 1167.7 1911.29C1217.22 1873.11 1240.27 1882.71 1302.06 1849.6C1342.03 1828.08 1370.98 1803.34 1427.69 1755.03C1466.57 1721.79 1482.83 1703.93 1516.31 1689.39C1548.82 1675.5 1551.44 1684.48 1590.65 1671.89C1625.97 1660.54 1658.01 1640.06 1720.98 1599.09C1776.02 1563.37 1775.14 1559.93 1793.15 1553.54C1822.81 1542.88 1851.3 1546.01 1908.1 1552.38C1941.73 1556.12 1961.35 1558.43 1984.51 1567.77C2010.71 1578.35 2006.54 1583.8 2031.37 1593.56C2066.81 1607.59 2076.75 1596.98 2118.68 1610.72C2152.1 1621.69 2151.64 1630.23 2173.57 1628.9C2195.21 1627.56 2214.77 1618.04 2224.92 1626.63C2231.35 1632.14 2227.93 1639.57 2235.41 1642.46C2245.48 1646.31 2262.59 1636.88 2271.43 1632.17C2299.95 1617.29 2330.33 1611.51 2359.79 1600.97C2400.3 1586.56 2435.58 1573.9 2473.62 1573.37C2511.57 1572.72 2509.46 1584.64 2564.52 1585.86C2614.5 1586.99 2631.81 1577.43 2638.66 1573.08C2663.47 1557.21 2669.32 1534.57 2681.77 1533.21C2692.71 1532.09 2699.6 1548.77 2696 1564.74C2690.97 1587.79 2664.04 1609.28 2643.4 1620.1C2616.02 1634.61 2592.29 1634.06 2545.9 1632.47C2506.34 1631.12 2497.82 1626.24 2458.09 1624.63C2412.45 1622.92 2402.08 1621.56 2386.67 1626.42C2362.39 1634.28 2356.32 1644.43 2325.04 1658.08C2298.54 1669.71 2278 1673.57 2258.42 1677.17C2199.85 1687.85 2154.54 1682.86 2128.89 1681.1C2012.07 1673.55 1975.76 1714.46 1866.92 1704.68C1853.64 1703.53 1825.31 1694.36 1765.33 1681.1C1743.57 1676.38 1731.28 1673.8 1715.24 1680.23C1689.35 1690.69 1683.25 1712.54 1647 1736.75C1632.32 1746.49 1620.56 1751.41 1596.78 1760.86C1543.67 1782.28 1535.71 1775.31 1491.82 1791.77C1442.78 1810.11 1401.6 1837.79 1389.13 1846.25C1355.77 1868.94 1351.84 1877.28 1329.41 1885.83C1295.91 1898.66 1287.31 1886.94 1252.95 1900.15C1226.41 1910.47 1207.69 1926.71 1190.91 1941.27C1166.54 1962.41 1145.18 1980.96 1141.49 2001.41C1137.31 2024.47 1160.61 2023.96 1170.35 2055.02C1176.2 2073.92 1179.36 2111.83 1155.74 2132.85C1134.26 2152.06 1113.22 2137.11 1056.48 2157.68C1041.03 2163.33 991.922 2181.14 964.688 2218.53C952.615 2235.15 949.578 2249.03 945.981 2265C934.442 2317.25 958.938 2326.09 946.499 2355.59C930.189 2394.35 869.648 2422.61 833.622 2439.6C797.508 2456.46 783.122 2457 711.368 2479.67C629.999 2505.47 635.142 2510.3 611.704 2513.96C553.118 2522.94 486.082 2505.74 471.271 2461.57C462.628 2435.53 479.739 2423.99 467.736 2386.58C459.144 2359.35 442.673 2342.9 431.063 2331.26C412.972 2313.2 403.882 2304.1 385.465 2302.33C363.776 2300.25 333.398 2308.14 311.883 2326.03C298.939 2336.72 300.214 2342 273.76 2383.08C258.972 2406.09 251.622 2417.67 241.634 2429.45C229.364 2444.1 205.914 2472.08 169.82 2490.65C134.587 2508.84 120.662 2500.84 99.4119 2519.14C76.5103 2538.72 73.0359 2564.95 72.6902 2568.63C70.0058 2593.95 87.0565 2599.11 105.783 2628.62C121.688 2653.87 139.092 2681.39 126.572 2714.95C117.239 2739.9 95.3715 2757.27 52.0227 2791.74C4.5987 2829.31 -28.1587 2855.42 -56.5671 2852.43C-83.7618 2849.59 -99.4264 2820.93 -87.9504 2805.09L-87.2825 2804.84Z" fill="#3A4E82"/>
<path d="M-370.282 9168.84C-355.911 9148.97 -310.72 9165.53 -258.362 9133.32C-226.737 9113.88 -194.384 9077.51 -194.517 9050.03C-194.738 9022.42 -227.849 9026.18 -273.255 8986.22C-301.118 8961.81 -326.798 8939.02 -314.722 8913.59C-301.612 8885.95 -249.305 8865.83 -192.411 8843.81C-143.919 8825.06 -139.233 8829.62 -113.124 8814.03C-102.915 8808.03 -44.0929 8771.72 -31.3259 8728.03C-26.4816 8711.42 -31.4182 8703.97 -21.4885 8678.25C-11.2773 8652.53 -0.299542 8643.91 3.7587 8641.22C14.5976 8633.65 25.2537 8632.52 39.7782 8630.94C117.13 8622.16 110.234 8620.99 138.337 8620.16C184.959 8618.73 192.123 8622.41 196.036 8627.47C203.42 8636.93 196.403 8647.33 196.746 8663.37C197.275 8685.99 211.576 8687.42 246.634 8723.52C281.058 8759.09 298.218 8777 300.463 8794.66C301.015 8799.27 301.948 8810.33 311.72 8816.67C318.111 8820.86 327.804 8822.47 343.946 8820.39C375.015 8816.06 390.997 8802.41 417.73 8791.96C464.026 8774.1 471.34 8793.94 518.608 8779.64C525.552 8777.53 575.791 8761.84 607.88 8725.06C618.939 8712.37 621.665 8701.38 628.296 8680.33C639.913 8643.72 639.984 8622.43 643.438 8594.49C650.105 8542.02 652.84 8515.51 669.002 8493.31C701.009 8449.7 737.019 8454.92 780.055 8401.51C802.469 8373.64 800.603 8362.43 832.306 8325.91C841.399 8315.29 859.849 8294.44 884.704 8275.29C934.219 8237.11 957.274 8246.71 1019.06 8213.6C1059.03 8192.08 1087.98 8167.34 1144.69 8119.03C1183.57 8085.79 1199.83 8067.93 1233.31 8053.39C1265.82 8039.5 1268.44 8048.48 1307.65 8035.89C1342.97 8024.54 1375.01 8004.06 1437.98 7963.09C1493.02 7927.37 1492.14 7923.93 1510.15 7917.54C1539.81 7906.88 1568.3 7910.01 1625.1 7916.38C1658.73 7920.12 1678.35 7922.43 1701.51 7931.77C1727.71 7942.35 1723.54 7947.8 1748.37 7957.56C1783.81 7971.59 1793.75 7960.98 1835.68 7974.72C1869.1 7985.69 1868.64 7994.23 1890.57 7992.9C1912.21 7991.56 1931.77 7982.04 1941.92 7990.63C1948.35 7996.14 1944.93 8003.57 1952.41 8006.46C1962.48 8010.31 1979.59 8000.88 1988.43 7996.17C2016.95 7981.29 2047.33 7975.51 2076.79 7964.97C2117.3 7950.56 2152.58 7937.9 2190.62 7937.37C2228.57 7936.72 2226.46 7948.64 2281.52 7949.86C2331.5 7950.99 2348.81 7941.43 2355.66 7937.08C2380.47 7921.21 2386.32 7898.57 2398.77 7897.21C2409.71 7896.09 2416.6 7912.77 2413 7928.74C2407.97 7951.79 2381.04 7973.28 2360.4 7984.1C2333.02 7998.61 2309.29 7998.06 2262.9 7996.47C2223.34 7995.12 2214.82 7990.24 2175.09 7988.63C2129.45 7986.92 2119.08 7985.56 2103.67 7990.42C2079.39 7998.28 2073.32 8008.43 2042.04 8022.08C2015.54 8033.71 1995 8037.57 1975.42 8041.17C1916.85 8051.85 1871.54 8046.86 1845.89 8045.1C1729.07 8037.55 1692.76 8078.46 1583.92 8068.68C1570.64 8067.53 1542.31 8058.36 1482.33 8045.1C1460.57 8040.38 1448.28 8037.8 1432.24 8044.23C1406.35 8054.69 1400.25 8076.54 1364 8100.75C1349.32 8110.49 1337.56 8115.41 1313.78 8124.86C1260.67 8146.28 1252.71 8139.31 1208.82 8155.77C1159.78 8174.11 1118.6 8201.79 1106.13 8210.25C1072.77 8232.94 1068.84 8241.28 1046.41 8249.83C1012.91 8262.66 1004.31 8250.94 969.948 8264.15C943.408 8274.47 924.687 8290.71 907.915 8305.27C883.539 8326.41 862.183 8344.96 858.488 8365.41C854.305 8388.47 877.607 8387.96 887.349 8419.02C893.202 8437.92 896.359 8475.83 872.739 8496.85C851.261 8516.06 830.22 8501.11 773.482 8521.68C758.032 8527.33 708.922 8545.14 681.688 8582.53C669.615 8599.15 666.578 8613.03 662.981 8629C651.442 8681.25 675.938 8690.09 663.499 8719.59C647.189 8758.35 586.648 8786.61 550.622 8803.6C514.508 8820.46 500.122 8821 428.368 8843.67C346.999 8869.47 352.142 8874.3 328.704 8877.96C270.118 8886.94 203.082 8869.74 188.271 8825.57C179.628 8799.53 196.739 8787.99 184.736 8750.58C176.144 8723.35 159.673 8706.9 148.063 8695.26C129.972 8677.2 120.882 8668.1 102.465 8666.33C80.7763 8664.25 50.3983 8672.14 28.8833 8690.03C15.939 8700.72 17.214 8706 -9.24014 8747.08C-24.0284 8770.09 -31.3785 8781.67 -41.3663 8793.45C-53.6357 8808.1 -77.0863 8836.08 -113.18 8854.65C-148.413 8872.84 -162.338 8864.84 -183.588 8883.14C-206.49 8902.72 -209.964 8928.95 -210.31 8932.63C-212.994 8957.95 -195.944 8963.11 -177.217 8992.62C-161.312 9017.87 -143.908 9045.39 -156.428 9078.95C-165.761 9103.9 -187.629 9121.27 -230.977 9155.74C-278.401 9193.31 -311.159 9219.42 -339.567 9216.43C-366.762 9213.59 -382.426 9184.93 -370.95 9169.09L-370.282 9168.84Z" fill="#3A4E82"/>
<path d="M-223.282 14670.8C-208.911 14651 -163.72 14667.5 -111.362 14635.3C-79.7373 14615.9 -47.3837 14579.5 -47.5168 14552C-47.7381 14524.4 -80.8488 14528.2 -126.255 14488.2C-154.118 14463.8 -179.798 14441 -167.722 14415.6C-154.612 14388 -102.305 14367.8 -45.4112 14345.8C3.08136 14327.1 7.76707 14331.6 33.8762 14316C44.0846 14310 102.907 14273.7 115.674 14230C120.518 14213.4 115.582 14206 125.512 14180.2C135.723 14154.5 146.7 14145.9 150.759 14143.2C161.598 14135.7 172.254 14134.5 186.778 14132.9C264.13 14124.2 257.234 14123 285.337 14122.2C331.959 14120.7 339.123 14124.4 343.036 14129.5C350.42 14138.9 343.403 14149.3 343.746 14165.4C344.275 14188 358.576 14189.4 393.634 14225.5C428.058 14261.1 445.218 14279 447.463 14296.7C448.015 14301.3 448.948 14312.3 458.72 14318.7C465.111 14322.9 474.804 14324.5 490.946 14322.4C522.015 14318.1 537.997 14304.4 564.73 14294C611.026 14276.1 618.34 14295.9 665.608 14281.6C672.552 14279.5 722.791 14263.8 754.88 14227.1C765.939 14214.4 768.665 14203.4 775.296 14182.3C786.913 14145.7 786.984 14124.4 790.438 14096.5C797.105 14044 799.84 14017.5 816.002 13995.3C848.009 13951.7 884.019 13956.9 927.055 13903.5C949.469 13875.6 947.603 13864.4 979.306 13827.9C988.399 13817.3 1006.85 13796.4 1031.7 13777.3C1081.22 13739.1 1104.27 13748.7 1166.06 13715.6C1206.03 13694.1 1234.98 13669.3 1291.69 13621C1330.57 13587.8 1346.83 13569.9 1380.31 13555.4C1412.82 13541.5 1415.44 13550.5 1454.65 13537.9C1489.97 13526.5 1522.01 13506.1 1584.98 13465.1C1640.02 13429.4 1639.14 13425.9 1657.15 13419.5C1686.81 13408.9 1715.3 13412 1772.1 13418.4C1805.73 13422.1 1825.35 13424.4 1848.51 13433.8C1874.71 13444.4 1870.54 13449.8 1895.37 13459.6C1930.81 13473.6 1940.75 13463 1982.68 13476.7C2016.1 13487.7 2015.64 13496.2 2037.57 13494.9C2059.21 13493.6 2078.77 13484 2088.92 13492.6C2095.35 13498.1 2091.93 13505.6 2099.41 13508.5C2109.48 13512.3 2126.59 13502.9 2135.43 13498.2C2163.95 13483.3 2194.33 13477.5 2223.79 13467C2264.3 13452.6 2299.58 13439.9 2337.62 13439.4C2375.57 13438.7 2373.46 13450.6 2428.52 13451.9C2478.5 13453 2495.81 13443.4 2502.66 13439.1C2527.47 13423.2 2533.32 13400.6 2545.77 13399.2C2556.71 13398.1 2563.6 13414.8 2560 13430.7C2554.97 13453.8 2528.04 13475.3 2507.4 13486.1C2480.02 13500.6 2456.29 13500.1 2409.9 13498.5C2370.34 13497.1 2361.82 13492.2 2322.09 13490.6C2276.45 13488.9 2266.08 13487.6 2250.67 13492.4C2226.39 13500.3 2220.32 13510.4 2189.04 13524.1C2162.54 13535.7 2142 13539.6 2122.42 13543.2C2063.85 13553.9 2018.54 13548.9 1992.89 13547.1C1876.07 13539.6 1839.76 13580.5 1730.92 13570.7C1717.64 13569.5 1689.31 13560.4 1629.33 13547.1C1607.57 13542.4 1595.28 13539.8 1579.24 13546.2C1553.35 13556.7 1547.25 13578.5 1511 13602.8C1496.32 13612.5 1484.56 13617.4 1460.78 13626.9C1407.67 13648.3 1399.71 13641.3 1355.82 13657.8C1306.78 13676.1 1265.6 13703.8 1253.13 13712.3C1219.77 13734.9 1215.84 13743.3 1193.41 13751.8C1159.91 13764.7 1151.31 13752.9 1116.95 13766.2C1090.41 13776.5 1071.69 13792.7 1054.91 13807.3C1030.54 13828.4 1009.18 13847 1005.49 13867.4C1001.31 13890.5 1024.61 13890 1034.35 13921C1040.2 13939.9 1043.36 13977.8 1019.74 13998.9C998.261 14018.1 977.22 14003.1 920.482 14023.7C905.032 14029.3 855.922 14047.1 828.688 14084.5C816.615 14101.1 813.578 14115 809.981 14131C798.442 14183.3 822.938 14192.1 810.499 14221.6C794.189 14260.3 733.648 14288.6 697.622 14305.6C661.508 14322.5 647.122 14323 575.368 14345.7C493.999 14371.5 499.142 14376.3 475.704 14380C417.118 14388.9 350.082 14371.7 335.271 14327.6C326.628 14301.5 343.739 14290 331.736 14252.6C323.144 14225.4 306.673 14208.9 295.063 14197.3C276.972 14179.2 267.882 14170.1 249.465 14168.3C227.776 14166.3 197.398 14174.1 175.883 14192C162.939 14202.7 164.214 14208 137.76 14249.1C122.972 14272.1 115.622 14283.7 105.634 14295.5C93.3643 14310.1 69.9137 14338.1 33.8199 14356.7C-1.41278 14374.8 -15.3375 14366.8 -36.5881 14385.1C-59.4897 14404.7 -62.9641 14431 -63.3098 14434.6C-65.9942 14460 -48.9435 14465.1 -30.2173 14494.6C-14.312 14519.9 3.09186 14547.4 -9.42788 14581C-18.7609 14605.9 -40.6285 14623.3 -83.9773 14657.7C-131.401 14695.3 -164.159 14721.4 -192.567 14718.4C-219.762 14715.6 -235.426 14686.9 -223.95 14671.1L-223.282 14670.8Z" fill="#3A4E82"/>
<path d="M2802.36 4030.08C2791.58 4039.82 2771.76 4029.51 2744.76 4024.89C2700.08 4017.11 2691.4 4034.21 2651.39 4032.61C2606.06 4030.67 2555.57 4005.57 2527.03 3969.95C2497.16 3932.7 2512.97 3911.44 2478.59 3874.49C2455.47 3849.66 2428.8 3838.45 2406.49 3828.9C2343.18 3802.2 2322.3 3819.4 2283.69 3800.8C2227.71 3773.78 2198.16 3701.95 2192.77 3650.76C2184.28 3569.33 2235.31 3522.16 2201.3 3475.96C2198.14 3471.69 2186.92 3456.91 2167.43 3449.78C2130.61 3436.47 2112.04 3468.42 2063.57 3468.2C2023.99 3468.03 1973.07 3446.38 1952 3410.92C1940.66 3391.89 1942.11 3375.79 1926.68 3368.26C1909.13 3359.58 1895.86 3374.98 1873.04 3371.75C1845.2 3367.82 1826.94 3339.66 1809.24 3312.3C1785.92 3276.32 1758.68 3233.89 1768.84 3189.59C1776.23 3157.3 1795.02 3160.72 1828.73 3095.16C1847.39 3059.02 1848.22 3044.99 1846.26 3033.22C1843.96 3019.59 1832.72 3003.7 1810.65 2972.22C1795.55 2950.78 1787.8 2939.91 1774.78 2927.16C1773 2925.42 1755.03 2907.98 1731.11 2893.4C1674.01 2858.8 1637.75 2874.26 1564.92 2844.71C1512.3 2823.35 1517.29 2809.61 1471 2796.8C1414.92 2781.3 1366.29 2790.37 1357.78 2791.98C1307.38 2801.76 1301.6 2820.87 1242.18 2828.81C1226.79 2830.83 1215.97 2831.02 1201.51 2837.93C1175.49 2850.18 1164.86 2871.29 1152.1 2892.57C1138.29 2915.61 1112.33 2959.19 1077.28 2991.57C1057.57 3009.94 1019.04 3045.75 982.509 3035.83C957.12 3028.91 954.924 3006.21 932.962 3003.4C924.491 3002.35 905.325 3003.29 853.435 3069.58C805.262 3131.16 803.785 3153.47 774.43 3162.3C763.223 3165.73 739.751 3161.02 693.032 3151.66C643.62 3141.69 618.986 3136.94 589.577 3125.32C541.617 3106.58 539.845 3095.07 517.229 3095.67C480.039 3096.48 477.293 3127.83 434.487 3134.68C408.808 3139.02 387.072 3131.38 345.989 3117.1C298.335 3100.42 294.461 3088.87 263.09 3085.02C241.802 3082.37 224.165 3086.33 188.85 3094.46C157.72 3101.54 126.508 3109.06 95.5564 3131.06C77.3651 3143.99 80.0585 3147.05 69.3613 3151.49C27.1033 3168.91 -49.1622 3135.24 -60.3916 3087.6C-64.4065 3070.69 -61.2546 3046.99 -48.9449 3042.7C-30.0619 3035.92 -8.5855 3081.47 44.48 3093.17C59.073 3096.51 70.0553 3095.47 91.7942 3093.34C140.416 3089.15 161.526 3074.44 203.272 3063.34C247.691 3051.75 270.227 3046.69 294.433 3052.45C340.151 3063.36 349.631 3095.72 396.698 3099.61C419.762 3101.56 439.686 3095.46 448.137 3092.95C482.249 3082.55 486.193 3068.14 509.832 3062.22C537.655 3055.27 547.998 3070.96 597.839 3082.36C615.35 3086.37 668.008 3097.75 726.002 3082.6C749.192 3076.59 778.567 3068.88 802.906 3044.69C820.262 3027.57 819.101 3017.76 858.17 2959.64C876.897 2931.73 882.125 2926.49 890.454 2922.17C907.95 2912.86 920.685 2917.32 964.694 2912.74C979.288 2911.2 994.822 2909.64 1013.44 2905.47C1044.08 2898.49 1074 2891.57 1093.04 2868.17C1103.14 2855.83 1098.19 2853.59 1111.58 2830.23C1117.22 2820.42 1133.56 2791.51 1155.35 2776.96C1181.72 2759.24 1207.72 2767.85 1262.45 2769.72C1315.52 2771.65 1301.33 2763.74 1392.53 2759.96C1479.71 2756.38 1524.31 2754.82 1562.37 2775.07C1576.64 2782.56 1588.47 2791.7 1615.59 2803.02C1649.84 2817.52 1673.96 2821.26 1689.37 2825.23C1732.5 2836.21 1738.59 2856.93 1832.64 2934.63C1910.71 2999.12 1934.16 3007.6 1935.95 3034.87C1937.51 3057.21 1921.34 3077.94 1889.03 3119.17C1870.41 3142.89 1855.63 3156.38 1836.71 3188.91C1822.62 3213.44 1819.96 3224.82 1819.39 3235.13C1819.18 3238.63 1818.4 3269.54 1841.27 3295.65C1862 3319.49 1891.04 3325.69 1915.33 3331.03C1959.86 3340.77 1975.48 3329.03 2004.32 3346.06C2016.11 3352.98 2016.35 3356.59 2035.99 3369.08C2055.43 3381.3 2069.64 3390.32 2084.31 3393.24C2124.93 3401.42 2139.82 3356.87 2179.36 3362.14C2208.14 3366.06 2230.19 3393.98 2239.25 3412.71C2243.29 3420.96 2246.06 3430.92 2242.34 3497.79C2240.08 3538.8 2238.71 3539.82 2237.78 3565.36C2236.16 3609.17 2235.47 3631 2242.1 3658.72C2248.52 3685.06 2256.24 3716.8 2282.4 3739.22C2307.19 3760.21 2324.59 3752.65 2388.06 3768.73C2456.43 3786.15 2491.74 3795.12 2513.86 3823.94C2541.24 3859.52 2523.55 3892.99 2559.11 3921.34C2568.87 3929.12 2580.77 3934.29 2604.75 3944.88C2627.64 3955.01 2645.09 3960.56 2664.56 3966.57C2707.28 3979.67 2728.51 3986.31 2752.08 3989.26C2781.61 3992.91 2797.8 3990.4 2805.51 4001.49C2811.16 4009.89 2809.97 4023.38 2802.85 4029.97L2802.36 4030.08Z" fill="#47650C"/>
<path d="M2519.36 10394.1C2508.58 10403.8 2488.76 10393.5 2461.76 10388.9C2417.08 10381.1 2408.4 10398.2 2368.39 10396.6C2323.06 10394.7 2272.57 10369.6 2244.03 10334C2214.16 10296.7 2229.97 10275.4 2195.59 10238.5C2172.47 10213.7 2145.8 10202.4 2123.49 10192.9C2060.18 10166.2 2039.3 10183.4 2000.69 10164.8C1944.71 10137.8 1915.16 10066 1909.77 10014.8C1901.28 9933.33 1952.31 9886.16 1918.3 9839.96C1915.14 9835.69 1903.92 9820.91 1884.43 9813.78C1847.61 9800.47 1829.04 9832.42 1780.57 9832.2C1740.99 9832.03 1690.07 9810.38 1669 9774.92C1657.66 9755.89 1659.11 9739.79 1643.68 9732.26C1626.13 9723.58 1612.86 9738.98 1590.04 9735.75C1562.2 9731.82 1543.94 9703.66 1526.24 9676.3C1502.92 9640.32 1475.68 9597.89 1485.84 9553.59C1493.23 9521.3 1512.02 9524.72 1545.73 9459.16C1564.39 9423.02 1565.22 9408.99 1563.26 9397.22C1560.96 9383.59 1549.72 9367.7 1527.65 9336.22C1512.55 9314.78 1504.8 9303.91 1491.78 9291.16C1490 9289.42 1472.03 9271.98 1448.11 9257.4C1391.01 9222.8 1354.75 9238.26 1281.92 9208.71C1229.3 9187.35 1234.29 9173.61 1188 9160.8C1131.92 9145.3 1083.29 9154.37 1074.78 9155.98C1024.38 9165.76 1018.6 9184.87 959.177 9192.81C943.786 9194.83 932.968 9195.02 918.515 9201.93C892.486 9214.18 881.864 9235.29 869.099 9256.57C855.292 9279.61 829.334 9323.19 794.275 9355.57C774.572 9373.94 736.042 9409.75 699.509 9399.83C674.12 9392.91 671.924 9370.21 649.962 9367.4C641.491 9366.35 622.325 9367.29 570.435 9433.58C522.262 9495.16 520.785 9517.47 491.43 9526.3C480.223 9529.73 456.751 9525.02 410.032 9515.66C360.62 9505.69 335.986 9500.94 306.577 9489.32C258.617 9470.58 256.845 9459.07 234.229 9459.67C197.039 9460.48 194.293 9491.83 151.487 9498.68C125.808 9503.02 104.072 9495.38 62.9894 9481.1C15.3348 9464.42 11.4608 9452.87 -19.9102 9449.02C-41.1984 9446.37 -58.8351 9450.33 -94.1499 9458.46C-125.28 9465.54 -156.492 9473.06 -187.444 9495.06C-205.635 9507.99 -202.941 9511.05 -213.639 9515.49C-255.897 9532.91 -332.162 9499.24 -343.392 9451.6C-347.406 9434.69 -344.255 9410.99 -331.945 9406.7C-313.062 9399.92 -291.586 9445.47 -238.52 9457.17C-223.927 9460.51 -212.945 9459.47 -191.206 9457.34C-142.584 9453.15 -121.474 9438.44 -79.7285 9427.34C-35.309 9415.75 -12.7726 9410.69 11.4332 9416.45C57.1509 9427.36 66.6308 9459.72 113.698 9463.61C136.762 9465.56 156.686 9459.46 165.137 9456.95C199.249 9446.55 203.193 9432.14 226.832 9426.22C254.655 9419.27 264.998 9434.96 314.839 9446.36C332.35 9450.37 385.008 9461.75 443.002 9446.6C466.192 9440.59 495.567 9432.88 519.906 9408.69C537.262 9391.57 536.101 9381.76 575.17 9323.64C593.897 9295.73 599.125 9290.49 607.454 9286.17C624.95 9276.86 637.685 9281.32 681.694 9276.74C696.288 9275.2 711.822 9273.64 730.439 9269.47C761.079 9262.49 791.005 9255.57 810.037 9232.17C820.145 9219.83 815.186 9217.59 828.584 9194.23C834.221 9184.42 850.561 9155.51 872.345 9140.96C898.723 9123.24 924.724 9131.85 979.447 9133.72C1032.52 9135.65 1018.33 9127.74 1109.53 9123.96C1196.71 9120.38 1241.31 9118.82 1279.37 9139.07C1293.64 9146.56 1305.47 9155.7 1332.59 9167.02C1366.84 9181.52 1390.96 9185.26 1406.37 9189.23C1449.5 9200.21 1455.59 9220.93 1549.64 9298.63C1627.71 9363.12 1651.16 9371.6 1652.95 9398.87C1654.51 9421.21 1638.34 9441.94 1606.03 9483.17C1587.41 9506.89 1572.63 9520.38 1553.71 9552.91C1539.62 9577.44 1536.96 9588.82 1536.39 9599.13C1536.18 9602.63 1535.4 9633.54 1558.27 9659.65C1579 9683.49 1608.04 9689.69 1632.33 9695.03C1676.86 9704.77 1692.48 9693.03 1721.32 9710.06C1733.11 9716.98 1733.35 9720.59 1752.99 9733.08C1772.43 9745.3 1786.64 9754.32 1801.31 9757.24C1841.93 9765.42 1856.82 9720.87 1896.36 9726.14C1925.14 9730.06 1947.19 9757.98 1956.25 9776.71C1960.29 9784.96 1963.06 9794.92 1959.34 9861.79C1957.08 9902.8 1955.71 9903.82 1954.78 9929.36C1953.16 9973.17 1952.47 9995 1959.1 10022.7C1965.52 10049.1 1973.24 10080.8 1999.4 10103.2C2024.19 10124.2 2041.59 10116.6 2105.06 10132.7C2173.43 10150.2 2208.74 10159.1 2230.86 10187.9C2258.24 10223.5 2240.55 10257 2276.11 10285.3C2285.87 10293.1 2297.77 10298.3 2321.75 10308.9C2344.64 10319 2362.09 10324.6 2381.56 10330.6C2424.28 10343.7 2445.51 10350.3 2469.08 10353.3C2498.61 10356.9 2514.8 10354.4 2522.51 10365.5C2528.16 10373.9 2526.97 10387.4 2519.85 10394L2519.36 10394.1Z" fill="#D49634"/>
<path d="M2666.36 15896.1C2655.58 15905.8 2635.76 15895.5 2608.76 15890.9C2564.08 15883.1 2555.4 15900.2 2515.39 15898.6C2470.06 15896.7 2419.57 15871.6 2391.03 15836C2361.16 15798.7 2376.97 15777.4 2342.59 15740.5C2319.47 15715.7 2292.8 15704.4 2270.49 15694.9C2207.18 15668.2 2186.3 15685.4 2147.69 15666.8C2091.71 15639.8 2062.16 15568 2056.77 15516.8C2048.28 15435.3 2099.31 15388.2 2065.3 15342C2062.14 15337.7 2050.92 15322.9 2031.43 15315.8C1994.61 15302.5 1976.04 15334.4 1927.57 15334.2C1887.99 15334 1837.07 15312.4 1816 15276.9C1804.66 15257.9 1806.11 15241.8 1790.68 15234.3C1773.13 15225.6 1759.86 15241 1737.04 15237.8C1709.2 15233.8 1690.94 15205.7 1673.24 15178.3C1649.92 15142.3 1622.68 15099.9 1632.84 15055.6C1640.23 15023.3 1659.02 15026.7 1692.73 14961.2C1711.39 14925 1712.22 14911 1710.26 14899.2C1707.96 14885.6 1696.72 14869.7 1674.65 14838.2C1659.55 14816.8 1651.8 14805.9 1638.78 14793.2C1637 14791.4 1619.03 14774 1595.11 14759.4C1538.01 14724.8 1501.75 14740.3 1428.92 14710.7C1376.3 14689.3 1381.29 14675.6 1335 14662.8C1278.92 14647.3 1230.29 14656.4 1221.78 14658C1171.38 14667.8 1165.6 14686.9 1106.18 14694.8C1090.79 14696.8 1079.97 14697 1065.51 14703.9C1039.49 14716.2 1028.86 14737.3 1016.1 14758.6C1002.29 14781.6 976.334 14825.2 941.275 14857.6C921.572 14875.9 883.042 14911.8 846.509 14901.8C821.12 14894.9 818.924 14872.2 796.962 14869.4C788.491 14868.4 769.325 14869.3 717.435 14935.6C669.262 14997.2 667.785 15019.5 638.43 15028.3C627.223 15031.7 603.751 15027 557.032 15017.7C507.62 15007.7 482.986 15002.9 453.577 14991.3C405.617 14972.6 403.845 14961.1 381.229 14961.7C344.039 14962.5 341.293 14993.8 298.487 15000.7C272.808 15005 251.072 14997.4 209.989 14983.1C162.335 14966.4 158.461 14954.9 127.09 14951C105.802 14948.4 88.1649 14952.3 52.8501 14960.5C21.7201 14967.5 -9.49181 14975.1 -40.4436 14997.1C-58.6349 15010 -55.9415 15013.1 -66.6387 15017.5C-108.897 15034.9 -185.162 15001.2 -196.392 14953.6C-200.406 14936.7 -197.255 14913 -184.945 14908.7C-166.062 14901.9 -144.586 14947.5 -91.52 14959.2C-76.927 14962.5 -65.9447 14961.5 -44.2058 14959.3C4.4158 14955.1 25.5261 14940.4 67.2715 14929.3C111.691 14917.7 134.227 14912.7 158.433 14918.5C204.151 14929.4 213.631 14961.7 260.698 14965.6C283.762 14967.6 303.686 14961.5 312.137 14959C346.249 14948.6 350.193 14934.1 373.832 14928.2C401.655 14921.3 411.998 14937 461.839 14948.4C479.35 14952.4 532.008 14963.8 590.002 14948.6C613.192 14942.6 642.567 14934.9 666.906 14910.7C684.262 14893.6 683.101 14883.8 722.17 14825.6C740.897 14797.7 746.125 14792.5 754.454 14788.2C771.95 14778.9 784.685 14783.3 828.694 14778.7C843.288 14777.2 858.822 14775.6 877.439 14771.5C908.079 14764.5 938.005 14757.6 957.037 14734.2C967.145 14721.8 962.186 14719.6 975.584 14696.2C981.221 14686.4 997.561 14657.5 1019.35 14643C1045.72 14625.2 1071.72 14633.9 1126.45 14635.7C1179.52 14637.6 1165.33 14629.7 1256.53 14626C1343.71 14622.4 1388.31 14620.8 1426.37 14641.1C1440.64 14648.6 1452.47 14657.7 1479.59 14669C1513.84 14683.5 1537.96 14687.3 1553.37 14691.2C1596.5 14702.2 1602.59 14722.9 1696.64 14800.6C1774.71 14865.1 1798.16 14873.6 1799.95 14900.9C1801.51 14923.2 1785.34 14943.9 1753.03 14985.2C1734.41 15008.9 1719.63 15022.4 1700.71 15054.9C1686.62 15079.4 1683.96 15090.8 1683.39 15101.1C1683.18 15104.6 1682.4 15135.5 1705.27 15161.6C1726 15185.5 1755.04 15191.7 1779.33 15197C1823.86 15206.8 1839.48 15195 1868.32 15212.1C1880.11 15219 1880.35 15222.6 1899.99 15235.1C1919.43 15247.3 1933.64 15256.3 1948.31 15259.2C1988.93 15267.4 2003.82 15222.9 2043.36 15228.1C2072.14 15232.1 2094.19 15260 2103.25 15278.7C2107.29 15287 2110.06 15296.9 2106.34 15363.8C2104.08 15404.8 2102.71 15405.8 2101.78 15431.4C2100.16 15475.2 2099.47 15497 2106.1 15524.7C2112.52 15551.1 2120.24 15582.8 2146.4 15605.2C2171.19 15626.2 2188.59 15618.6 2252.06 15634.7C2320.43 15652.2 2355.74 15661.1 2377.86 15689.9C2405.24 15725.5 2387.55 15759 2423.11 15787.3C2432.87 15795.1 2444.77 15800.3 2468.75 15810.9C2491.64 15821 2509.09 15826.6 2528.56 15832.6C2571.28 15845.7 2592.51 15852.3 2616.08 15855.3C2645.61 15858.9 2661.8 15856.4 2669.51 15867.5C2675.16 15875.9 2673.97 15889.4 2666.85 15896L2666.36 15896.1Z" fill="#D49634"/>
<path d="M3028.93 1259.91C3001.14 1267.06 2978.05 1210.16 2909.47 1195.87C2868.08 1187.22 2812.3 1194.93 2790.05 1222.65C2767.76 1250.58 2797.62 1276.3 2801.84 1356.89C2804.52 1406.24 2806.75 1452.01 2776.29 1466.79C2743.19 1482.88 2684.5 1456.49 2620.55 1427.91C2566.07 1403.54 2565.98 1394.79 2532.17 1387.18C2519.03 1384.12 2441.89 1368.18 2396.02 1400.69C2378.58 1413.06 2376.52 1424.94 2347.55 1441.93C2318.37 1458.67 2302.47 1457.54 2297 1456.63C2282.07 1454.57 2272.53 1446.21 2259.49 1434.87C2189.76 1374.77 2194.39 1382.09 2170.98 1357.88C2132.1 1317.78 2129.29 1307.7 2130.25 1299.13C2131.97 1283.05 2146.11 1278.86 2158.88 1262.44C2176.86 1239.25 2166.45 1225.07 2167.47 1157.57C2168.55 1091.17 2169.24 1057.89 2181.79 1038.16C2185.1 1033.03 2193.34 1021.1 2190.6 1006.01C2188.84 996.114 2182.31 985.856 2167.55 973.57C2138.89 950.232 2114.85 949.711 2084.72 936.386C2032.73 913.082 2042.96 886.632 1993.09 858.878C1985.75 854.815 1932.33 825.817 1876.45 834.168C1857.17 837.062 1846.02 845.678 1823.53 860.913C1784.35 887.332 1766.96 908.66 1741.43 933.648C1693.35 980.409 1669.57 1004.6 1638.43 1012.5C1577.05 1027.79 1552.16 990.455 1473.88 1005.76C1433.07 1013.79 1425.46 1026.71 1370.1 1035.15C1354.1 1037.72 1322.21 1042.22 1286.51 1039.31C1215.38 1033.55 1204.54 1003.36 1127.62 981.573C1077.77 967.575 1034.22 966.636 949.029 964.637C890.522 963.383 862.838 966.838 823.923 951.61C786.311 936.6 791.504 925.243 749.526 902.955C711.72 882.892 669.131 874.909 584.85 859.966C511.252 846.806 509.175 851.044 489.398 841.412C456.734 825.7 436.221 797.173 395.454 740.162C371.285 706.441 357.298 686.643 346.16 656.626C333.565 622.654 341.378 620.902 329.232 588.97C311.967 543.304 295.296 545.105 272.552 493.941C254.438 453.154 261.757 444.99 242.934 426.786C224.335 408.838 200.765 400.974 199.546 383.308C198.821 372.055 207.635 367.633 203.935 358.066C198.928 345.224 177.408 339.449 166.424 336.305C131.238 325.848 101.953 304.587 69.5498 288.919C25.0422 267.3 -13.8036 248.592 -45.006 215.224C-76.2453 182.069 -64.8354 171.968 -108.383 121.697C-147.904 76.0266 -169.685 70.2077 -178.768 68.473C-211.752 62.3118 -234.911 79.8373 -246.091 70.1127C-255.855 61.4976 -247.852 38.6044 -231.943 25.7622C-209.121 7.08909 -169.854 9.49713 -144.349 17.0292C-110.392 26.8454 -91.6386 48.53 -55.397 91.4699C-24.4872 128.063 -21.5645 140.556 9.27142 177.573C44.8051 219.958 52.0788 230.558 68.5051 239.413C94.5409 253.145 107.708 248.358 144.128 262.515C175.036 274.441 194.784 288.87 213.562 302.701C269.638 344.15 302.237 389.538 321.553 414.154C409.931 525.825 472.59 517.077 552.698 623.875C562.506 636.863 577.968 671.313 615.698 738.076C629.469 762.203 637.305 775.735 655.517 783.577C684.974 796.135 707.688 779.627 756.714 787.593C776.519 790.899 790.037 796.43 816.963 808.128C877.369 833.929 878.135 848.027 927.035 870.597C981.634 895.865 1037.47 904.75 1054.45 907.366C1099.9 914.299 1109.87 909.414 1134.97 920.808C1172.51 937.771 1169.93 957.204 1208.48 974.554C1238.35 987.835 1266.71 988.203 1292.13 988.518C1329.05 989.006 1361.43 989.391 1381.05 972.148C1403.2 952.708 1383.93 932.465 1401.32 892.585C1411.96 868.386 1440.26 827.489 1476.47 827.422C1509.48 827.258 1514.33 861.029 1576.98 890.914C1594.07 899.007 1648.3 924.867 1700.76 911.577C1724.05 905.643 1737.8 894.405 1753.71 881.563C1805.56 839.359 1792.93 808.656 1826.99 790.113C1871.73 765.712 1943.7 791.262 1986.68 806.294C2029.61 821.538 2041.69 833.813 2118.2 874.962C2205.02 921.544 2204.78 912.118 2226.73 929.316C2281.43 972.499 2321.67 1049.5 2297.72 1107.06C2283.52 1140.92 2260.29 1137.27 2239.56 1185.54C2224.36 1220.54 2224.29 1251.75 2224.22 1273.78C2224.16 1308.04 2224.11 1325.28 2237.57 1343.46C2253.42 1364.88 2284.42 1384.02 2316.39 1385.21C2335.56 1386.01 2338.82 1379.57 2393.65 1361.88C2424.34 1351.94 2439.7 1346.86 2457.38 1343.92C2479.22 1340.14 2520.96 1332.92 2565.27 1346.43C2608.57 1359.56 2613.33 1380 2645.41 1380.55C2679.88 1381.28 2704.03 1358.03 2707.3 1354.65C2730.08 1331.6 2720.48 1311.23 2729.34 1264.9C2737.02 1225.36 2745.33 1182.22 2782.77 1159.66C2810.62 1142.92 2842.44 1144.96 2905.57 1148.95C2974.5 1153.47 3022.25 1156.42 3042.8 1184.73C3062.5 1211.81 3051.85 1254.57 3029.67 1260.25L3028.93 1259.91Z" fill="#D49634"/>
<path d="M-542.32 7901.61C-521.542 7881.82 -473.643 7920.24 -406.805 7899.28C-366.44 7886.65 -321.504 7852.72 -315.593 7817.67C-309.753 7782.42 -348.355 7774.52 -391.335 7706.21C-417.734 7664.44 -441.999 7625.56 -422.613 7597.81C-401.558 7567.63 -337.447 7562.05 -267.685 7555.82C-208.229 7550.53 -203.888 7558.13 -170.665 7548.29C-157.695 7544.56 -82.5783 7520.86 -58.3743 7470.11C-49.1825 7450.81 -53.1707 7439.44 -36.1665 7410.48C-18.8424 7381.63 -4.41762 7374.87 0.805566 7373C14.8403 7367.51 27.2458 7370.16 44.1655 7373.71C134.344 7392.18 126.736 7388.05 158.978 7397.77C212.477 7413.83 219.839 7421.25 223.185 7429.2C229.522 7444.09 219.222 7454.63 216.073 7475.2C211.686 7504.22 227.684 7511.52 259.711 7570.95C291.133 7629.44 306.756 7658.84 305.421 7682.19C305.034 7688.27 303.658 7702.71 313.404 7714.55C319.771 7722.33 330.473 7728.1 349.347 7731.63C385.745 7738.04 406.991 7726.77 439.792 7723.72C496.547 7718.71 500.511 7746.79 557.589 7746.71C565.977 7746.68 626.751 7745.95 671.473 7711.41C686.889 7699.49 692.425 7686.53 704.634 7662.26C725.965 7620.09 730.745 7593 740.85 7558.73C760.034 7494.46 769.003 7461.75 792.338 7439.67C838.476 7396.39 878.402 7416.85 939.283 7365.32C971.003 7338.41 971.348 7323.42 1015.57 7289.06C1028.29 7279.02 1053.94 7259.54 1086.52 7244.68C1151.43 7215.03 1175.61 7236.1 1253.4 7217.62C1303.75 7205.53 1342.23 7185.12 1417.58 7145.33C1469.27 7117.9 1491.76 7101.39 1533.16 7095.71C1573.32 7090.47 1574.32 7102.92 1621.84 7101.91C1664.63 7101 1705.7 7087.2 1786.57 7059.16C1857.25 7034.76 1857 7030.05 1878.96 7028.82C1915.14 7026.61 1946.96 7041.52 2010.35 7071.42C2047.89 7089.07 2069.75 7099.54 2094.11 7120.32C2121.67 7143.84 2115.71 7149.17 2141.88 7171.13C2179.22 7202.58 2192.89 7192.88 2237.7 7226.47C2273.4 7253.24 2270.99 7263.94 2296.3 7270.66C2321.29 7277.26 2345.7 7272.63 2355.38 7287.46C2361.5 7296.94 2355.96 7305.09 2363.85 7311.64C2374.49 7320.41 2396.09 7314.96 2407.21 7312.35C2443.03 7304.33 2478.97 7308.61 2514.9 7306.49C2564.3 7303.67 2607.33 7301.06 2650.85 7314.98C2694.28 7328.7 2689.25 7343.08 2751.78 7365.74C2808.55 7386.34 2830.41 7380.81 2839.18 7377.89C2870.98 7367.19 2882.66 7340.6 2897.16 7343.64C2909.89 7346.4 2914.06 7370.29 2906.43 7389.26C2895.61 7416.69 2860.15 7433.73 2834.21 7439.59C2799.78 7447.57 2772.83 7437.78 2720.26 7417.96C2675.43 7401.09 2666.78 7391.6 2621.81 7374.32C2570.12 7354.64 2558.61 7348.93 2539.95 7349.21C2510.52 7349.91 2501.36 7360.51 2462.66 7365.91C2429.86 7370.56 2405.58 7367.59 2382.44 7364.67C2313.27 7355.83 2262.68 7332.09 2233.82 7320.02C2102.21 7265.61 2051.77 7303.8 1929.75 7249.61C1914.86 7243.05 1884.56 7220.51 1819.07 7180.62C1795.28 7166.27 1781.84 7158.27 1762.12 7160.31C1730.28 7163.7 1718.5 7189.19 1671.81 7206.14C1652.9 7212.91 1638.4 7214.67 1609.19 7217.59C1543.87 7224.51 1536.33 7212.58 1482.63 7216.71C1422.64 7221.27 1369.56 7240.74 1353.46 7246.73C1310.4 7262.84 1304.08 7271.96 1276.61 7274.25C1235.56 7277.75 1228.33 7259.52 1186.22 7263.17C1153.67 7266.14 1128.73 7279.64 1106.38 7291.76C1073.91 7309.34 1045.45 7324.79 1036.72 7349.41C1026.86 7377.18 1053.56 7385.46 1057.82 7428.76C1060.32 7455.07 1055.56 7504.58 1023.98 7522.29C995.236 7538.53 974.533 7511.41 905.267 7515.86C886.396 7517.13 826.442 7520.99 787.124 7558.17C769.685 7574.71 763.156 7591.22 755.528 7610.19C730.834 7672.32 756.829 7692.97 736.131 7725.77C708.972 7768.88 633.67 7781.67 588.823 7789.49C543.905 7797.12 527.375 7792.29 440.515 7793.66C341.998 7795.33 346.802 7803.44 319.255 7799.13C250.441 7788.09 177.764 7740.48 170.613 7678.55C166.501 7642.06 188.566 7633.93 183.129 7581.68C179.335 7543.7 164.177 7516.43 153.501 7497.15C136.848 7467.21 128.486 7452.14 107.866 7442.83C83.5841 7431.86 47.1895 7430.25 18.6959 7444.8C1.57124 7453.45 1.8604 7460.66 -37.3831 7502.85C-59.3311 7526.49 -70.2693 7538.41 -84.2647 7549.59C-101.492 7563.54 -134.42 7590.2 -179.692 7600C-223.898 7609.66 -238.018 7594.13 -266.298 7609.29C-296.745 7625.46 -306.497 7657.53 -307.702 7662.08C-316.353 7693.31 -298.041 7706.42 -283.19 7751.18C-270.618 7789.45 -256.835 7831.16 -278.525 7869.12C-294.676 7897.31 -323.455 7911.05 -380.514 7938.34C-442.903 7968 -486.035 7988.71 -517.783 7974.01C-548.18 7959.97 -559.724 7917.45 -543.137 7901.67L-542.32 7901.61Z" fill="#47650C"/>
<path d="M3203.93 6684.91C3176.14 6692.06 3153.05 6635.16 3084.47 6620.87C3043.08 6612.22 2987.3 6619.93 2965.05 6647.65C2942.76 6675.58 2972.62 6701.3 2976.84 6781.89C2979.52 6831.24 2981.75 6877.01 2951.29 6891.79C2918.19 6907.88 2859.5 6881.49 2795.55 6852.91C2741.07 6828.54 2740.98 6819.79 2707.17 6812.18C2694.03 6809.12 2616.89 6793.18 2571.02 6825.69C2553.58 6838.06 2551.52 6849.94 2522.55 6866.93C2493.37 6883.67 2477.47 6882.54 2472 6881.63C2457.07 6879.57 2447.53 6871.21 2434.49 6859.87C2364.76 6799.77 2369.39 6807.09 2345.98 6782.88C2307.1 6742.78 2304.29 6732.7 2305.25 6724.13C2306.97 6708.05 2321.11 6703.86 2333.88 6687.44C2351.86 6664.25 2341.45 6650.07 2342.47 6582.57C2343.55 6516.17 2344.24 6482.89 2356.79 6463.16C2360.1 6458.03 2368.34 6446.1 2365.6 6431.01C2363.84 6421.11 2357.31 6410.86 2342.55 6398.57C2313.89 6375.23 2289.85 6374.71 2259.72 6361.39C2207.73 6338.08 2217.96 6311.63 2168.09 6283.88C2160.75 6279.82 2107.33 6250.82 2051.45 6259.17C2032.17 6262.06 2021.02 6270.68 1998.53 6285.91C1959.35 6312.33 1941.96 6333.66 1916.43 6358.65C1868.35 6405.41 1844.57 6429.6 1813.43 6437.5C1752.05 6452.79 1727.16 6415.45 1648.88 6430.76C1608.07 6438.79 1600.46 6451.71 1545.1 6460.15C1529.1 6462.72 1497.21 6467.22 1461.51 6464.31C1390.38 6458.55 1379.54 6428.36 1302.62 6406.57C1252.77 6392.57 1209.22 6391.64 1124.03 6389.64C1065.52 6388.38 1037.84 6391.84 998.923 6376.61C961.311 6361.6 966.504 6350.24 924.526 6327.96C886.72 6307.89 844.131 6299.91 759.85 6284.97C686.252 6271.81 684.175 6276.04 664.398 6266.41C631.734 6250.7 611.221 6222.17 570.454 6165.16C546.285 6131.44 532.298 6111.64 521.16 6081.63C508.565 6047.65 516.378 6045.9 504.232 6013.97C486.967 5968.3 470.296 5970.11 447.552 5918.94C429.438 5878.15 436.757 5869.99 417.934 5851.79C399.335 5833.84 375.765 5825.97 374.546 5808.31C373.821 5797.05 382.635 5792.63 378.935 5783.07C373.928 5770.22 352.408 5764.45 341.424 5761.31C306.238 5750.85 276.953 5729.59 244.55 5713.92C200.042 5692.3 161.196 5673.59 129.994 5640.22C98.7547 5607.07 110.165 5596.97 66.6171 5546.7C27.0962 5501.03 5.3151 5495.21 -3.76845 5493.47C-36.7519 5487.31 -59.9106 5504.84 -71.0908 5495.11C-80.855 5486.5 -72.8517 5463.6 -56.9431 5450.76C-34.1213 5432.09 5.14599 5434.5 30.6511 5442.03C64.6079 5451.85 83.3614 5473.53 119.603 5516.47C150.513 5553.06 153.435 5565.56 184.271 5602.57C219.805 5644.96 227.079 5655.56 243.505 5664.41C269.541 5678.15 282.708 5673.36 319.128 5687.51C350.036 5699.44 369.784 5713.87 388.562 5727.7C444.638 5769.15 477.237 5814.54 496.553 5839.15C584.931 5950.83 647.59 5942.08 727.698 6048.87C737.506 6061.86 752.968 6096.31 790.698 6163.08C804.469 6187.2 812.305 6200.73 830.517 6208.58C859.974 6221.14 882.688 6204.63 931.714 6212.59C951.519 6215.9 965.037 6221.43 991.963 6233.13C1052.37 6258.93 1053.13 6273.03 1102.04 6295.6C1156.63 6320.86 1212.47 6329.75 1229.45 6332.37C1274.9 6339.3 1284.87 6334.41 1309.97 6345.81C1347.51 6362.77 1344.93 6382.2 1383.48 6399.55C1413.35 6412.83 1441.71 6413.2 1467.13 6413.52C1504.05 6414.01 1536.43 6414.39 1556.05 6397.15C1578.2 6377.71 1558.93 6357.46 1576.32 6317.59C1586.96 6293.39 1615.26 6252.49 1651.47 6252.42C1684.48 6252.26 1689.33 6286.03 1751.98 6315.91C1769.07 6324.01 1823.3 6349.87 1875.76 6336.58C1899.05 6330.64 1912.8 6319.4 1928.71 6306.56C1980.56 6264.36 1967.93 6233.66 2001.99 6215.11C2046.73 6190.71 2118.7 6216.26 2161.68 6231.29C2204.61 6246.54 2216.69 6258.81 2293.2 6299.96C2380.02 6346.54 2379.78 6337.12 2401.73 6354.32C2456.43 6397.5 2496.67 6474.5 2472.72 6532.06C2458.52 6565.92 2435.29 6562.27 2414.56 6610.54C2399.36 6645.54 2399.29 6676.75 2399.22 6698.78C2399.16 6733.04 2399.11 6750.28 2412.57 6768.46C2428.42 6789.88 2459.42 6809.02 2491.39 6810.21C2510.56 6811.01 2513.82 6804.57 2568.65 6786.88C2599.34 6776.94 2614.7 6771.86 2632.38 6768.92C2654.22 6765.14 2695.96 6757.92 2740.27 6771.43C2783.57 6784.56 2788.33 6805 2820.41 6805.55C2854.88 6806.28 2879.03 6783.03 2882.3 6779.65C2905.08 6756.6 2895.48 6736.23 2904.34 6689.9C2912.02 6650.36 2920.33 6607.22 2957.77 6584.66C2985.62 6567.92 3017.44 6569.96 3080.57 6573.95C3149.5 6578.47 3197.25 6581.42 3217.8 6609.73C3237.5 6636.81 3226.85 6679.57 3204.67 6685.25L3203.93 6684.91Z" fill="#D49634"/>
<path d="M2920.93 13048.9C2893.14 13056.1 2870.05 12999.2 2801.47 12984.9C2760.08 12976.2 2704.3 12983.9 2682.05 13011.6C2659.76 13039.6 2689.62 13065.3 2693.84 13145.9C2696.52 13195.2 2698.75 13241 2668.29 13255.8C2635.19 13271.9 2576.5 13245.5 2512.55 13216.9C2458.07 13192.5 2457.98 13183.8 2424.17 13176.2C2411.03 13173.1 2333.89 13157.2 2288.02 13189.7C2270.58 13202.1 2268.52 13213.9 2239.55 13230.9C2210.37 13247.7 2194.47 13246.5 2189 13245.6C2174.07 13243.6 2164.53 13235.2 2151.49 13223.9C2081.76 13163.8 2086.39 13171.1 2062.98 13146.9C2024.1 13106.8 2021.29 13096.7 2022.25 13088.1C2023.97 13072 2038.11 13067.9 2050.88 13051.4C2068.86 13028.2 2058.45 13014.1 2059.47 12946.6C2060.55 12880.2 2061.24 12846.9 2073.79 12827.2C2077.1 12822 2085.34 12810.1 2082.6 12795C2080.84 12785.1 2074.31 12774.9 2059.55 12762.6C2030.89 12739.2 2006.85 12738.7 1976.72 12725.4C1924.73 12702.1 1934.96 12675.6 1885.09 12647.9C1877.75 12643.8 1824.33 12614.8 1768.45 12623.2C1749.17 12626.1 1738.02 12634.7 1715.53 12649.9C1676.35 12676.3 1658.96 12697.7 1633.43 12722.6C1585.35 12769.4 1561.57 12793.6 1530.43 12801.5C1469.05 12816.8 1444.16 12779.5 1365.88 12794.8C1325.07 12802.8 1317.46 12815.7 1262.1 12824.1C1246.1 12826.7 1214.21 12831.2 1178.51 12828.3C1107.38 12822.6 1096.54 12792.4 1019.62 12770.6C969.765 12756.6 926.22 12755.6 841.029 12753.6C782.522 12752.4 754.838 12755.8 715.923 12740.6C678.311 12725.6 683.504 12714.2 641.526 12692C603.72 12671.9 561.131 12663.9 476.85 12649C403.252 12635.8 401.175 12640 381.398 12630.4C348.734 12614.7 328.221 12586.2 287.454 12529.2C263.285 12495.4 249.298 12475.6 238.16 12445.6C225.565 12411.7 233.378 12409.9 221.232 12378C203.967 12332.3 187.296 12334.1 164.552 12282.9C146.438 12242.2 153.757 12234 134.934 12215.8C116.335 12197.8 92.7647 12190 91.5462 12172.3C90.8215 12161.1 99.6349 12156.6 95.9355 12147.1C90.9284 12134.2 69.4082 12128.4 58.4244 12125.3C23.2384 12114.8 -6.04733 12093.6 -38.4502 12077.9C-82.9578 12056.3 -121.804 12037.6 -153.006 12004.2C-184.245 11971.1 -172.835 11961 -216.383 11910.7C-255.904 11865 -277.685 11859.2 -286.768 11857.5C-319.752 11851.3 -342.911 11868.8 -354.091 11859.1C-363.855 11850.5 -355.852 11827.6 -339.943 11814.8C-317.121 11796.1 -277.854 11798.5 -252.349 11806C-218.392 11815.8 -199.639 11837.5 -163.397 11880.5C-132.487 11917.1 -129.565 11929.6 -98.7286 11966.6C-63.1949 12009 -55.9212 12019.6 -39.4949 12028.4C-13.4591 12042.1 -0.292073 12037.4 36.1279 12051.5C67.0362 12063.4 86.7837 12077.9 105.562 12091.7C161.638 12133.2 194.237 12178.5 213.553 12203.2C301.931 12314.8 364.59 12306.1 444.698 12412.9C454.506 12425.9 469.968 12460.3 507.698 12527.1C521.469 12551.2 529.305 12564.7 547.517 12572.6C576.974 12585.1 599.688 12568.6 648.714 12576.6C668.519 12579.9 682.037 12585.4 708.963 12597.1C769.369 12622.9 770.135 12637 819.035 12659.6C873.634 12684.9 929.473 12693.7 946.448 12696.4C991.9 12703.3 1001.87 12698.4 1026.97 12709.8C1064.51 12726.8 1061.93 12746.2 1100.48 12763.6C1130.35 12776.8 1158.71 12777.2 1184.13 12777.5C1221.05 12778 1253.43 12778.4 1273.05 12761.1C1295.2 12741.7 1275.93 12721.5 1293.32 12681.6C1303.96 12657.4 1332.26 12616.5 1368.47 12616.4C1401.48 12616.3 1406.33 12650 1468.98 12679.9C1486.07 12688 1540.3 12713.9 1592.76 12700.6C1616.05 12694.6 1629.8 12683.4 1645.71 12670.6C1697.56 12628.4 1684.93 12597.7 1718.99 12579.1C1763.73 12554.7 1835.7 12580.3 1878.68 12595.3C1921.61 12610.5 1933.69 12622.8 2010.2 12664C2097.02 12710.5 2096.78 12701.1 2118.73 12718.3C2173.43 12761.5 2213.67 12838.5 2189.72 12896.1C2175.52 12929.9 2152.29 12926.3 2131.56 12974.5C2116.36 13009.5 2116.29 13040.7 2116.22 13062.8C2116.16 13097 2116.11 13114.3 2129.57 13132.5C2145.42 13153.9 2176.42 13173 2208.39 13174.2C2227.56 13175 2230.82 13168.6 2285.65 13150.9C2316.34 13140.9 2331.7 13135.9 2349.38 13132.9C2371.22 13129.1 2412.96 13121.9 2457.27 13135.4C2500.57 13148.6 2505.33 13169 2537.41 13169.5C2571.88 13170.3 2596.03 13147 2599.3 13143.6C2622.08 13120.6 2612.48 13100.2 2621.34 13053.9C2629.02 13014.4 2637.33 12971.2 2674.77 12948.7C2702.62 12931.9 2734.44 12934 2797.57 12937.9C2866.5 12942.5 2914.25 12945.4 2934.8 12973.7C2954.5 13000.8 2943.85 13043.6 2921.67 13049.3L2920.93 13048.9Z" fill="#47650C"/>
<path d="M3067.93 18550.9C3040.14 18558.1 3017.05 18501.2 2948.47 18486.9C2907.08 18478.2 2851.3 18485.9 2829.05 18513.6C2806.76 18541.6 2836.62 18567.3 2840.84 18647.9C2843.52 18697.2 2845.75 18743 2815.29 18757.8C2782.19 18773.9 2723.5 18747.5 2659.55 18718.9C2605.07 18694.5 2604.98 18685.8 2571.17 18678.2C2558.03 18675.1 2480.89 18659.2 2435.02 18691.7C2417.58 18704.1 2415.52 18715.9 2386.55 18732.9C2357.37 18749.7 2341.47 18748.5 2336 18747.6C2321.07 18745.6 2311.53 18737.2 2298.49 18725.9C2228.76 18665.8 2233.39 18673.1 2209.98 18648.9C2171.1 18608.8 2168.29 18598.7 2169.25 18590.1C2170.97 18574 2185.11 18569.9 2197.88 18553.4C2215.86 18530.2 2205.45 18516.1 2206.47 18448.6C2207.55 18382.2 2208.24 18348.9 2220.79 18329.2C2224.1 18324 2232.34 18312.1 2229.6 18297C2227.84 18287.1 2221.31 18276.9 2206.55 18264.6C2177.89 18241.2 2153.85 18240.7 2123.72 18227.4C2071.73 18204.1 2081.96 18177.6 2032.09 18149.9C2024.75 18145.8 1971.33 18116.8 1915.45 18125.2C1896.17 18128.1 1885.02 18136.7 1862.53 18151.9C1823.35 18178.3 1805.96 18199.7 1780.43 18224.6C1732.35 18271.4 1708.57 18295.6 1677.43 18303.5C1616.05 18318.8 1591.16 18281.5 1512.88 18296.8C1472.07 18304.8 1464.46 18317.7 1409.1 18326.1C1393.1 18328.7 1361.21 18333.2 1325.51 18330.3C1254.38 18324.6 1243.54 18294.4 1166.62 18272.6C1116.77 18258.6 1073.22 18257.6 988.029 18255.6C929.522 18254.4 901.838 18257.8 862.923 18242.6C825.311 18227.6 830.504 18216.2 788.526 18194C750.72 18173.9 708.131 18165.9 623.85 18151C550.252 18137.8 548.175 18142 528.398 18132.4C495.734 18116.7 475.221 18088.2 434.454 18031.2C410.285 17997.4 396.298 17977.6 385.16 17947.6C372.565 17913.7 380.378 17911.9 368.232 17880C350.967 17834.3 334.296 17836.1 311.552 17784.9C293.438 17744.2 300.757 17736 281.934 17717.8C263.335 17699.8 239.765 17692 238.546 17674.3C237.821 17663.1 246.635 17658.6 242.935 17649.1C237.928 17636.2 216.408 17630.4 205.424 17627.3C170.238 17616.8 140.953 17595.6 108.55 17579.9C64.0422 17558.3 25.1964 17539.6 -6.00596 17506.2C-37.2453 17473.1 -25.8354 17463 -69.3829 17412.7C-108.904 17367 -130.685 17361.2 -139.768 17359.5C-172.752 17353.3 -195.911 17370.8 -207.091 17361.1C-216.855 17352.5 -208.852 17329.6 -192.943 17316.8C-170.121 17298.1 -130.854 17300.5 -105.349 17308C-71.3921 17317.8 -52.6386 17339.5 -16.397 17382.5C14.5128 17419.1 17.4355 17431.6 48.2714 17468.6C83.8051 17511 91.0788 17521.6 107.505 17530.4C133.541 17544.1 146.708 17539.4 183.128 17553.5C214.036 17565.4 233.784 17579.9 252.562 17593.7C308.638 17635.2 341.237 17680.5 360.553 17705.2C448.931 17816.8 511.59 17808.1 591.698 17914.9C601.506 17927.9 616.968 17962.3 654.698 18029.1C668.469 18053.2 676.305 18066.7 694.517 18074.6C723.974 18087.1 746.688 18070.6 795.714 18078.6C815.519 18081.9 829.037 18087.4 855.963 18099.1C916.369 18124.9 917.135 18139 966.035 18161.6C1020.63 18186.9 1076.47 18195.7 1093.45 18198.4C1138.9 18205.3 1148.87 18200.4 1173.97 18211.8C1211.51 18228.8 1208.93 18248.2 1247.48 18265.6C1277.35 18278.8 1305.71 18279.2 1331.13 18279.5C1368.05 18280 1400.43 18280.4 1420.05 18263.1C1442.2 18243.7 1422.93 18223.5 1440.32 18183.6C1450.96 18159.4 1479.26 18118.5 1515.47 18118.4C1548.48 18118.3 1553.33 18152 1615.98 18181.9C1633.07 18190 1687.3 18215.9 1739.76 18202.6C1763.05 18196.6 1776.8 18185.4 1792.71 18172.6C1844.56 18130.4 1831.93 18099.7 1865.99 18081.1C1910.73 18056.7 1982.7 18082.3 2025.68 18097.3C2068.61 18112.5 2080.69 18124.8 2157.2 18166C2244.02 18212.5 2243.78 18203.1 2265.73 18220.3C2320.43 18263.5 2360.67 18340.5 2336.72 18398.1C2322.52 18431.9 2299.29 18428.3 2278.56 18476.5C2263.36 18511.5 2263.29 18542.7 2263.22 18564.8C2263.16 18599 2263.11 18616.3 2276.57 18634.5C2292.42 18655.9 2323.42 18675 2355.39 18676.2C2374.56 18677 2377.82 18670.6 2432.65 18652.9C2463.34 18642.9 2478.7 18637.9 2496.38 18634.9C2518.22 18631.1 2559.96 18623.9 2604.27 18637.4C2647.57 18650.6 2652.33 18671 2684.41 18671.5C2718.88 18672.3 2743.03 18649 2746.3 18645.6C2769.08 18622.6 2759.48 18602.2 2768.34 18555.9C2776.02 18516.4 2784.33 18473.2 2821.77 18450.7C2849.62 18433.9 2881.44 18436 2944.57 18439.9C3013.5 18444.5 3061.25 18447.4 3081.8 18475.7C3101.5 18502.8 3090.85 18545.6 3068.67 18551.3L3067.93 18550.9Z" fill="#47650C"/>
</g>
<defs>
<clipPath id="clip0_680_322">
<rect width="2487" height="20985" fill="white"/>
</clipPath>
</defs>
</svg>
