<svg width="1906" height="4254" viewBox="0 0 1906 4254" fill="none" xmlns="http://www.w3.org/2000/svg">
<g clip-path="url(#clip0_689_319)">
<rect width="1906" height="4254" fill="#FDFCFC"/>
<path d="M2242.04 1172.06C2227.09 1175.51 2218.92 1146.8 2184.18 1139.27C2163.21 1134.7 2133.64 1138.29 2120.18 1152.1C2106.68 1166.02 2120.48 1179.1 2117.21 1219.61C2115.26 1244.42 2113.31 1267.43 2096.45 1274.7C2078.12 1282.61 2049.35 1269.04 2017.99 1254.35C1991.27 1241.82 1991.82 1237.43 1974.73 1233.43C1968.09 1231.82 1929 1223.41 1902.91 1239.51C1892.99 1245.63 1891.11 1251.59 1874.87 1259.98C1858.54 1268.23 1850.34 1267.59 1847.55 1267.1C1839.92 1265.99 1835.52 1261.74 1829.49 1255.97C1797.26 1225.41 1799.17 1229.11 1788.62 1216.83C1771.1 1196.47 1770.32 1191.4 1771.4 1187.09C1773.39 1179.02 1781.03 1176.99 1788.8 1168.81C1799.74 1157.25 1795.28 1150.07 1800.38 1116.16C1805.45 1082.8 1808.07 1066.09 1815.95 1056.24C1818.01 1053.68 1823.12 1047.72 1822.71 1040.13C1822.46 1035.15 1819.76 1029.96 1812.91 1023.71C1799.57 1011.83 1787.09 1011.45 1772.3 1004.59C1746.81 992.614 1753.93 979.377 1729.84 965.173C1726.29 963.093 1700.45 948.244 1670.78 952.15C1660.54 953.504 1654.15 957.775 1641.41 965.313C1619.21 978.383 1608.71 989.009 1593.72 1001.43C1565.51 1024.68 1551.48 1036.71 1534.73 1040.51C1501.73 1047.88 1491.3 1028.99 1449.5 1036.27C1427.7 1040.1 1422.86 1046.55 1393.46 1050.5C1384.96 1051.71 1368.04 1053.8 1349.65 1052.16C1313 1048.89 1309.41 1033.67 1270.83 1022.32C1245.82 1015.03 1223.2 1014.33 1178.98 1012.88C1148.59 1011.94 1133.94 1013.54 1114.71 1005.68C1096.14 997.945 1099.62 992.266 1079.27 980.849C1060.94 970.571 1039.31 966.338 996.432 958.391C958.999 951.396 957.63 953.514 947.984 948.572C932.041 940.507 923.294 926.067 905.932 897.209C895.634 880.14 889.693 870.12 885.93 854.979C881.675 837.844 885.862 837.005 881.704 820.897C875.811 797.862 867.008 798.68 858.634 772.854C851.969 752.266 856.334 748.202 847.767 738.958C839.299 729.843 827.558 725.769 828.122 716.886C828.508 711.228 833.398 709.052 832.12 704.225C830.384 697.747 819.569 694.733 814.063 693.097C796.449 687.659 782.641 676.824 766.83 668.783C745.12 657.689 726.16 648.086 712.175 631.158C698.157 614.336 704.784 609.321 685.517 583.835C668.035 560.682 657.087 557.645 652.474 556.726C635.716 553.458 622.468 562.144 617.305 557.199C612.805 552.82 618.526 541.359 627.681 534.989C640.832 525.725 661.117 527.139 673.888 531.056C690.905 536.165 699.2 547.159 715.159 568.923C728.773 587.47 729.448 593.762 742.994 612.522C758.623 634.004 761.691 639.368 769.645 643.902C782.271 650.938 789.453 648.601 807.458 655.904C822.744 662.057 832.049 669.41 840.889 676.457C867.279 697.575 881.175 720.55 889.564 733.019C928.011 789.589 961.234 785.52 995.705 839.598C999.932 846.175 1005.65 863.565 1020.76 897.307C1026.3 909.502 1029.46 916.342 1038.41 920.377C1052.9 926.84 1065.85 918.663 1090.84 922.921C1100.93 924.685 1107.59 927.535 1120.82 933.553C1150.53 946.831 1149.97 953.919 1173.9 965.514C1200.62 978.494 1229.1 983.249 1237.76 984.651C1260.96 988.371 1266.48 985.969 1278.78 991.824C1297.18 1000.54 1294.52 1010.29 1313.41 1019.21C1328.06 1026.04 1342.81 1026.37 1356.02 1026.66C1375.22 1027.1 1392.05 1027.46 1403.44 1018.9C1416.29 1009.25 1407.63 998.977 1419.39 979.03C1426.58 966.926 1444.09 946.524 1462.95 946.679C1480.15 946.768 1480.39 963.762 1510.98 979.104C1519.33 983.259 1545.82 996.535 1574.03 990.131C1586.56 987.27 1594.49 981.695 1603.64 975.325C1633.51 954.389 1629.02 938.897 1648.01 929.757C1672.96 917.729 1708.71 930.941 1730.07 938.718C1751.39 946.601 1756.85 952.831 1793.9 973.905C1835.95 997.762 1836.47 993.025 1846.73 1001.78C1872.29 1023.76 1888.02 1062.66 1871.64 1091.46C1861.95 1108.4 1850.1 1106.44 1836.03 1130.59C1825.74 1148.1 1823.59 1163.78 1822.05 1174.85C1819.7 1192.06 1818.5 1200.72 1824.28 1209.93C1831.08 1220.77 1845.92 1230.55 1862.49 1231.32C1872.42 1231.82 1874.56 1228.6 1904.31 1219.99C1920.96 1215.16 1929.31 1212.69 1938.71 1211.3C1950.34 1209.52 1972.57 1206.11 1994.73 1213.13C2016.39 1219.95 2017.48 1230.24 2034.15 1230.69C2052.04 1231.23 2066.2 1219.67 2068.13 1217.99C2081.56 1206.53 2077.94 1196.24 2085.7 1173.01C2092.38 1153.19 2099.63 1131.55 2120.66 1120.41C2136.3 1112.14 2152.73 1113.33 2185.33 1115.67C2220.92 1118.3 2245.59 1120.03 2254.37 1134.36C2262.79 1148.07 2254.34 1169.5 2242.41 1172.24L2242.04 1172.06Z" fill="#3A4E82"/>
<path d="M2372.13 3100.63C2370.29 3112.27 2330.01 3100.4 2305.78 3118.19C2291.13 3128.92 2283.35 3150.02 2295.44 3166.89C2307.66 3183.84 2330.23 3182.78 2380.89 3209.02C2411.92 3225.05 2440.65 3240 2442.92 3255.15C2445.4 3271.61 2415.93 3281.99 2383.93 3293.34C2356.64 3303.01 2351.23 3300.04 2338.93 3308.62C2334.09 3311.92 2306.92 3331.98 2316.65 3358.3C2320.36 3368.31 2327.22 3373.06 2331.19 3388.47C2334.95 3403.87 2330.68 3408.74 2328.89 3410.24C2324.26 3414.47 2316.96 3414.76 2307.03 3415.19C2254.29 3417.65 2259.84 3418.63 2239.65 3418.08C2206.17 3417.19 2199.33 3414.67 2194.26 3411.41C2184.73 3405.33 2185.32 3399.21 2178.07 3389.36C2167.8 3375.46 2156.72 3374.04 2115.32 3350.56C2074.61 3327.44 2054.24 3315.8 2044.9 3304.88C2042.48 3302.03 2036.97 3295.21 2027.05 3290.94C2020.55 3288.13 2012.75 3286.78 2001.86 3287.45C1981.02 3288.93 1975.3 3296.7 1960.3 3302.1C1934.24 3311.31 1920.23 3298.86 1891.9 3305.85C1887.74 3306.88 1857.85 3314.61 1850.43 3335.96C1847.88 3343.33 1850.69 3349.98 1855.03 3362.64C1862.51 3384.66 1871.76 3397.73 1881.43 3414.74C1899.46 3446.68 1909.03 3462.85 1906.9 3475.86C1902.53 3501.41 1873.91 3496.84 1865.75 3527.99C1861.52 3544.25 1867.78 3551.19 1860.53 3572.4C1858.52 3578.58 1854.13 3590.67 1844.31 3601.48C1824.76 3623.04 1803.71 3616.28 1772.97 3634.26C1753.13 3645.95 1742.76 3660.04 1722.37 3687.54C1708.45 3706.47 1704.35 3716.81 1686.21 3724.47C1668.5 3731.76 1662.66 3726.15 1639.47 3732.4C1618.6 3738.03 1604.1 3749.38 1575.94 3772.14C1551.27 3791.98 1553.42 3794.12 1543.03 3797.36C1526 3802.78 1503.79 3799.79 1459.46 3793.73C1433.23 3790.17 1417.88 3788.01 1396.86 3781.4C1373.08 3773.92 1373.75 3770.73 1351.33 3763.8C1319.28 3753.86 1316.64 3759.99 1279.98 3749.97C1250.75 3741.98 1247.36 3736.76 1231.9 3736.75C1216.65 3736.75 1206.5 3741.85 1195.33 3736.2C1188.23 3732.58 1187.48 3728.15 1180.75 3726.09C1171.7 3723.34 1163.3 3728.48 1158.89 3731.04C1144.53 3739.09 1124.84 3741.49 1107.89 3746.84C1084.55 3754.16 1064.27 3760.59 1036.68 3759.48C1009.21 3758.45 1005.54 3751.21 964.747 3748.38C927.694 3745.8 919.208 3751.01 916.096 3753.42C904.88 3762.22 910.482 3775.89 901.97 3776.25C894.462 3776.53 882.142 3766.03 877.799 3756.37C871.413 3742.41 881.728 3730.25 892.108 3724.39C905.797 3716.52 923.387 3717.75 958.018 3720.48C987.536 3722.8 995.899 3726.12 1025.66 3728.61C1059.79 3731.39 1067.96 3732.61 1077.12 3730.22C1091.44 3726.31 1091.45 3720.31 1108.37 3713.12C1122.68 3706.98 1136.01 3705.39 1148.77 3703.92C1186.94 3699.58 1222.26 3704.36 1241.78 3706.4C1330.53 3715.45 1339.22 3691.72 1423.1 3701.83C1433.31 3703.04 1458.04 3709.74 1507.7 3720.15C1525.67 3723.86 1535.78 3725.91 1544.71 3722.57C1559.08 3717.13 1554.01 3703.96 1569.94 3690.47C1576.43 3685.05 1582.89 3682.47 1596.15 3677.57C1625.65 3666.43 1634.52 3671.01 1659.43 3662.57C1687.29 3653.17 1705.32 3637.74 1710.75 3633.03C1725.25 3620.36 1724.48 3615.39 1737.15 3610.99C1756.05 3604.39 1767.46 3611.9 1786.83 3605.1C1801.73 3599.77 1808.34 3590.51 1814.25 3582.21C1822.85 3570.16 1830.36 3559.58 1824.14 3547.18C1817.13 3533.18 1800.32 3532.62 1779.63 3513.19C1767.1 3501.37 1748.24 3477.99 1756.34 3465.99C1763.66 3455.01 1785.58 3464.98 1818.1 3454.5C1826.93 3451.62 1855.07 3442.54 1858.67 3420.63C1860.25 3410.89 1856.41 3402.49 1852.06 3392.82C1837.69 3361.2 1815.92 3354.85 1812.14 3337.22C1807.15 3314.05 1839.09 3299 1858.03 3289.94C1877.08 3280.96 1887.37 3281.17 1929.95 3269.97C1978.2 3257.21 1972.33 3254.06 1987.87 3252.69C2026.8 3249.4 2083.34 3262.49 2113.46 3290.15C2131.15 3306.46 2123.67 3312.89 2148.78 3336.3C2166.95 3353.33 2186.18 3364.05 2199.75 3371.63C2220.87 3383.4 2231.49 3389.32 2245.73 3391.1C2262.5 3393.2 2281.28 3389.51 2289.2 3379.34C2294 3373.27 2290.77 3369.98 2292.18 3345.77C2292.95 3332.21 2293.28 3325.39 2295.43 3318.53C2298.02 3310.01 2302.95 3293.73 2321.24 3283.7C2339.07 3273.87 2352.75 3279.3 2360.3 3268.88C2368.51 3257.73 2359.6 3241.76 2358.24 3239.52C2349.15 3224.08 2334.43 3220.27 2307.85 3201.46C2285.19 3185.36 2260.45 3167.82 2254.96 3147.7C2250.89 3132.74 2259.3 3122.91 2275.96 3103.4C2294.25 3082.14 2306.8 3067.35 2328.89 3070.26C2350.02 3073.03 2373.99 3091.21 2372.51 3100.5L2372.13 3100.63Z" fill="#D49634"/>
<path d="M1483.04 3995.06C1468.09 3998.51 1459.92 3969.8 1425.18 3962.27C1404.21 3957.7 1374.64 3961.29 1361.18 3975.1C1347.68 3989.02 1361.48 4002.1 1358.21 4042.61C1356.26 4067.42 1354.31 4090.43 1337.45 4097.7C1319.12 4105.61 1290.35 4092.04 1258.99 4077.35C1232.27 4064.82 1232.82 4060.43 1215.73 4056.43C1209.09 4054.82 1170 4046.41 1143.91 4062.51C1133.99 4068.63 1132.11 4074.59 1115.87 4082.98C1099.54 4091.23 1091.34 4090.59 1088.55 4090.1C1080.92 4088.99 1076.52 4084.74 1070.49 4078.97C1038.26 4048.41 1040.17 4052.11 1029.62 4039.83C1012.1 4019.47 1011.32 4014.4 1012.4 4010.09C1014.39 4002.02 1022.03 3999.99 1029.8 3991.81C1040.74 3980.25 1036.28 3973.07 1041.38 3939.16C1046.45 3905.8 1049.07 3889.09 1056.95 3879.24C1059.01 3876.68 1064.12 3870.72 1063.71 3863.13C1063.46 3858.15 1060.76 3852.96 1053.91 3846.71C1040.57 3834.83 1028.09 3834.45 1013.3 3827.59C987.807 3815.61 994.929 3802.38 970.839 3788.17C967.293 3786.09 941.445 3771.24 911.776 3775.15C901.543 3776.5 895.152 3780.77 882.405 3788.31C860.208 3801.38 849.708 3812.01 834.719 3824.43C806.507 3847.68 792.482 3859.71 775.731 3863.51C742.729 3870.88 732.304 3851.99 690.502 3859.27C668.704 3863.1 663.865 3869.55 634.461 3873.5C625.956 3874.71 609.045 3876.8 590.654 3875.16C554.004 3871.89 550.407 3856.67 511.828 3845.32C486.816 3838.03 464.204 3837.33 419.976 3835.88C389.594 3834.94 374.943 3836.54 355.712 3828.68C337.143 3820.94 340.618 3815.27 320.27 3803.85C301.944 3793.57 280.308 3789.34 237.432 3781.39C199.999 3774.4 198.63 3776.51 188.984 3771.57C173.041 3763.51 164.294 3749.07 146.932 3720.21C136.634 3703.14 130.693 3693.12 126.93 3677.98C122.675 3660.84 126.862 3660 122.704 3643.9C116.811 3620.86 108.008 3621.68 99.6345 3595.85C92.9686 3575.27 97.334 3571.2 88.7669 3561.96C80.299 3552.84 68.5584 3548.77 69.1223 3539.89C69.5084 3534.23 74.3979 3532.05 73.1204 3527.23C71.3841 3520.75 60.5694 3517.73 55.0629 3516.1C37.4493 3510.66 23.6412 3499.82 7.83039 3491.78C-13.8802 3480.69 -32.8398 3471.09 -46.8248 3454.16C-60.8433 3437.34 -54.2164 3432.32 -73.4833 3406.83C-90.9654 3383.68 -101.913 3380.64 -106.526 3379.73C-123.284 3376.46 -136.532 3385.14 -141.695 3380.2C-146.195 3375.82 -140.474 3364.36 -131.319 3357.99C-118.168 3348.72 -97.8827 3350.14 -85.112 3354.06C-68.095 3359.17 -59.8003 3370.16 -43.8406 3391.92C-30.2268 3410.47 -29.5524 3416.76 -16.0059 3435.52C-0.377118 3457 2.69149 3462.37 10.6448 3466.9C23.2713 3473.94 30.4527 3471.6 48.4579 3478.9C63.7441 3485.06 73.0487 3492.41 81.8894 3499.46C108.279 3520.58 122.175 3543.55 130.564 3556.02C169.011 3612.59 202.234 3608.52 236.705 3662.6C240.932 3669.17 246.646 3686.57 261.765 3720.31C267.299 3732.5 270.462 3739.34 279.413 3743.38C293.902 3749.84 306.849 3741.66 331.84 3745.92C341.928 3747.69 348.593 3750.53 361.821 3756.55C391.526 3769.83 390.969 3776.92 414.903 3788.51C441.621 3801.49 470.096 3806.25 478.758 3807.65C501.957 3811.37 507.478 3808.97 519.777 3814.82C538.175 3823.54 535.516 3833.29 554.412 3842.21C569.065 3849.04 583.808 3849.37 597.024 3849.66C616.216 3850.1 633.051 3850.46 644.44 3841.9C657.293 3832.25 648.631 3821.98 660.393 3802.03C667.577 3789.93 685.086 3769.52 703.947 3769.68C721.149 3769.77 721.385 3786.76 751.98 3802.1C760.333 3806.26 786.818 3819.54 815.035 3813.13C827.565 3810.27 835.489 3804.69 844.644 3798.33C874.509 3777.39 870.016 3761.9 889.011 3752.76C913.961 3740.73 949.711 3753.94 971.068 3761.72C992.392 3769.6 997.849 3775.83 1034.9 3796.91C1076.95 3820.76 1077.47 3816.02 1087.73 3824.78C1113.29 3846.76 1129.02 3885.66 1112.64 3914.46C1102.95 3931.4 1091.1 3929.44 1077.03 3953.59C1066.74 3971.1 1064.59 3986.78 1063.05 3997.85C1060.7 4015.06 1059.5 4023.72 1065.28 4032.93C1072.08 4043.77 1086.92 4053.55 1103.49 4054.32C1113.42 4054.82 1115.56 4051.6 1145.31 4042.99C1161.96 4038.16 1170.31 4035.69 1179.71 4034.3C1191.34 4032.52 1213.57 4029.11 1235.73 4036.13C1257.39 4042.95 1258.48 4053.24 1275.15 4053.69C1293.04 4054.23 1307.2 4042.67 1309.13 4040.99C1322.56 4029.53 1318.94 4019.24 1326.7 3996.01C1333.38 3976.19 1340.63 3954.55 1361.66 3943.41C1377.3 3935.14 1393.73 3936.33 1426.33 3938.67C1461.92 3941.3 1486.59 3943.03 1495.37 3957.36C1503.79 3971.07 1495.34 3992.5 1483.41 3995.24L1483.04 3995.06Z" fill="#D49634"/>
</g>
<defs>
<clipPath id="clip0_689_319">
<rect width="1906" height="4254" fill="white"/>
</clipPath>
</defs>
</svg>
