<svg width="1291" height="750" viewBox="0 0 1291 750" fill="none" xmlns="http://www.w3.org/2000/svg">
<path d="M1627.04 644.063C1612.09 647.51 1603.92 618.802 1569.18 611.267C1548.21 606.702 1518.64 610.288 1505.18 624.099C1491.68 638.017 1505.48 651.096 1502.21 691.613C1500.26 716.42 1498.31 739.432 1481.45 746.699C1463.12 754.609 1434.35 741.044 1402.99 726.354C1376.27 713.823 1376.82 709.428 1359.73 705.43C1353.09 703.82 1314 695.413 1287.91 711.507C1277.99 717.631 1276.11 723.589 1259.87 731.976C1243.54 740.234 1235.34 739.586 1232.55 739.098C1224.92 737.988 1220.52 733.738 1214.49 727.97C1182.26 697.41 1184.17 701.112 1173.62 688.827C1156.1 668.473 1155.32 663.397 1156.4 659.095C1158.39 651.023 1166.03 648.992 1173.8 640.807C1184.74 629.247 1180.28 622.069 1185.38 588.159C1190.45 554.804 1193.07 538.085 1200.95 528.235C1203.01 525.678 1208.12 519.722 1207.71 512.129C1207.46 507.146 1204.76 501.958 1197.91 495.708C1184.57 483.833 1172.09 483.446 1157.3 476.594C1131.81 464.614 1138.93 451.377 1114.84 437.173C1111.29 435.093 1085.45 420.244 1055.78 424.15C1045.54 425.504 1039.15 429.775 1026.41 437.313C1004.21 450.383 993.708 461.009 978.719 473.432C950.507 496.677 936.482 508.707 919.731 512.514C886.729 519.878 876.304 500.99 834.502 508.275C812.704 512.097 807.865 518.548 778.461 522.5C769.956 523.707 753.045 525.801 734.654 524.157C698.004 520.891 694.407 505.668 655.828 494.318C630.816 487.025 608.204 486.327 563.976 484.879C533.594 483.945 518.943 485.537 499.712 477.683C481.143 469.945 484.618 464.266 464.27 452.849C445.944 442.571 424.308 438.338 381.432 430.391C343.999 423.396 342.63 425.514 332.984 420.572C317.041 412.507 308.294 398.067 290.932 369.209C280.634 352.14 274.693 342.12 270.93 326.979C266.675 309.844 270.863 309.005 266.704 292.897C260.811 269.862 252.008 270.68 243.634 244.854C236.969 224.266 241.334 220.202 232.767 210.958C224.299 201.843 212.558 197.769 213.122 188.886C213.508 183.228 218.398 181.052 217.12 176.225C215.384 169.747 204.569 166.733 199.063 165.097C181.449 159.659 167.641 148.824 151.83 140.783C130.12 129.689 111.16 120.086 97.1753 103.158C83.1567 86.3364 89.7836 81.3206 70.5167 55.8347C53.0345 32.6817 42.0869 29.6446 37.4743 28.7257C20.7163 25.4584 7.46761 34.1437 2.30528 29.1993C-2.19496 24.8198 3.52573 13.3585 12.6813 6.98865C25.8324 -2.27506 46.1173 -0.860797 58.888 3.05648C75.905 8.16539 84.1997 19.1586 100.159 40.9227C113.773 59.4698 114.448 65.7624 127.994 84.5224C143.623 106.004 146.691 111.368 154.645 115.902C167.271 122.938 174.453 120.601 192.458 127.904C207.744 134.057 217.049 141.41 225.889 148.457C252.279 169.575 266.175 192.55 274.564 205.019C313.011 261.589 346.234 257.52 380.705 311.598C384.932 318.175 390.646 335.565 405.765 369.307C411.299 381.502 414.462 388.342 423.413 392.377C437.902 398.84 450.849 390.663 475.84 394.921C485.928 396.685 492.593 399.535 505.821 405.553C535.526 418.831 534.969 425.919 558.903 437.514C585.621 450.494 614.096 455.249 622.758 456.651C645.957 460.371 651.478 457.969 663.777 463.824C682.175 472.543 679.516 482.294 698.412 491.212C713.065 498.04 727.808 498.373 741.024 498.664C760.216 499.101 777.051 499.463 788.44 490.901C801.293 481.249 792.631 470.977 804.393 451.03C811.577 438.926 829.086 418.524 847.947 418.679C865.149 418.768 865.385 435.762 895.98 451.104C904.333 455.259 930.818 468.535 959.035 462.131C971.565 459.27 979.489 453.695 988.644 447.325C1018.51 426.389 1014.02 410.897 1033.01 401.757C1057.96 389.729 1093.71 402.941 1115.07 410.718C1136.39 418.601 1141.85 424.831 1178.9 445.905C1220.95 469.762 1221.47 465.025 1231.73 473.78C1257.29 495.763 1273.02 534.664 1256.64 563.459C1246.95 580.401 1235.1 578.441 1221.03 602.588C1210.74 620.098 1208.59 635.776 1207.05 646.847C1204.7 664.061 1203.5 672.721 1209.28 681.927C1216.08 692.771 1230.92 702.552 1247.49 703.316C1257.42 703.817 1259.56 700.598 1289.31 691.993C1305.96 687.159 1314.31 684.688 1323.71 683.302C1335.34 681.518 1357.57 678.108 1379.73 685.126C1401.39 691.945 1402.48 702.24 1419.15 702.685C1437.04 703.233 1451.2 691.675 1453.13 689.992C1466.56 678.531 1462.94 668.244 1470.7 645.013C1477.38 625.188 1484.63 603.554 1505.66 592.412C1521.3 584.144 1537.73 585.334 1570.33 587.667C1605.92 590.298 1630.59 592.03 1639.37 606.364C1647.79 620.073 1639.34 641.498 1627.41 644.239L1627.04 644.063Z" fill="#3A4E82"/>
</svg>
