<svg width="313" height="157" viewBox="0 0 313 157" fill="none" xmlns="http://www.w3.org/2000/svg">
<g clip-path="url(#clip0_898_410)">
<path d="M312.933 138.559H0" stroke="#1A1A1A" stroke-miterlimit="10"/>
<path fill-rule="evenodd" clip-rule="evenodd" d="M69.2852 0.145781C69.8765 0.0603243 70.4725 0.0115192 71.0699 -0.000353032C72.2311 -0.103898 73.4006 0.0621457 74.4865 0.484737C75.5724 0.907328 76.5452 1.57496 77.3285 2.43521C78.7954 4.06703 79.2232 6.85575 79.8833 9.59576C80.4954 11.6444 80.8244 13.7667 80.8612 15.9039C80.7102 16.8883 80.5061 17.8639 80.25 18.8265C79.7733 21.2621 79.2599 23.0401 77.8053 24.1604C78.1598 24.6232 79.3699 25.0372 79.3455 25.5243C79.321 26.0114 79.81 26.7421 80.739 27.1927C82.047 27.8381 84.0517 27.8503 85.1152 28.7758C86.4842 29.9936 86.1053 32.2343 86.0931 34.475C86.0931 37.1663 86.6309 40.1499 86.4598 42.7316C86.4598 43.2187 86.2153 43.7301 86.2153 44.1807C86.2153 44.6313 86.4231 44.9236 86.4598 45.2767C86.4598 45.8613 86.4598 46.4945 86.4598 46.9694C86.7384 48.4473 87.1058 49.9072 87.56 51.3413C87.9511 52.9122 88.2689 54.471 88.6479 55.8349C89.2102 57.759 90.1514 60.1336 90.8482 62.0212C91.545 63.9088 92.0706 64.8708 90.1148 65.4188C90.4693 66.9045 90.6893 68.6825 90.9704 70.5091C91.2516 72.3358 91.276 74.0894 91.4594 75.977C91.6478 77.0905 91.93 78.1863 92.3028 79.2528C92.5938 80.1197 92.7985 81.0129 92.914 81.9197C92.7886 82.498 92.6252 83.0675 92.4251 83.6246C92.3028 84.2944 92.4251 85.0129 92.3028 85.4391C91.8628 86.6569 90.2859 87.2901 89.3813 88.3496C88.8924 88.7028 88.8924 87.8016 88.4156 88.3496C87.9389 88.8976 87.7189 88.7636 87.4377 88.5932C86.7776 88.2035 87.181 88.2156 87.071 87.6311C87.071 87.5337 87.1932 87.3754 87.1932 87.3876C87.1932 87.1927 86.582 86.9126 86.8265 86.5351C87.5356 85.9052 88.0741 85.1077 88.3924 84.216C88.7107 83.3242 88.7986 82.3671 88.6479 81.4326C88.519 80.9213 88.3041 80.4354 88.0122 79.9956C87.8256 79.7019 87.6969 79.3754 87.6333 79.0336C87.589 78.5384 87.6345 78.0392 87.7678 77.5601C87.9488 77.0146 88.0316 76.4415 88.0122 75.8674C87.8903 75.1991 87.685 74.5486 87.401 73.9311C87.2959 73.2377 87.0461 72.5739 86.6676 71.9826C86.0564 72.5428 86.3742 73.5414 86.4231 74.1625C86.4965 75.0271 86.6309 75.8795 86.6676 76.7198C87.071 85.7679 84.6629 92.076 83.7461 100.016C83.3794 103.207 83.196 106.263 82.6459 109.235C82.377 110.684 81.7047 119.257 81.4235 120.682L80.3234 120.791C79.9689 122.703 80.1889 122.289 79.8589 124.189C79.0643 128.816 78.4409 132.275 77.4141 136.902C77.1277 137.771 76.9231 138.663 76.8029 139.569C76.9524 140.289 77.1991 140.986 77.5363 141.64C78.1353 143.466 78.2575 145.427 79.1132 146.608C79.6755 147.388 80.8612 147.826 81.4235 148.678C81.915 149.403 82.2098 150.242 82.2792 151.114C82.1692 152.173 79.9689 153.684 79.1132 153.781C77.4022 153.739 75.7735 153.041 74.5659 151.832C73.9425 150.834 73.6125 150.262 72.9768 149.202C72.5313 148.568 71.8992 148.087 71.1677 147.826C71.8278 150.846 75.116 151.881 74.8348 155.474C72.0845 157.288 66.9382 156.691 65.4591 154.621C64.7379 153.586 64.8112 152.478 64.2367 151.224C64.2367 150.761 63.6744 150.968 63.5033 150.736C63.5033 147.996 62.6354 145.342 62.7698 142.723C62.7698 142.115 63.0754 141.506 63.1365 140.909C63.155 139.317 62.9909 137.727 62.6476 136.172C61.963 131.617 61.1807 127.063 60.8262 122.338C60.5328 122.021 60.0561 122.545 59.6038 122.46C59.6772 116.614 59.6038 110.282 59.9705 104.875C60.484 97.1176 59.4205 89.4334 59.1149 82.2972C58.9841 78.6811 59.2299 75.0612 59.8483 71.4955C59.1497 71.0726 58.3428 70.8611 57.5258 70.8866C58.1492 66.4904 59.5183 62.8371 60.215 58.514C58.6504 58.514 57.4769 59.9997 55.9489 59.8535C55.0653 59.6382 54.2629 59.173 53.6386 58.514C52.499 58.4117 51.384 58.1238 50.3381 57.6615C50.0325 56.7969 49.1157 56.2855 49.0057 55.4817C49.0057 55.2016 49.1401 54.6658 49.1279 54.2639C49.1279 53.4602 48.7123 52.6321 48.7612 52.0841C48.8984 51.6684 49.0617 51.2617 49.2502 50.8663C49.3968 50.4036 49.3602 49.8312 49.4946 49.4172C49.7024 48.723 50.1547 47.9437 50.4726 47.1034C51.096 45.4107 51.6949 43.6449 52.1717 42.0131C52.4773 41.051 52.624 40.0524 52.9051 39.3461C53.0762 38.8956 53.4552 38.6398 53.6386 38.2501C53.7847 37.5299 53.8908 36.8022 53.9564 36.0703C53.8928 35.1742 53.9462 34.2736 54.1153 33.3912C54.6654 32.0516 55.0076 30.7364 55.5822 29.5065C55.8627 28.8397 56.2776 28.2374 56.8011 27.7368C57.3247 27.2362 57.9457 26.8479 58.6259 26.596C60.2028 25.9627 61.7552 25.7679 63.5155 25.1468C64.0533 25.1468 63.4421 24.5014 63.76 24.4161C63.76 24.063 65.1535 23.6855 65.2146 23.1984C64.9929 22.8223 64.748 22.4603 64.4812 22.1145C62.5009 18.656 62.6354 13.7971 63.76 9.12082C64.6768 4.93166 65.3735 1.0104 69.2852 0.145781ZM56.8657 51.597C58.0881 51.9014 59.3105 52.2302 60.5328 52.5712C60.4369 50.311 59.7999 48.1064 58.6748 46.1413C58.1247 48.0045 57.5624 49.9286 56.8657 51.597V51.597ZM69.7741 121.376C69.6763 126.978 67.6472 133.188 68.4295 139.326C68.6984 141.433 69.9575 143.503 70.5076 145.415C70.6176 143.661 69.9697 141.981 70.2631 140.069C70.4098 139.07 71.0943 138.181 71.351 137.158C72.5734 132.287 71.7544 126.527 71.7177 121.266C71.2043 121.23 69.823 120.706 69.7741 121.376V121.376Z" fill="#1A1A1A"/>
</g>
<rect x="123.462" width="55.0077" height="66.9779" fill="#D49634"/>
<defs>
<clipPath id="clip0_898_410">
<rect width="312.933" height="156.57" fill="white"/>
</clipPath>
</defs>
</svg>
