<svg width="1440" height="8826" viewBox="0 0 1440 8826" fill="none" xmlns="http://www.w3.org/2000/svg">
<g clip-path="url(#clip0_594_323)">
<rect width="1440" height="8826" fill="#FDFCFC"/>
<path d="M1553.46 8262.34C1547.02 8267.89 1536.14 8261.36 1521 8258.05C1495.96 8252.5 1490.46 8262.46 1467.85 8260.66C1442.24 8258.56 1414.49 8242.63 1399.53 8220.93C1383.88 8198.23 1393.55 8185.97 1375.33 8163.36C1363.08 8148.16 1348.35 8140.96 1336.04 8134.84C1301.08 8117.69 1288.67 8127.44 1267.43 8115.6C1236.63 8098.42 1222.33 8055.25 1221.02 8024.81C1218.98 7976.39 1249.49 7949.52 1231.79 7921.44C1230.15 7918.84 1224.29 7909.85 1213.5 7905.22C1193.09 7896.56 1181.49 7915.09 1154.03 7913.94C1131.62 7913.01 1103.51 7899.11 1092.78 7877.66C1087 7866.15 1088.37 7856.64 1079.89 7851.86C1070.24 7846.35 1062.2 7855.19 1049.38 7852.8C1033.74 7849.89 1024.36 7832.82 1015.26 7816.23C1003.27 7794.43 989.284 7768.73 996.545 7742.69C1001.82 7723.72 1012.36 7726.14 1033.68 7688.01C1045.48 7667 1046.42 7658.71 1045.71 7651.69C1044.87 7643.57 1039.05 7633.92 1027.61 7614.81C1019.79 7601.79 1015.77 7595.18 1008.83 7587.36C1007.88 7586.29 998.288 7575.58 985.234 7566.44C954.065 7544.74 933 7553.14 892.743 7534.1C863.664 7520.34 866.955 7512.3 841.168 7503.74C809.924 7493.38 782.07 7497.73 777.194 7498.5C748.31 7503.24 744.385 7514.43 710.454 7517.89C701.666 7518.76 695.531 7518.65 687.109 7522.43C671.947 7529.14 665.213 7541.42 657.258 7553.76C648.654 7567.12 632.468 7592.39 611.507 7610.84C599.721 7621.3 576.677 7641.7 556.319 7635.06C542.171 7630.43 541.699 7616.93 529.353 7614.81C524.59 7614 513.7 7614.16 482.053 7652.33C452.67 7687.8 451.075 7700.99 434.146 7705.6C427.681 7707.39 414.544 7704.11 388.396 7697.58C360.744 7690.63 346.95 7687.3 330.685 7679.8C304.153 7667.69 303.541 7660.83 290.709 7660.71C269.613 7660.41 266.992 7678.92 242.51 7682.08C227.816 7684.11 215.762 7679.13 192.975 7669.8C166.546 7658.92 164.743 7652 147.103 7649.06C135.133 7647.04 125.008 7649.01 104.726 7653.08C86.8503 7656.63 68.9137 7660.42 50.6321 7672.8C39.8873 7680.08 41.309 7681.95 35.0985 7684.35C10.5677 7693.78 -31.4918 7672.24 -36.234 7643.77C-37.9339 7633.68 -35.3429 7619.7 -28.2238 7617.42C-17.2963 7613.8 -6.67809 7641.23 22.9854 7649.28C31.1387 7651.57 37.3953 7651.18 49.7826 7650.38C77.4688 7648.92 89.9275 7640.65 113.953 7634.95C139.51 7629.02 152.449 7626.5 165.965 7630.42C191.493 7637.84 195.764 7657.22 222.295 7660.51C235.294 7662.15 246.788 7658.96 251.661 7657.65C271.338 7652.21 274.063 7643.75 287.655 7640.74C303.653 7637.21 308.979 7646.72 336.825 7654.53C346.609 7657.27 376.052 7665.12 409.42 7657.37C422.761 7654.29 439.664 7650.34 454.274 7636.53C464.688 7626.75 464.364 7620.91 488.471 7587.31C500.028 7571.17 503.168 7568.17 508.033 7565.79C518.261 7560.64 525.323 7563.56 550.41 7561.77C558.73 7561.16 567.583 7560.57 578.271 7558.48C595.865 7555 613.053 7551.53 624.629 7538.07C630.775 7530.97 628.042 7529.53 636.426 7515.98C639.953 7510.29 650.191 7493.51 663.026 7485.34C678.572 7475.4 693.008 7481.05 723.945 7483.31C753.942 7485.57 746.176 7480.59 797.968 7480.27C847.476 7479.98 872.795 7479.99 893.667 7492.79C901.493 7497.53 907.887 7503.2 922.867 7510.47C941.774 7519.78 955.313 7522.5 963.908 7525.18C987.965 7532.59 990.714 7544.99 1041.35 7593C1083.38 7632.85 1096.38 7638.36 1096.47 7654.56C1096.59 7667.83 1086.73 7679.76 1067.02 7703.51C1055.67 7717.17 1046.83 7724.85 1035.02 7743.72C1026.2 7757.96 1024.31 7764.64 1023.63 7770.73C1023.39 7772.81 1021.9 7791.1 1033.97 7807.05C1044.9 7821.6 1061.14 7825.89 1074.72 7829.56C1099.62 7836.27 1108.86 7829.64 1124.62 7840.34C1131.07 7844.69 1131.08 7846.83 1141.78 7854.64C1152.38 7862.29 1160.12 7867.94 1168.33 7869.97C1191.06 7875.67 1201.02 7849.6 1223.23 7853.55C1239.4 7856.48 1250.95 7873.48 1255.44 7884.77C1257.45 7889.74 1258.68 7895.7 1254.3 7935.23C1251.63 7959.48 1250.82 7960.05 1249.42 7975.17C1247.01 8001.09 1245.89 8014 1248.7 8030.56C1251.44 8046.3 1254.73 8065.27 1268.79 8079.1C1282.12 8092.06 1292.23 8087.94 1327.64 8098.8C1365.78 8110.56 1385.48 8116.62 1397.03 8134.16C1411.33 8155.81 1400.17 8175.27 1419.36 8192.81C1424.62 8197.62 1431.18 8200.93 1444.41 8207.71C1457.03 8214.19 1466.73 8217.85 1477.56 8221.82C1501.31 8230.48 1513.11 8234.86 1526.36 8237.1C1542.97 8239.89 1552.22 8238.74 1556.22 8245.47C1559.13 8250.57 1558 8258.53 1553.74 8262.29L1553.46 8262.34Z" fill="#47650C"/>
<path d="M1452.46 3436.34C1446.02 3441.89 1435.14 3435.36 1420 3432.05C1394.96 3426.5 1389.46 3436.46 1366.85 3434.66C1341.24 3432.56 1313.49 3416.63 1298.53 3394.93C1282.88 3372.23 1292.55 3359.97 1274.33 3337.36C1262.08 3322.16 1247.35 3314.96 1235.04 3308.84C1200.08 3291.69 1187.67 3301.44 1166.43 3289.6C1135.63 3272.42 1121.33 3229.25 1120.02 3198.81C1117.98 3150.39 1148.49 3123.52 1130.79 3095.44C1129.15 3092.84 1123.29 3083.85 1112.5 3079.22C1092.09 3070.56 1080.49 3089.09 1053.03 3087.94C1030.62 3087.01 1002.51 3073.11 991.778 3051.66C986 3040.15 987.371 3030.64 978.887 3025.86C969.24 3020.35 961.198 3029.19 948.38 3026.8C932.743 3023.89 923.357 3006.82 914.256 2990.23C902.27 2968.43 888.284 2942.73 895.545 2916.69C900.823 2897.72 911.356 2900.14 932.676 2862.01C944.481 2841 945.423 2832.71 944.715 2825.69C943.874 2817.57 938.047 2807.92 926.612 2788.81C918.788 2775.79 914.766 2769.18 907.825 2761.36C906.879 2760.29 897.288 2749.58 884.234 2740.44C853.065 2718.74 832 2727.14 791.743 2708.1C762.664 2694.34 765.955 2686.3 740.168 2677.74C708.924 2667.38 681.07 2671.73 676.194 2672.5C647.31 2677.24 643.385 2688.43 609.454 2691.89C600.666 2692.76 594.531 2692.65 586.109 2696.43C570.947 2703.14 564.213 2715.42 556.258 2727.76C547.654 2741.12 531.468 2766.39 510.507 2784.84C498.721 2795.3 475.677 2815.7 455.319 2809.06C441.171 2804.43 440.699 2790.93 428.353 2788.81C423.59 2788 412.7 2788.16 381.053 2826.33C351.67 2861.8 350.075 2874.99 333.146 2879.6C326.681 2881.39 313.544 2878.11 287.396 2871.58C259.744 2864.63 245.95 2861.3 229.685 2853.8C203.153 2841.69 202.541 2834.83 189.709 2834.71C168.613 2834.41 165.992 2852.92 141.51 2856.08C126.816 2858.11 114.762 2853.13 91.9746 2843.8C65.5456 2832.92 63.7432 2826 46.1027 2823.06C34.1331 2821.04 24.0077 2823.01 3.72599 2827.08C-14.1497 2830.63 -32.0863 2834.42 -50.3679 2846.8C-61.1127 2854.08 -59.691 2855.95 -65.9015 2858.35C-90.4323 2867.78 -132.492 2846.24 -137.234 2817.77C-138.934 2807.68 -136.343 2793.7 -129.224 2791.42C-118.296 2787.8 -107.678 2815.23 -78.0146 2823.28C-69.8613 2825.57 -63.6047 2825.18 -51.2174 2824.38C-23.5312 2822.92 -11.0725 2814.65 12.953 2808.95C38.5104 2803.02 51.4488 2800.5 64.9654 2804.42C90.4934 2811.84 94.7636 2831.22 121.295 2834.51C134.294 2836.15 145.788 2832.96 150.661 2831.65C170.338 2826.21 173.063 2817.75 186.655 2814.74C202.653 2811.21 207.979 2820.72 235.825 2828.53C245.609 2831.27 275.052 2839.12 308.42 2831.37C321.761 2828.29 338.664 2824.34 353.274 2810.53C363.688 2800.75 363.364 2794.91 387.471 2761.31C399.028 2745.17 402.168 2742.17 407.033 2739.79C417.261 2734.64 424.323 2737.56 449.41 2735.77C457.73 2735.16 466.583 2734.57 477.271 2732.48C494.865 2729 512.053 2725.53 523.629 2712.07C529.775 2704.97 527.042 2703.53 535.426 2689.98C538.953 2684.29 549.191 2667.51 562.026 2659.34C577.572 2649.4 592.008 2655.05 622.945 2657.31C652.942 2659.57 645.176 2654.59 696.968 2654.27C746.476 2653.98 771.795 2653.99 792.667 2666.79C800.493 2671.53 806.887 2677.2 821.867 2684.47C840.774 2693.78 854.313 2696.5 862.908 2699.18C886.965 2706.59 889.714 2718.99 940.35 2767C982.385 2806.85 995.381 2812.36 995.466 2828.56C995.592 2841.83 985.726 2853.76 966.024 2877.51C954.667 2891.17 945.835 2898.85 934.015 2917.72C925.198 2931.96 923.306 2938.64 922.63 2944.73C922.394 2946.81 920.898 2965.1 932.968 2981.05C943.9 2995.6 960.142 2999.89 973.72 3003.56C998.617 3010.27 1007.86 3003.64 1023.62 3014.34C1030.07 3018.69 1030.08 3020.83 1040.78 3028.64C1051.38 3036.29 1059.12 3041.94 1067.33 3043.97C1090.06 3049.67 1100.02 3023.6 1122.23 3027.55C1138.4 3030.48 1149.95 3047.48 1154.44 3058.77C1156.45 3063.74 1157.68 3069.7 1153.3 3109.23C1150.63 3133.48 1149.82 3134.05 1148.42 3149.17C1146.01 3175.09 1144.89 3188 1147.7 3204.56C1150.44 3220.3 1153.73 3239.27 1167.79 3253.1C1181.12 3266.06 1191.23 3261.94 1226.64 3272.8C1264.78 3284.56 1284.48 3290.62 1296.03 3308.16C1310.33 3329.81 1299.17 3349.27 1318.36 3366.81C1323.62 3371.62 1330.18 3374.93 1343.41 3381.71C1356.03 3388.19 1365.73 3391.85 1376.56 3395.82C1400.31 3404.48 1412.11 3408.86 1425.36 3411.1C1441.97 3413.89 1451.22 3412.74 1455.22 3419.47C1458.13 3424.57 1457 3432.53 1452.74 3436.29L1452.46 3436.34Z" fill="#47650C"/>
<path d="M1490.81 6486.77C1486.12 6490.74 1475.04 6487.98 1460.77 6487.57C1437.14 6486.86 1434.18 6493.37 1413.49 6494.64C1390.04 6496.04 1361.92 6489.42 1344.15 6478.02C1325.56 6466.1 1331.83 6457.78 1310.94 6446.18C1296.91 6438.38 1282.23 6435.61 1269.94 6433.23C1235.1 6426.62 1225.87 6433.73 1204.41 6428.87C1173.31 6421.81 1151.86 6397.54 1144.63 6379.51C1133.17 6350.83 1155.26 6331.64 1133.76 6316.72C1131.76 6315.34 1124.71 6310.58 1114.08 6308.94C1094.01 6305.89 1087.26 6318.15 1062.35 6320.31C1042 6322.07 1013.96 6316.7 1000.05 6305.01C992.562 6298.74 991.905 6292.93 983.324 6290.95C973.553 6288.67 968.079 6294.77 956.078 6294.68C941.437 6294.56 929.603 6285.35 918.121 6276.4C903.007 6264.63 885.318 6250.74 886.671 6234.46C887.645 6222.59 897.597 6222.94 909.187 6197.98C915.622 6184.22 914.82 6179.18 912.789 6175.07C910.418 6170.31 903.258 6165.15 889.175 6154.94C879.551 6147.98 874.62 6144.45 866.822 6140.5C865.759 6139.97 855.005 6134.57 841.45 6130.47C809.105 6120.76 791.833 6127.95 751.846 6120.76C722.96 6115.57 724.323 6110.43 699.431 6108C669.274 6105.05 645.093 6110.54 640.862 6111.5C615.83 6117.32 614.527 6124.41 584.701 6129.99C576.974 6131.42 571.434 6131.99 564.613 6135.12C552.314 6140.7 548.7 6148.72 544.001 6156.91C538.92 6165.77 529.39 6182.53 514.21 6195.71C505.692 6203.17 489.028 6217.73 469.4 6215.88C455.756 6214.58 452.648 6206.58 441.123 6206.59C436.681 6206.61 426.92 6207.83 406.053 6233.89C386.684 6258.1 387.872 6266.13 373.566 6270.63C368.109 6272.38 355.644 6271.78 330.833 6270.6C304.584 6269.32 291.518 6268.76 275.4 6265.97C249.133 6261.49 247.219 6257.47 235.656 6258.72C216.626 6260.73 217.951 6272.05 196.564 6276.47C183.754 6279.21 171.924 6277.48 149.578 6274.28C123.648 6270.53 120.651 6266.59 104.203 6266.66C93.0382 6266.7 84.3254 6268.92 66.897 6273.46C51.5272 6277.42 36.1523 6281.55 22.1755 6290.83C13.961 6296.29 15.6112 6297.25 10.5042 6299.33C-9.67951 6307.5 -51.7858 6299.01 -61.71 6282.52C-65.247 6276.67 -65.6964 6268.06 -59.7483 6265.96C-50.6417 6262.67 -35.6376 6277.94 -7.36277 6279.66C0.423467 6280.18 5.97318 6279.3 16.9523 6277.54C41.5581 6273.8 51.1169 6267.57 71.589 6261.68C93.3909 6255.49 104.524 6252.65 117.459 6253.59C141.891 6255.37 149.583 6266.48 174.096 6265.7C186.112 6265.33 195.812 6262.23 199.934 6260.95C216.546 6255.66 217.314 6250.33 228.938 6247.13C242.622 6243.36 249.303 6248.48 275.895 6250.25C285.239 6250.88 313.277 6252.51 341.74 6244.42C353.125 6241.2 367.539 6237.09 377.93 6227.34C385.35 6220.42 383.898 6216.97 398.893 6194.42C406.076 6183.6 408.303 6181.48 412.205 6179.56C420.378 6175.43 427.308 6176.43 449.511 6172.76C456.872 6171.54 464.715 6170.27 473.912 6167.92C489.04 6164.01 503.805 6160.16 511.539 6150.93C515.653 6146.06 512.91 6145.48 517.754 6136.53C519.793 6132.76 525.663 6121.69 535.582 6115.49C547.583 6107.95 561.689 6109.82 589.957 6107.96C617.381 6106.2 609.407 6104.03 655.917 6098.47C700.378 6093.17 723.148 6090.55 744.463 6096.02C752.442 6098.04 759.319 6100.75 774.236 6103.54C793.089 6107.14 805.806 6107.36 814.066 6108.06C837.173 6109.99 842.111 6117.1 897.192 6140.5C942.916 6159.92 955.699 6161.86 958.996 6171.51C961.748 6179.42 955.25 6187.56 942.255 6203.77C934.759 6213.1 928.344 6218.6 921.469 6231.08C916.371 6240.49 915.999 6244.68 916.603 6248.38C916.803 6249.64 919.095 6260.71 933.12 6268.98C945.846 6276.53 961.304 6277.4 974.243 6278.18C997.966 6279.61 1004.96 6274.69 1021.26 6279.44C1027.92 6281.37 1028.36 6282.65 1039.53 6286.2C1050.59 6289.66 1058.67 6292.23 1066.46 6292.59C1088.03 6293.64 1091.8 6277.04 1112.56 6277.1C1127.69 6277.17 1141.45 6286.12 1147.73 6292.39C1150.53 6295.14 1152.82 6298.57 1156.74 6322.62C1159.16 6337.36 1158.55 6337.78 1160.3 6346.95C1163.29 6362.66 1164.84 6370.48 1170.66 6380.07C1176.25 6389.18 1182.99 6400.15 1198.38 6406.95C1212.95 6413.3 1221.22 6409.79 1255.22 6412.6C1291.86 6415.67 1310.78 6417.24 1324.65 6426.5C1341.81 6437.94 1335.65 6450.71 1356.39 6459.18C1362.08 6461.51 1368.64 6462.81 1381.88 6465.48C1394.52 6468.04 1403.97 6469.21 1414.49 6470.46C1437.58 6473.17 1449.06 6474.55 1461.42 6474.52C1476.91 6474.46 1485 6472.81 1489.93 6476.42C1493.57 6479.15 1494.13 6484.03 1491.05 6486.71L1490.81 6486.77Z" fill="#3A4E82"/>
<path d="M-139.765 5287.75C-129.841 5278.89 -107.874 5295.67 -76.4127 5286.07C-57.4124 5280.28 -36.0449 5265.04 -32.9017 5249.49C-29.7895 5233.86 -47.743 5230.54 -67.0857 5200.5C-78.9686 5182.13 -89.8856 5165.03 -80.5247 5152.65C-70.3576 5139.19 -40.3371 5136.41 -7.669 5133.32C20.1727 5130.69 22.1188 5134.03 37.7515 5129.52C43.8529 5127.8 79.2131 5116.95 91.0753 5094.36C95.5804 5085.77 93.8403 5080.75 102.101 5067.85C110.51 5054.99 117.325 5051.93 119.786 5051.07C126.404 5048.58 132.172 5049.69 140.041 5051.18C181.981 5058.93 178.471 5057.13 193.432 5061.28C218.259 5068.14 221.618 5071.39 223.096 5074.9C225.895 5081.46 220.967 5086.18 219.272 5095.3C216.907 5108.17 224.304 5111.33 238.624 5137.48C252.673 5163.24 259.654 5176.18 258.777 5186.52C258.53 5189.22 257.73 5195.62 262.156 5200.81C265.047 5204.23 269.985 5206.73 278.767 5208.21C295.706 5210.87 305.757 5205.78 321.119 5204.27C347.695 5201.78 349.243 5214.19 375.917 5213.88C379.837 5213.83 408.245 5213.22 429.519 5197.71C436.853 5192.35 439.58 5186.59 445.55 5175.79C455.976 5157.01 458.504 5144.99 463.599 5129.77C473.262 5101.22 477.809 5086.69 488.953 5076.8C510.984 5057.42 529.419 5066.29 558.43 5043.18C573.545 5031.11 573.869 5024.47 594.909 5009.04C600.961 5004.53 613.158 4995.79 628.544 4989.05C659.201 4975.61 670.272 4984.82 706.823 4976.27C730.485 4970.67 748.687 4961.45 784.333 4943.47C808.787 4931.08 819.475 4923.66 838.884 4920.94C857.706 4918.43 858.04 4923.94 880.256 4923.27C900.262 4922.65 919.607 4916.35 957.704 4903.54C990.995 4892.4 990.929 4890.32 1001.21 4889.67C1018.14 4888.51 1032.84 4894.96 1062.14 4907.9C1079.49 4915.54 1089.6 4920.06 1100.76 4929.15C1113.38 4939.43 1110.53 4941.82 1122.52 4951.42C1139.63 4965.17 1146.13 4960.81 1166.7 4975.46C1183.09 4987.15 1181.85 4991.9 1193.61 4994.75C1205.21 4997.55 1216.67 4995.39 1221.03 5001.91C1223.79 5006.07 1221.11 5009.71 1224.73 5012.57C1229.6 5016.41 1239.76 5013.89 1244.98 5012.68C1261.81 5008.95 1278.56 5010.68 1295.37 5009.57C1318.49 5008.08 1338.63 5006.72 1358.81 5012.68C1378.96 5018.54 1376.45 5024.93 1405.42 5034.67C1431.73 5043.52 1442 5040.96 1446.14 5039.63C1461.11 5034.74 1466.86 5022.91 1473.6 5024.18C1479.52 5025.34 1481.21 5035.9 1477.44 5044.34C1472.08 5056.54 1455.33 5064.25 1443.14 5066.97C1426.97 5070.67 1414.48 5066.47 1390.12 5057.94C1369.36 5050.68 1365.42 5046.53 1344.6 5039.09C1320.66 5030.62 1315.33 5028.15 1306.61 5028.36C1292.85 5028.81 1288.46 5033.55 1270.31 5036.13C1254.93 5038.35 1243.62 5037.15 1232.84 5035.97C1200.61 5032.38 1177.23 5022.11 1163.87 5016.91C1102.96 4993.44 1078.97 5010.6 1022.54 4987.19C1015.65 4984.36 1001.74 4974.52 971.57 4957.17C960.61 4950.93 954.416 4947.45 945.177 4948.45C930.26 4950.11 924.478 4961.45 902.475 4969.18C893.568 4972.26 886.773 4973.11 873.091 4974.55C842.491 4977.92 839.096 4972.68 813.957 4974.77C785.874 4977.07 760.856 4985.95 753.269 4988.68C732.969 4996.02 729.917 5000.09 717.054 5001.23C697.835 5002.98 694.655 4994.94 674.936 4996.76C659.691 4998.23 647.89 5004.33 637.315 5009.8C621.95 5017.74 608.483 5024.72 604.138 5035.66C599.228 5048.01 611.614 5051.54 613.134 5070.7C614.019 5082.34 611.254 5104.28 596.303 5112.27C582.695 5119.6 573.315 5107.69 540.898 5110C532.066 5110.65 504.007 5112.65 485.229 5129.3C476.9 5136.7 473.67 5144.05 469.899 5152.48C457.684 5180.11 469.607 5189.13 459.578 5203.75C446.418 5222.97 411.09 5229 390.048 5232.68C368.974 5236.27 361.302 5234.21 320.697 5235.24C274.64 5236.44 276.797 5240.01 263.971 5238.24C231.933 5233.68 198.488 5212.95 195.819 5185.56C194.294 5169.42 204.694 5165.71 202.72 5142.6C201.36 5125.81 194.572 5113.8 189.793 5105.32C182.336 5092.14 178.592 5085.51 169.057 5081.48C157.83 5076.74 140.839 5076.21 127.366 5082.78C119.269 5086.7 119.326 5089.89 100.529 5108.76C90.0157 5119.33 84.7746 5124.66 78.1129 5129.68C69.9108 5135.94 54.2336 5147.9 32.971 5152.46C12.2083 5156.95 5.77838 5150.14 -7.60181 5156.99C-22.0057 5164.29 -26.9113 5178.54 -27.524 5180.56C-31.9057 5194.43 -23.4906 5200.15 -17.0369 5219.9C-11.5777 5236.78 -5.59011 5255.19 -16.1381 5272.1C-23.9923 5284.66 -37.59 5290.88 -64.5511 5303.24C-94.0283 5316.67 -114.409 5326.05 -129.086 5319.69C-143.138 5313.62 -148.071 5294.84 -140.148 5287.78L-139.765 5287.75Z" fill="#A40616"/>
<path d="M1460.11 1814.79C1445.8 1817.54 1435.88 1787.97 1401.56 1778.56C1380.85 1772.87 1352.32 1775.02 1340.17 1788.38C1327.99 1801.84 1342.31 1815.82 1341.92 1856.81C1341.72 1881.92 1341.41 1905.2 1325.5 1911.73C1308.21 1918.84 1279.28 1903.62 1247.76 1887.11C1220.9 1873.04 1221.13 1868.6 1204.23 1863.68C1197.67 1861.71 1159.06 1851.2 1134.78 1866.24C1125.55 1871.96 1124.12 1877.92 1108.9 1885.62C1093.58 1893.19 1085.55 1892.12 1082.81 1891.48C1075.3 1889.97 1070.73 1885.43 1064.47 1879.27C1031.01 1846.6 1033.13 1850.46 1022.02 1837.44C1003.57 1815.88 1002.46 1810.69 1003.22 1806.37C1004.6 1798.27 1011.9 1796.59 1018.89 1788.67C1028.74 1777.48 1023.91 1769.96 1026.55 1735.77C1029.19 1702.14 1030.59 1685.28 1037.57 1675.67C1039.41 1673.18 1043.97 1667.39 1043.05 1659.65C1042.47 1654.58 1039.48 1649.17 1032.39 1642.48C1018.59 1629.74 1006.42 1628.72 991.562 1621.02C965.936 1607.56 971.956 1594.47 947.541 1578.83C943.949 1576.54 917.78 1560.15 889.181 1562.63C879.317 1563.49 873.391 1567.51 861.507 1574.52C840.807 1586.68 831.321 1596.95 817.59 1608.81C791.737 1631.01 778.917 1642.52 762.881 1645.55C731.276 1651.37 719.836 1631.66 679.663 1636.95C658.717 1639.74 654.452 1646.05 626.114 1648.58C617.921 1649.38 601.611 1650.66 583.604 1648.06C547.721 1642.9 543.175 1627.25 504.859 1613.78C480.022 1605.11 457.973 1603.26 414.841 1599.57C385.216 1597.09 371.071 1597.97 351.82 1589.02C333.222 1580.23 336.212 1574.63 315.63 1562.01C297.093 1550.64 275.751 1545.26 233.489 1535.02C196.587 1526.03 195.4 1528.12 185.676 1522.61C169.609 1513.61 160.107 1498.5 141.233 1468.31C130.04 1450.46 123.572 1439.98 118.871 1424.41C113.555 1406.78 117.571 1406.14 112.419 1389.57C105.103 1365.87 96.5941 1366.26 86.6733 1339.6C78.7737 1318.35 82.7419 1314.44 73.7716 1304.62C64.9066 1294.93 53.2034 1290.2 53.1421 1281.21C53.129 1275.48 57.737 1273.51 56.1627 1268.55C54.0285 1261.88 43.299 1258.27 37.8288 1256.33C20.3178 1249.92 6.13874 1238.22 -9.79692 1229.25C-31.6827 1216.89 -50.7893 1206.18 -65.5589 1188.28C-80.3539 1170.49 -74.2506 1165.72 -94.7469 1138.86C-113.347 1114.46 -124.207 1110.83 -128.758 1109.66C-145.288 1105.5 -157.582 1113.65 -162.944 1108.37C-167.624 1103.7 -162.845 1092.34 -154.374 1086.33C-142.214 1077.58 -122.38 1080.04 -109.686 1084.66C-92.778 1090.71 -83.9524 1102.29 -66.9294 1125.21C-52.4098 1144.73 -51.3214 1151.16 -36.8526 1170.9C-20.171 1193.51 -16.8169 1199.11 -8.76723 1204.12C4.00116 1211.9 10.828 1209.89 28.8481 1218.22C44.144 1225.24 53.702 1233.18 62.7878 1240.78C89.9143 1263.56 105.013 1287.6 114.032 1300.69C155.324 1360.1 187.37 1357.63 224.623 1414.31C229.187 1421.2 235.942 1439.15 252.969 1474.19C259.191 1486.86 262.738 1493.97 271.725 1498.52C286.266 1505.81 298.302 1498.16 322.909 1503.74C332.846 1506.04 339.526 1509.27 352.81 1516.05C382.625 1531.04 382.569 1538.21 406.652 1551.19C433.54 1565.72 461.572 1571.99 470.096 1573.85C492.924 1578.8 498.131 1576.63 510.499 1583.2C528.999 1592.98 527.082 1602.76 546.079 1612.77C560.805 1620.44 575.173 1621.52 588.051 1622.48C606.755 1623.89 623.16 1625.11 633.653 1616.98C645.496 1607.82 636.362 1596.95 646.437 1577.28C652.595 1565.35 668.23 1545.5 686.593 1546.61C703.335 1547.57 704.732 1564.84 735.554 1581.97C743.967 1586.61 770.647 1601.43 797.662 1596.34C809.657 1594.07 816.984 1588.8 825.454 1582.79C853.074 1563.03 847.639 1547.06 865.493 1538.73C888.943 1527.77 924.634 1542.99 945.948 1551.97C967.237 1561.05 972.974 1567.65 1010.47 1590.93C1053.02 1617.28 1053.2 1612.49 1063.79 1621.9C1090.16 1645.52 1108.14 1685.83 1094.18 1714.26C1085.92 1730.98 1074.25 1728.4 1062.22 1752.22C1053.41 1769.49 1052.4 1785.31 1051.66 1796.48C1050.55 1813.85 1049.99 1822.59 1056.24 1832.23C1063.6 1843.59 1078.71 1854.27 1094.89 1855.88C1104.58 1856.89 1106.44 1853.73 1134.8 1846.48C1150.67 1842.41 1158.62 1840.32 1167.67 1839.39C1178.86 1838.16 1200.26 1835.81 1222.3 1844.06C1243.84 1852.08 1245.61 1862.59 1261.86 1863.88C1279.31 1865.34 1292.29 1854.31 1294.05 1852.7C1306.33 1841.73 1302.11 1831.1 1308.06 1807.89C1313.2 1788.08 1318.77 1766.47 1338.46 1756.21C1353.11 1748.6 1369.18 1750.63 1401.06 1754.65C1435.87 1759.11 1459.99 1762.11 1469.52 1777.11C1478.65 1791.46 1471.9 1812.81 1460.48 1814.99L1460.11 1814.79Z" fill="#3A4E82"/>
</g>
<defs>
<clipPath id="clip0_594_323">
<rect width="1440" height="8826" fill="white"/>
</clipPath>
</defs>
</svg>
