<svg width="1440" height="786" viewBox="0 0 1440 786" fill="none" xmlns="http://www.w3.org/2000/svg">
<path d="M1543.46 783.341C1537.02 788.887 1526.14 782.363 1511 779.055C1485.96 773.505 1480.46 783.457 1457.85 781.664C1432.24 779.562 1404.49 763.631 1389.53 741.93C1373.88 719.231 1383.55 706.974 1365.33 684.359C1353.08 669.163 1338.35 661.96 1326.04 655.836C1291.08 638.686 1278.67 648.437 1257.43 636.602C1226.63 619.417 1212.33 576.248 1211.02 545.808C1208.98 497.39 1239.49 470.524 1221.79 442.441C1220.15 439.842 1214.29 430.85 1203.5 426.219C1183.09 417.559 1171.49 436.091 1144.03 434.944C1121.62 434.007 1093.51 420.113 1082.78 398.661C1077 387.151 1078.37 377.645 1069.89 372.861C1060.24 367.35 1052.2 376.189 1039.38 373.799C1023.74 370.886 1014.36 353.82 1005.26 337.235C993.27 315.432 979.284 289.726 986.545 263.694C991.823 244.725 1002.36 247.143 1023.68 209.014C1035.48 187.999 1036.42 179.709 1035.71 172.694C1034.87 164.573 1029.05 154.92 1017.61 135.81C1009.79 122.791 1005.77 116.184 998.825 108.358C997.879 107.291 988.288 96.583 975.234 87.4442C944.065 65.7425 923 74.1385 882.743 55.1017C853.664 41.3371 856.955 33.3049 831.168 24.74C799.924 14.3776 772.07 18.7322 767.194 19.5037C738.31 24.2378 734.385 35.4334 700.454 38.8861C691.666 39.7641 685.531 39.6482 677.109 43.4352C661.947 50.1446 655.213 62.4239 647.258 74.7623C638.654 88.1213 622.468 113.388 601.507 131.837C589.721 142.3 566.677 162.704 546.319 156.062C532.171 151.428 531.699 137.93 519.353 135.806C514.59 135.005 503.7 135.16 472.053 173.335C442.67 208.802 441.075 221.988 424.146 226.598C417.681 228.394 404.544 225.113 378.396 218.585C350.744 211.635 336.95 208.303 320.685 200.803C294.153 188.688 293.541 181.834 280.709 181.712C259.613 181.412 256.992 199.923 232.51 203.084C217.816 205.113 205.762 200.13 182.975 190.802C156.546 179.919 154.743 172.998 137.103 170.058C125.133 168.039 115.008 170.012 94.726 174.084C76.8503 177.627 58.9137 181.42 40.6321 193.803C29.8873 201.083 31.309 202.951 25.0985 205.354C0.567708 214.783 -41.4918 193.236 -46.234 164.775C-47.9339 154.676 -45.3429 140.701 -38.2238 138.419C-27.2963 134.8 -16.6781 162.235 12.9854 170.283C21.1387 172.568 27.3953 172.184 39.7826 171.379C67.4688 169.918 79.9275 161.649 103.953 155.954C129.51 150.02 142.449 147.499 155.965 151.422C181.493 158.845 185.764 178.219 212.295 181.513C225.294 183.152 236.788 179.959 241.661 178.652C261.338 173.208 264.063 164.75 277.655 161.744C293.653 158.209 298.979 167.721 326.825 175.527C336.609 178.27 366.052 186.122 399.42 178.368C412.761 175.292 429.664 171.343 444.274 157.529C454.688 147.751 454.364 141.913 478.471 108.308C490.028 92.1679 493.168 89.172 498.033 86.7935C508.261 81.6415 515.323 84.5567 540.41 82.7678C548.73 82.1598 557.583 81.5674 568.271 79.4847C585.865 75.9967 603.053 72.5282 614.629 59.0668C620.775 51.9685 618.042 50.5342 626.426 36.9797C629.953 31.2857 640.191 14.5089 653.026 6.34545C668.572 -3.59773 683.008 2.05294 713.945 4.30966C743.942 6.5705 736.176 1.58688 787.968 1.26976C837.476 0.980537 862.795 0.994215 883.667 13.795C891.493 18.5283 897.887 24.1965 912.867 31.4697C931.774 40.7792 945.313 43.5053 953.908 46.1817C977.965 53.5936 980.714 65.992 1031.35 114C1073.38 153.85 1086.38 159.364 1086.47 175.56C1086.59 188.827 1076.73 200.763 1057.02 224.51C1045.67 238.167 1036.83 245.849 1025.02 264.722C1016.2 278.956 1014.31 285.643 1013.63 291.735C1013.39 293.808 1011.9 312.1 1023.97 328.046C1034.9 342.605 1051.14 346.891 1064.72 350.563C1089.62 357.275 1098.86 350.645 1114.62 361.343C1121.07 365.69 1121.08 367.832 1131.78 375.642C1142.38 383.292 1150.12 388.936 1158.33 390.972C1181.06 396.675 1191.02 370.596 1213.23 374.552C1229.4 377.481 1240.95 394.483 1245.44 405.767C1247.45 410.74 1248.68 416.699 1244.3 456.235C1241.63 480.478 1240.82 481.053 1239.42 496.166C1237.01 522.087 1235.89 535.003 1238.7 551.561C1241.44 567.299 1244.73 586.266 1258.79 600.097C1272.12 613.056 1282.23 608.94 1317.64 619.802C1355.78 631.562 1375.48 637.618 1387.03 655.157C1401.33 676.808 1390.17 696.267 1409.36 713.807C1414.62 718.623 1421.18 721.934 1434.41 728.715C1447.03 735.195 1456.73 738.848 1467.56 742.818C1491.31 751.482 1503.11 755.858 1516.36 758.103C1532.97 760.887 1542.22 759.74 1546.22 766.472C1549.13 771.566 1548 779.535 1543.74 783.286L1543.46 783.341Z" fill="#3A4E82"/>
</svg>
