<svg width="1440" height="834" viewBox="0 0 1440 834" fill="none" xmlns="http://www.w3.org/2000/svg">
<path d="M1460.11 734.792C1445.8 737.541 1435.88 707.965 1401.56 698.562C1380.85 692.868 1352.32 695.023 1340.17 708.376C1327.99 721.836 1342.31 735.817 1341.92 776.814C1341.72 801.917 1341.41 825.197 1325.5 831.731C1308.21 838.844 1279.28 823.615 1247.76 807.113C1220.9 793.038 1221.14 788.6 1204.23 783.678C1197.67 781.709 1159.06 771.201 1134.78 786.237C1125.55 791.959 1124.12 797.917 1108.9 805.621C1093.58 813.187 1085.55 812.116 1082.81 811.481C1075.3 809.968 1070.73 805.429 1064.47 799.266C1031.01 766.598 1033.13 770.455 1022.02 757.444C1003.57 735.884 1002.46 730.688 1003.22 726.372C1004.6 718.272 1011.9 716.593 1018.89 708.67C1028.74 697.477 1023.91 689.96 1026.55 655.768C1029.19 622.138 1030.59 605.285 1037.57 595.675C1039.41 593.181 1043.97 587.387 1043.05 579.653C1042.47 574.579 1039.48 569.172 1032.39 562.478C1018.59 549.742 1006.42 548.721 991.562 541.016C965.936 527.562 971.956 514.473 947.541 498.83C943.949 496.539 917.78 480.153 889.181 482.627C879.317 483.488 873.392 487.505 861.507 494.521C840.807 506.682 831.321 516.948 817.59 528.814C791.737 551.009 778.917 562.524 762.881 565.548C731.276 571.368 719.836 551.655 679.663 556.951C658.716 559.737 654.452 566.047 626.114 568.582C617.921 569.38 601.611 570.657 583.604 568.06C547.721 562.898 543.175 547.251 504.859 533.779C480.022 525.111 457.973 523.264 414.841 519.567C385.216 517.088 371.071 517.968 351.82 509.021C333.222 500.226 336.212 494.631 315.63 482.008C297.093 470.645 275.751 465.256 233.489 455.024C196.587 446.034 195.4 448.117 185.676 442.61C169.609 433.615 160.107 418.505 141.233 388.314C130.041 370.455 123.572 359.977 118.871 344.406C113.555 326.785 117.571 326.143 112.419 309.57C105.103 285.872 96.594 286.26 86.6733 259.602C78.7738 238.351 82.7419 234.442 73.7716 224.619C64.9066 214.933 53.2035 210.203 53.1421 201.208C53.1291 195.479 57.737 193.515 56.1627 188.547C54.0284 181.879 43.2989 178.272 37.8288 176.333C20.3179 169.922 6.13879 158.22 -9.79692 149.255C-31.6827 136.892 -50.7893 126.182 -65.5589 108.281C-80.3538 90.4864 -74.2505 85.7243 -94.7469 58.8635C-113.347 34.4625 -124.207 30.8261 -128.758 29.6604C-145.288 25.4976 -157.582 33.654 -162.944 28.3712C-167.624 23.6956 -162.845 12.3401 -154.374 6.32982C-142.214 -2.41917 -122.381 0.0386417 -109.686 4.66102C-92.778 10.7077 -83.9524 22.2932 -66.9294 45.2066C-52.4098 64.7338 -51.3214 71.1604 -36.8526 90.9004C-20.1711 113.51 -16.817 119.114 -8.76723 124.121C4.00117 131.904 10.828 129.891 28.8481 138.216C44.1439 145.237 53.702 153.175 62.7878 160.779C89.9143 183.561 105.013 207.601 114.032 220.691C155.324 280.095 187.37 277.633 224.623 334.306C229.187 341.2 235.942 359.155 252.969 394.194C259.191 406.861 262.738 413.969 271.725 418.519C286.265 425.814 298.302 418.159 322.909 423.743C332.846 426.043 339.526 429.273 352.81 436.052C382.625 451.037 382.569 458.209 406.652 471.193C433.54 485.724 461.572 491.988 470.096 493.849C492.924 498.796 498.131 496.633 510.499 503.201C528.999 512.984 527.082 522.757 546.079 532.767C560.805 540.442 575.173 541.522 588.051 542.482C606.755 543.893 623.16 545.108 633.653 536.983C645.496 527.824 636.362 516.953 646.437 497.281C652.595 485.347 668.23 465.502 686.593 466.609C703.335 467.565 704.732 484.841 735.554 501.967C743.967 506.608 770.647 521.428 797.662 516.342C809.657 514.067 816.984 508.802 825.454 502.792C853.074 483.027 847.639 467.062 865.493 458.733C888.943 447.769 924.634 462.991 945.948 471.966C967.237 481.048 972.974 487.652 1010.47 510.926C1053.02 537.279 1053.2 532.493 1063.79 541.904C1090.16 565.522 1108.14 605.833 1094.18 634.262C1085.92 650.985 1074.25 648.398 1062.22 672.22C1053.41 689.491 1052.4 705.31 1051.66 716.479C1050.55 733.848 1049.99 742.586 1056.24 752.229C1063.6 763.588 1078.71 774.271 1094.89 775.882C1104.58 776.89 1106.44 773.728 1134.8 766.483C1150.67 762.411 1158.62 760.321 1167.67 759.386C1178.86 758.159 1200.26 755.814 1222.3 764.059C1243.84 772.076 1245.61 782.59 1261.86 783.881C1279.31 785.338 1292.29 774.309 1294.05 772.697C1306.33 761.729 1302.11 751.097 1308.06 727.888C1313.2 708.083 1318.77 686.47 1338.46 676.209C1353.11 668.598 1369.18 670.634 1401.06 674.645C1435.87 679.109 1459.99 682.11 1469.52 697.114C1478.65 711.465 1471.9 732.805 1460.48 734.989L1460.11 734.792Z" fill="#3A4E82"/>
</svg>
