<svg width="1440" height="839" viewBox="0 0 1440 839" fill="none" xmlns="http://www.w3.org/2000/svg">
<path d="M1469.58 739.992C1455.09 742.701 1444.96 713.076 1410.19 703.567C1389.19 697.81 1360.32 699.883 1348.05 713.211C1335.76 726.644 1350.31 740.676 1350.03 781.701C1349.9 806.821 1349.66 830.115 1333.57 836.608C1316.09 843.675 1286.75 828.353 1254.78 811.748C1227.55 797.585 1227.77 793.145 1210.64 788.171C1203.99 786.181 1164.86 775.554 1140.32 790.53C1130.99 796.23 1129.57 802.187 1114.18 809.852C1098.69 817.38 1090.56 816.285 1087.78 815.641C1080.18 814.106 1075.53 809.55 1069.18 803.365C1035.2 770.577 1037.35 774.443 1026.07 761.39C1007.32 739.762 1006.19 734.56 1006.94 730.243C1008.31 722.141 1015.7 720.482 1022.76 712.574C1032.69 701.401 1027.78 693.865 1030.35 659.657C1032.93 626.012 1034.29 609.151 1041.34 599.554C1043.19 597.064 1047.78 591.28 1046.83 583.538C1046.23 578.458 1043.19 573.039 1035.98 566.32C1021.98 553.535 1009.65 552.478 994.584 544.724C968.596 531.187 974.653 518.107 949.886 502.382C946.241 500.079 919.696 483.606 890.746 485.999C880.762 486.832 874.774 490.834 862.762 497.821C841.84 509.931 832.265 520.176 818.398 532.01C792.287 554.145 779.342 565.631 763.113 568.611C731.13 574.343 719.488 554.584 678.829 559.768C657.628 562.495 653.329 568.797 624.644 571.251C616.351 572.026 599.841 573.256 581.601 570.606C545.253 565.336 540.604 549.665 501.768 536.073C476.594 527.327 454.264 525.414 410.581 521.59C380.578 519.024 366.258 519.863 346.739 510.855C327.882 501.999 330.894 496.409 310.016 483.718C291.213 472.293 269.588 466.839 226.766 456.478C189.376 447.374 188.18 449.455 178.318 443.916C162.023 434.868 152.357 419.72 133.156 389.454C121.771 371.551 115.19 361.046 110.383 345.451C104.948 327.802 109.013 327.171 103.747 310.572C96.2687 286.836 87.6541 287.2 77.5296 260.495C69.4679 239.206 73.474 235.306 64.362 225.451C55.3573 215.732 43.4934 210.965 43.4045 201.963C43.3742 196.231 48.034 194.278 46.4251 189.303C44.2442 182.623 33.3696 178.983 27.8253 177.027C10.076 170.561 -4.31548 158.809 -20.4773 149.792C-42.6739 137.357 -62.0517 126.585 -77.0595 108.628C-92.0927 90.7785 -85.9273 86.0309 -106.76 59.0921C-125.666 34.6204 -136.673 30.95 -141.284 29.7703C-158.033 25.5567 -170.457 33.6832 -175.902 28.3812C-180.654 23.6888 -175.849 12.3393 -167.291 6.34941C-155.005 -2.37039 -134.916 0.146531 -122.048 4.80891C-104.911 10.9088 -95.9401 22.5278 -78.6355 45.5063C-63.876 65.0891 -62.7548 71.5233 -48.046 91.3189C-31.0881 113.993 -27.6753 119.61 -19.5098 124.644C-6.55843 132.469 0.347848 130.475 18.6184 138.858C34.1266 145.928 43.828 153.899 53.0502 161.535C80.5841 184.411 95.9436 208.511 105.114 221.636C147.101 281.201 179.54 278.83 217.429 335.65C222.071 342.563 228.963 360.549 246.309 395.662C252.646 408.355 256.259 415.479 265.372 420.058C280.116 427.4 292.28 419.775 317.212 425.433C327.281 427.764 334.054 431.016 347.524 437.838C377.757 452.919 377.722 460.096 402.145 473.159C429.412 487.778 457.814 494.128 466.451 496.015C489.579 501.031 494.844 498.882 507.387 505.49C526.148 515.334 524.236 525.107 543.501 535.18C558.434 542.902 572.984 544.025 586.027 545.023C604.969 546.489 621.583 547.752 632.183 539.652C644.147 530.522 634.866 519.616 645.008 499.96C651.208 488.035 666.98 468.222 685.575 469.382C702.53 470.388 703.997 487.68 735.255 504.907C743.787 509.576 770.846 524.484 798.183 519.472C810.321 517.23 817.724 511.983 826.283 505.993C854.189 486.294 848.638 470.302 866.691 462.019C890.401 451.116 926.585 466.452 948.193 475.495C969.775 484.645 975.603 491.27 1013.64 514.669C1056.8 541.164 1056.97 536.374 1067.72 545.822C1094.49 569.533 1112.81 609.925 1098.77 638.332C1090.45 655.043 1078.63 652.42 1066.52 676.224C1057.65 693.481 1056.67 709.308 1055.96 720.483C1054.89 737.861 1054.34 746.604 1060.7 756.271C1068.19 767.66 1083.52 778.394 1099.9 780.052C1109.72 781.09 1111.59 777.93 1140.28 770.762C1156.34 766.733 1164.39 764.665 1173.55 763.755C1184.88 762.561 1206.53 760.276 1228.87 768.59C1250.71 776.676 1252.53 787.202 1268.99 788.541C1286.66 790.049 1299.77 779.05 1301.55 777.442C1313.95 766.502 1309.64 755.85 1315.6 732.642C1320.74 712.839 1326.32 691.227 1346.23 681.017C1361.04 673.442 1377.31 675.526 1409.61 679.632C1444.86 684.201 1469.29 687.273 1478.99 702.315C1488.27 716.702 1481.51 738.038 1469.95 740.19L1469.58 739.992Z" fill="#3A4E82"/>
</svg>
