<svg width="1440" height="786" viewBox="0 0 1440 786" fill="none" xmlns="http://www.w3.org/2000/svg">
<path d="M1452.46 783.34C1446.02 788.887 1435.14 782.363 1420 779.055C1394.96 773.504 1389.46 783.457 1366.85 781.664C1341.24 779.562 1313.49 763.631 1298.53 741.929C1282.88 719.231 1292.55 706.974 1274.33 684.358C1262.08 669.163 1247.35 661.96 1235.04 655.835C1200.08 638.686 1187.67 648.437 1166.43 636.602C1135.63 619.416 1121.33 576.248 1120.02 545.808C1117.98 497.389 1148.49 470.524 1130.79 442.441C1129.15 439.841 1123.29 430.849 1112.5 426.218C1092.09 417.558 1080.49 436.091 1053.03 434.944C1030.62 434.007 1002.51 420.113 991.778 398.661C986 387.151 987.371 377.645 978.887 372.861C969.24 367.35 961.198 376.189 948.38 373.799C932.743 370.885 923.357 353.82 914.256 337.235C902.27 315.431 888.284 289.726 895.545 263.694C900.823 244.725 911.356 247.143 932.676 209.014C944.481 187.998 945.423 179.709 944.715 172.694C943.874 164.573 938.047 154.92 926.612 135.81C918.788 122.791 914.766 116.184 907.825 108.358C906.879 107.29 897.288 96.5827 884.234 87.4439C853.065 65.7422 832 74.1383 791.743 55.1015C762.664 41.3368 765.955 33.3047 740.168 24.7397C708.924 14.3774 681.07 18.732 676.194 19.5034C647.31 24.2375 643.385 35.4331 609.454 38.8859C600.666 39.7638 594.531 39.648 586.109 43.435C570.947 50.1444 564.213 62.4237 556.258 74.762C547.654 88.121 531.468 113.388 510.507 131.837C498.721 142.299 475.677 162.704 455.319 156.062C441.171 151.427 440.699 137.93 428.353 135.806C423.59 135.005 412.7 135.16 381.053 173.334C351.67 208.802 350.075 221.987 333.146 226.598C326.681 228.394 313.544 225.112 287.396 218.585C259.744 211.635 245.95 208.303 229.685 200.803C203.153 188.688 202.541 181.834 189.709 181.712C168.613 181.412 165.992 199.923 141.51 203.084C126.816 205.113 114.762 200.13 91.9746 190.802C65.5456 179.919 63.7432 172.998 46.1027 170.058C34.1331 168.039 24.0077 170.012 3.72599 174.084C-14.1497 177.626 -32.0863 181.419 -50.3679 193.803C-61.1127 201.082 -59.691 202.951 -65.9015 205.354C-90.4323 214.783 -132.492 193.236 -137.234 164.775C-138.934 154.676 -136.343 140.7 -129.224 138.419C-118.296 134.8 -107.678 162.235 -78.0146 170.282C-69.8613 172.568 -63.6047 172.183 -51.2174 171.379C-23.5312 169.918 -11.0725 161.649 12.953 155.954C38.5104 150.02 51.4488 147.499 64.9654 151.422C90.4934 158.845 94.7636 178.219 121.295 181.513C134.294 183.152 145.788 179.958 150.661 178.651C170.338 173.208 173.063 164.749 186.655 161.743C202.653 158.209 207.979 167.721 235.825 175.527C245.609 178.269 275.052 186.122 308.42 178.368C321.761 175.292 338.664 171.342 353.274 157.528C363.688 147.751 363.364 141.913 387.471 108.307C399.028 92.1676 402.168 89.1718 407.033 86.7933C417.261 81.6413 424.323 84.5565 449.41 82.7676C457.73 82.1596 466.583 81.5672 477.271 79.4845C494.865 75.9964 512.053 72.5279 523.629 59.0666C529.775 51.9683 527.042 50.5339 535.426 36.9794C538.953 31.2855 549.191 14.5086 562.026 6.3452C577.572 -3.59798 592.008 2.05269 622.945 4.30942C652.942 6.57026 645.176 1.58664 696.968 1.26951C746.476 0.980293 771.795 0.993971 792.667 13.7947C800.493 18.5281 806.887 24.1962 821.867 31.4695C840.774 40.779 854.313 43.5051 862.908 46.1815C886.965 53.5934 889.714 65.9917 940.35 114C982.385 153.85 995.381 159.364 995.466 175.56C995.592 188.827 985.726 200.763 966.024 224.51C954.667 238.167 945.835 245.848 934.015 264.721C925.198 278.956 923.306 285.643 922.63 291.735C922.394 293.808 920.898 312.099 932.968 328.046C943.9 342.605 960.142 346.89 973.72 350.563C998.617 357.274 1007.86 350.645 1023.62 361.343C1030.07 365.689 1030.08 367.832 1040.78 375.642C1051.38 383.292 1059.12 388.936 1067.33 390.971C1090.06 396.675 1100.02 370.596 1122.23 374.552C1138.4 377.481 1149.95 394.483 1154.44 405.767C1156.45 410.74 1157.68 416.699 1153.3 456.235C1150.63 480.478 1149.82 481.053 1148.42 496.166C1146.01 522.087 1144.89 535.002 1147.7 551.561C1150.44 567.299 1153.73 586.266 1167.79 600.097C1181.12 613.056 1191.23 608.94 1226.64 619.802C1264.78 631.562 1284.48 637.618 1296.03 655.156C1310.33 676.807 1299.17 696.267 1318.36 713.807C1323.62 718.623 1330.18 721.933 1343.41 728.714C1356.03 735.194 1365.73 738.848 1376.56 742.818C1400.31 751.481 1412.11 755.858 1425.36 758.103C1441.97 760.887 1451.22 759.739 1455.22 766.472C1458.13 771.566 1457 779.535 1452.74 783.286L1452.46 783.34Z" fill="#47650C"/>
</svg>
