<svg width="1440" height="786" viewBox="0 0 1440 786" fill="none" xmlns="http://www.w3.org/2000/svg">
<path d="M1553.46 783.341C1547.02 788.887 1536.14 782.363 1521 779.055C1495.96 773.505 1490.46 783.457 1467.85 781.664C1442.24 779.562 1414.49 763.631 1399.53 741.93C1383.88 719.231 1393.55 706.974 1375.33 684.359C1363.08 669.163 1348.35 661.96 1336.04 655.836C1301.08 638.686 1288.67 648.437 1267.43 636.602C1236.63 619.417 1222.33 576.248 1221.02 545.808C1218.98 497.39 1249.49 470.524 1231.79 442.441C1230.15 439.842 1224.29 430.85 1213.5 426.219C1193.09 417.559 1181.49 436.091 1154.03 434.944C1131.62 434.007 1103.51 420.113 1092.78 398.661C1087 387.151 1088.37 377.645 1079.89 372.861C1070.24 367.35 1062.2 376.189 1049.38 373.799C1033.74 370.886 1024.36 353.82 1015.26 337.235C1003.27 315.432 989.284 289.726 996.545 263.694C1001.82 244.725 1012.36 247.143 1033.68 209.014C1045.48 187.999 1046.42 179.709 1045.71 172.694C1044.87 164.573 1039.05 154.92 1027.61 135.81C1019.79 122.791 1015.77 116.184 1008.83 108.358C1007.88 107.291 998.288 96.583 985.234 87.4442C954.065 65.7425 933 74.1385 892.743 55.1017C863.664 41.3371 866.955 33.3049 841.168 24.74C809.924 14.3776 782.07 18.7322 777.194 19.5037C748.31 24.2378 744.385 35.4334 710.454 38.8861C701.666 39.7641 695.531 39.6482 687.109 43.4352C671.947 50.1446 665.213 62.4239 657.258 74.7623C648.654 88.1213 632.468 113.388 611.507 131.837C599.721 142.3 576.677 162.704 556.319 156.062C542.171 151.428 541.699 137.93 529.353 135.806C524.59 135.005 513.7 135.16 482.053 173.335C452.67 208.802 451.075 221.988 434.146 226.598C427.681 228.394 414.544 225.113 388.396 218.585C360.744 211.635 346.95 208.303 330.685 200.803C304.153 188.688 303.541 181.834 290.709 181.712C269.613 181.412 266.992 199.923 242.51 203.084C227.816 205.113 215.762 200.13 192.975 190.802C166.546 179.919 164.743 172.998 147.103 170.058C135.133 168.039 125.008 170.012 104.726 174.084C86.8503 177.627 68.9137 181.42 50.6321 193.803C39.8873 201.083 41.309 202.951 35.0985 205.354C10.5677 214.783 -31.4918 193.236 -36.234 164.775C-37.9339 154.676 -35.3429 140.701 -28.2238 138.419C-17.2963 134.8 -6.67809 162.235 22.9854 170.283C31.1387 172.568 37.3953 172.184 49.7826 171.379C77.4688 169.918 89.9275 161.649 113.953 155.954C139.51 150.02 152.449 147.499 165.965 151.422C191.493 158.845 195.764 178.219 222.295 181.513C235.294 183.152 246.788 179.959 251.661 178.652C271.338 173.208 274.063 164.75 287.655 161.744C303.653 158.209 308.979 167.721 336.825 175.527C346.609 178.27 376.052 186.122 409.42 178.368C422.761 175.292 439.664 171.343 454.274 157.529C464.688 147.751 464.364 141.913 488.471 108.308C500.028 92.1679 503.168 89.172 508.033 86.7935C518.261 81.6415 525.323 84.5567 550.41 82.7678C558.73 82.1598 567.583 81.5674 578.271 79.4847C595.865 75.9967 613.053 72.5282 624.629 59.0668C630.775 51.9685 628.042 50.5342 636.426 36.9797C639.953 31.2857 650.191 14.5089 663.026 6.34545C678.572 -3.59773 693.008 2.05294 723.945 4.30966C753.942 6.5705 746.176 1.58688 797.968 1.26976C847.476 0.980537 872.795 0.994215 893.667 13.795C901.493 18.5283 907.887 24.1965 922.867 31.4697C941.774 40.7792 955.313 43.5053 963.908 46.1817C987.965 53.5936 990.714 65.992 1041.35 114C1083.38 153.85 1096.38 159.364 1096.47 175.56C1096.59 188.827 1086.73 200.763 1067.02 224.51C1055.67 238.167 1046.83 245.849 1035.02 264.722C1026.2 278.956 1024.31 285.643 1023.63 291.735C1023.39 293.808 1021.9 312.1 1033.97 328.046C1044.9 342.605 1061.14 346.891 1074.72 350.563C1099.62 357.275 1108.86 350.645 1124.62 361.343C1131.07 365.69 1131.08 367.832 1141.78 375.642C1152.38 383.292 1160.12 388.936 1168.33 390.972C1191.06 396.675 1201.02 370.596 1223.23 374.552C1239.4 377.481 1250.95 394.483 1255.44 405.767C1257.45 410.74 1258.68 416.699 1254.3 456.235C1251.63 480.478 1250.82 481.053 1249.42 496.166C1247.01 522.087 1245.89 535.003 1248.7 551.561C1251.44 567.299 1254.73 586.266 1268.79 600.097C1282.12 613.056 1292.23 608.94 1327.64 619.802C1365.78 631.562 1385.48 637.618 1397.03 655.157C1411.33 676.808 1400.17 696.267 1419.36 713.807C1424.62 718.623 1431.18 721.934 1444.41 728.715C1457.03 735.195 1466.73 738.848 1477.56 742.818C1501.31 751.482 1513.11 755.858 1526.36 758.103C1542.97 760.887 1552.22 759.74 1556.22 766.472C1559.13 771.566 1558 779.535 1553.74 783.286L1553.46 783.341Z" fill="#47650C"/>
</svg>
