<svg width="1440" height="433" viewBox="0 0 1440 433" fill="none" xmlns="http://www.w3.org/2000/svg">
<path d="M-139.765 398.749C-129.841 389.886 -107.874 406.668 -76.4127 397.066C-57.4124 391.281 -36.0449 376.042 -32.9017 360.494C-29.7895 344.857 -47.743 341.543 -67.0857 311.502C-78.9686 293.132 -89.8856 276.033 -80.5247 263.651C-70.3576 250.186 -40.3371 247.409 -7.669 244.316C20.1727 241.691 22.1188 245.032 37.7515 240.516C43.8529 238.802 79.2131 227.949 91.0753 205.362C95.5804 196.772 93.8403 191.753 102.101 178.849C110.51 165.993 117.325 162.928 119.786 162.075C126.404 159.579 132.172 160.692 140.041 162.181C181.981 169.929 178.471 168.134 193.432 172.285C218.259 179.139 221.618 182.392 223.096 185.896C225.895 192.456 220.967 197.176 219.272 206.298C216.907 219.167 224.304 222.325 238.624 248.485C252.673 274.237 259.654 287.178 258.777 297.523C258.53 300.219 257.73 306.621 262.156 311.813C265.047 315.229 269.985 317.733 278.767 319.207C295.706 321.868 305.757 316.777 321.119 315.266C347.695 312.779 349.243 325.195 375.917 324.883C379.837 324.829 408.245 324.217 429.519 308.709C436.853 303.355 439.58 297.59 445.55 286.785C455.976 268.01 458.504 255.989 463.599 240.768C473.262 212.217 477.809 197.689 488.953 187.801C510.984 168.416 529.419 177.285 558.43 154.175C573.545 142.107 573.869 135.469 594.909 120.042C600.961 115.534 613.158 106.787 628.544 100.047C659.201 86.6074 670.272 95.8213 706.823 87.2657C730.485 81.6727 748.687 72.4503 784.333 54.4693C808.787 42.0753 819.475 34.6551 838.884 31.9422C857.706 29.4324 858.04 34.9393 880.256 34.2652C900.262 33.6544 919.607 27.3492 957.704 14.5428C990.995 3.40224 990.929 1.31686 1001.21 0.665507C1018.14 -0.485408 1032.84 5.96183 1062.14 18.8969C1079.49 26.5356 1089.6 31.0648 1100.76 40.1484C1113.38 50.4305 1110.53 52.8231 1122.52 62.4205C1139.63 76.1683 1146.13 71.8076 1166.7 86.4624C1183.09 98.1487 1181.85 102.897 1193.61 105.749C1205.21 108.553 1216.67 106.387 1221.03 112.907C1223.79 117.072 1221.11 120.711 1224.73 123.573C1229.6 127.406 1239.76 124.889 1244.98 123.68C1261.81 119.954 1278.56 121.679 1295.37 120.569C1318.49 119.081 1338.63 117.72 1358.81 123.675C1378.96 129.541 1376.45 135.933 1405.42 145.666C1431.73 154.518 1442 151.961 1446.14 150.628C1461.11 145.737 1466.86 133.905 1473.6 135.182C1479.52 136.343 1481.21 146.902 1477.44 155.338C1472.08 167.536 1455.33 175.252 1443.14 177.971C1426.97 181.672 1414.48 177.467 1390.12 168.943C1369.36 161.684 1365.42 157.526 1344.6 150.089C1320.66 141.622 1315.33 139.149 1306.61 139.362C1292.85 139.815 1288.46 144.552 1270.31 147.128C1254.93 149.347 1243.62 148.148 1232.84 146.966C1200.61 143.38 1177.23 133.114 1163.87 127.906C1102.96 104.445 1078.97 121.596 1022.54 98.1879C1015.65 95.3556 1001.74 85.5204 971.57 68.1696C960.61 61.929 954.416 58.4539 945.177 59.4482C930.26 61.1059 924.478 72.4481 902.475 80.1767C893.568 83.2647 886.773 84.1144 873.091 85.545C842.491 88.9248 839.096 83.6761 813.957 85.7652C785.874 88.0718 760.856 96.9465 753.269 99.6772C732.969 107.016 729.917 111.087 717.054 112.233C697.835 113.976 694.655 105.942 674.936 107.759C659.691 109.229 647.89 115.328 637.315 120.802C621.95 128.739 608.483 135.717 604.138 146.662C599.228 159.007 611.614 162.544 613.134 181.696C614.019 193.337 611.254 215.279 596.303 223.274C582.695 230.602 573.315 218.694 540.898 220.997C532.066 221.649 504.007 223.647 485.229 240.297C476.9 247.703 473.67 255.048 469.899 263.484C457.684 291.112 469.607 300.131 459.578 314.753C446.418 333.974 411.09 339.998 390.048 343.679C368.974 347.27 361.302 345.211 320.697 346.236C274.64 347.445 276.797 351.014 263.971 349.236C231.933 344.681 198.488 323.947 195.819 296.559C194.294 280.421 204.694 276.715 202.72 253.603C201.36 236.806 194.572 224.802 189.793 216.318C182.336 203.14 178.592 196.506 169.057 192.483C157.83 187.741 140.839 187.205 127.366 193.784C119.269 197.696 119.326 200.889 100.529 219.755C90.0157 230.328 84.7746 235.659 78.1129 240.68C69.9108 246.937 54.2336 258.898 32.971 263.459C12.2083 267.946 5.77838 261.139 -7.60181 267.987C-22.0057 275.29 -26.9113 289.541 -27.524 291.561C-31.9057 305.43 -23.4906 311.147 -17.0369 330.897C-11.5777 347.78 -5.59011 366.186 -16.1381 383.096C-23.9923 395.659 -37.59 401.879 -64.5511 414.238C-94.0283 427.671 -114.409 437.046 -129.086 430.689C-143.138 424.617 -148.071 405.845 -140.148 398.781L-139.765 398.749Z" fill="#A40616"/>
</svg>
