<svg width="1440" height="579" viewBox="0 0 1440 579" fill="none" xmlns="http://www.w3.org/2000/svg">
<path d="M1457.8 556.133C1452.96 563.098 1440.34 559.816 1424.39 560.712C1397.98 562.123 1395.3 573.009 1372.36 577.328C1346.34 582.155 1314.35 574.457 1293.44 557.891C1271.56 540.567 1277.74 526.388 1253.34 509.824C1236.93 498.698 1220.3 495.798 1206.37 493.277C1166.88 486.343 1157.28 498.879 1132.89 493.327C1097.52 485.251 1071.27 448.186 1061.46 419.716C1045.92 374.416 1068.7 340.861 1043.29 318.983C1040.93 316.96 1032.61 310.004 1020.6 308.494C997.924 305.725 991.582 326.359 964.008 332.58C941.497 337.658 909.714 331.984 893.069 314.53C884.119 305.17 882.825 295.805 873.067 293.534C861.951 290.884 856.437 301.392 843.046 302.54C826.71 303.944 812.627 290.285 798.961 277.005C780.973 259.551 759.911 238.936 759.849 212.357C759.791 192.993 770.921 192.479 781.437 150.706C787.285 127.667 785.905 119.568 783.243 113.115C780.141 105.65 771.66 98.0618 754.972 83.0122C743.57 72.7683 737.732 67.5832 728.656 62.0206C727.419 61.262 714.908 53.6767 699.398 48.4982C662.396 36.2469 643.831 49.802 598.552 42.4923C565.843 37.199 566.867 28.7185 538.877 27.472C504.968 25.9765 478.535 37.5119 473.91 39.5401C446.561 51.709 445.791 63.3534 413.073 75.6526C404.595 78.8225 398.473 80.3454 391.17 86.1724C377.993 96.5597 374.738 109.978 370.287 123.776C365.477 138.714 356.467 166.944 340.812 189.989C332.034 203.031 314.858 228.483 292.794 227.612C277.456 226.989 273.218 214.336 260.369 215.61C255.418 216.12 244.651 219.165 223.897 263.73C204.636 305.129 206.735 318.037 191.217 326.908C185.301 330.329 171.345 330.718 143.566 331.497C114.176 332.276 99.5523 332.792 81.3122 330.02C51.5916 325.611 49.0694 319.285 36.2973 322.584C15.2729 327.914 17.8407 346.138 -5.57854 355.646C-19.5985 361.477 -32.9548 359.968 -58.1804 357.201C-87.455 353.93 -91.177 347.858 -109.509 349.769C-121.955 351.043 -131.455 355.606 -150.451 364.858C-167.206 372.969 -183.951 381.334 -198.64 397.924C-207.273 407.675 -205.34 409.066 -210.834 412.994C-232.551 428.449 -280.32 419.243 -292.975 393.559C-297.483 384.449 -298.814 370.528 -292.385 366.474C-282.548 360.139 -264.346 383.288 -232.653 383.013C-223.921 383.007 -217.818 380.978 -205.746 376.919C-178.671 368.168 -168.613 357.023 -146.354 345.237C-122.642 332.818 -110.502 326.988 -95.9895 327.104C-68.5758 327.339 -58.9262 344.545 -31.6699 340.603C-18.3081 338.695 -7.79043 332.613 -3.3185 330.078C14.694 319.688 15.0362 310.955 27.6889 304.491C42.5824 296.887 50.5259 304.476 80.3482 304.455C90.8262 304.448 122.246 304.047 153.204 287.825C165.588 281.362 181.264 273.125 191.908 256.158C199.515 244.129 197.563 238.688 212.108 200.456C219.073 182.099 221.353 178.427 225.518 174.881C234.232 167.281 242.056 168.161 266.459 159.792C274.548 157.002 283.17 154.085 293.199 149.268C309.69 141.284 325.783 133.426 333.515 117.6C337.633 109.244 334.519 108.613 339.056 93.5488C340.967 87.2193 346.445 68.6106 356.906 57.4658C369.56 43.9148 385.469 45.4227 416.808 39.3261C447.217 33.4833 438.116 30.8317 489.44 16.748C538.503 3.29855 563.64 -3.42656 587.934 3.13813C597.025 5.53661 604.954 9.20154 621.856 12.1009C643.224 15.8832 657.425 14.861 666.704 15.1077C692.654 15.7228 698.846 26.7296 762.519 58.7067C815.374 85.2489 829.814 87.0109 834.422 102.322C838.253 114.849 831.792 128.776 818.867 156.502C811.408 172.454 804.785 182.078 798.323 203.092C793.547 218.916 793.536 225.75 794.566 231.698C794.911 233.723 798.534 251.439 814.969 263.325C829.887 274.199 847.207 273.934 861.71 273.798C888.299 273.526 895.627 264.788 914.255 270.724C921.868 273.124 922.482 275.148 935.281 279.696C947.941 284.117 957.2 287.401 965.922 287.142C990.079 286.493 992.675 259.153 1015.83 256.986C1032.7 255.455 1048.91 268.48 1056.52 277.967C1059.9 282.142 1062.79 287.455 1069.49 326.053C1073.6 349.717 1072.96 350.477 1075.8 365.157C1080.64 390.34 1083.13 402.868 1090.54 417.797C1097.66 431.968 1106.23 449.048 1124.05 458.401C1140.9 467.123 1149.79 460.535 1187.97 461.395C1229.12 462.379 1250.36 462.871 1266.72 476.402C1286.96 493.095 1281.32 514.488 1305.27 525.989C1311.83 529.149 1319.27 530.536 1334.29 533.436C1348.64 536.211 1359.28 537.09 1371.14 537.967C1397.14 539.848 1410.07 540.852 1423.86 539.45C1441.12 537.666 1449.99 534.117 1455.83 539.428C1460.14 543.475 1461.25 551.321 1458.06 556.007L1457.8 556.133Z" fill="#D49634"/>
</svg>
