<svg width="2343" height="652" viewBox="0 0 2343 652" fill="none" xmlns="http://www.w3.org/2000/svg">
<path d="M1172.14 343.477C1179.93 338.044 1193.77 352.566 1216.73 348.831C1230.59 346.587 1247 337.692 1250.65 326.68C1254.29 315.599 1242.01 311.316 1231.24 287.397C1224.61 272.765 1218.55 259.16 1226.27 251.102C1234.65 242.339 1255.97 243.432 1279.17 244.57C1298.94 245.549 1299.99 248.188 1311.37 246.518C1315.81 245.902 1341.62 241.66 1352.05 226.42C1356.01 220.623 1355.25 216.782 1362.25 208.229C1369.34 199.727 1374.41 198.199 1376.21 197.832C1381.09 196.7 1385.03 198.111 1390.41 200.014C1419.1 210.023 1416.81 208.349 1426.91 212.931C1443.69 220.509 1445.74 223.231 1446.45 225.94C1447.8 231.014 1443.91 233.945 1441.87 240.422C1439.01 249.561 1443.91 252.633 1451.51 273.2C1458.97 293.441 1462.66 303.605 1461.08 311.058C1460.66 312.998 1459.5 317.584 1462.12 321.831C1463.83 324.622 1467.06 326.962 1473.08 328.949C1484.71 332.65 1492.24 329.982 1503.15 330.476C1522.02 331.423 1521.95 340.639 1540.69 343.183C1543.44 343.551 1563.42 346.056 1579.79 336.955C1585.43 333.813 1587.88 329.892 1593.07 322.632C1602.13 310.022 1605.02 301.517 1610.02 290.946C1619.45 271.127 1623.99 261.004 1632.73 254.95C1649.99 243.101 1662.09 251.485 1684.59 237.645C1696.31 230.414 1697.16 225.606 1713.35 216.541C1718.02 213.882 1727.38 208.77 1738.8 205.453C1761.56 198.836 1768.46 206.706 1794.89 204.264C1812.01 202.643 1825.63 197.808 1852.31 188.398C1870.61 181.899 1878.8 177.598 1892.66 177.636C1906.1 177.761 1905.82 181.812 1921.46 183.629C1935.55 185.262 1949.71 182.673 1977.62 177.291C2002 172.625 2002.15 171.097 2009.42 171.69C2021.4 172.61 2031.12 178.84 2050.46 191.318C2061.92 198.691 2068.58 203.044 2075.56 210.828C2083.46 219.639 2081.24 221.088 2088.76 229.334C2099.47 241.138 2104.44 238.632 2117.5 251.458C2127.91 261.684 2126.59 265.018 2134.57 268.319C2142.45 271.57 2150.69 271.181 2153.14 276.389C2154.69 279.713 2152.47 282.089 2154.74 284.552C2157.8 287.854 2165.16 287.073 2168.94 286.734C2181.08 285.766 2192.67 288.763 2204.56 289.7C2220.91 291.016 2235.17 292.117 2248.77 298.557C2262.35 304.928 2260 309.329 2279.41 319.439C2297.04 328.627 2304.48 327.83 2307.5 327.287C2318.46 325.276 2323.59 317.244 2328.2 318.876C2332.25 320.337 2332.45 328.213 2329.02 333.974C2324.13 342.314 2311.66 346.201 2302.86 346.918C2291.17 347.936 2282.8 343.572 2266.51 334.825C2252.63 327.374 2250.25 323.932 2236.34 316.344C2220.34 307.682 2216.84 305.325 2210.7 304.574C2201.01 303.475 2197.48 306.473 2184.52 306.467C2173.52 306.487 2165.7 304.438 2158.25 302.456C2135.98 296.492 2120.54 286.575 2111.65 281.389C2071.12 257.95 2052.7 267.967 2015.3 245.032C2010.74 242.251 2001.89 233.632 1982.35 217.843C1975.24 212.153 1971.22 208.975 1964.65 208.74C1954.04 208.399 1948.92 216.071 1932.77 219.421C1926.24 220.748 1921.39 220.662 1911.66 220.284C1889.89 219.569 1888 215.389 1870.17 214.3C1850.26 213.065 1831.89 216.938 1826.31 218.141C1811.39 221.385 1808.87 224.036 1799.74 223.536C1786.1 222.811 1784.62 216.621 1770.62 215.897C1759.79 215.385 1750.95 218.608 1743.02 221.501C1731.51 225.693 1721.41 229.383 1717.34 236.914C1712.75 245.407 1721.11 249.274 1720.39 263.4C1719.93 271.982 1715.95 287.697 1704.71 291.975C1694.49 295.906 1689.02 286.246 1666.07 284.558C1659.81 284.116 1639.95 282.657 1625.23 292.85C1618.7 297.386 1615.75 302.407 1612.32 308.168C1601.18 327.048 1608.7 334.865 1600.31 344.487C1589.29 357.138 1563.95 357.86 1548.85 358.359C1533.73 358.788 1528.54 356.49 1499.97 353.019C1467.56 349.115 1468.74 351.943 1459.91 349.313C1437.86 342.662 1416.34 324.066 1417.01 303.814C1417.45 291.885 1425.09 290.263 1425.86 273.203C1426.47 260.811 1422.82 251.35 1420.26 244.667C1416.26 234.281 1414.25 229.054 1407.94 225.129C1400.51 220.504 1388.64 218.348 1378.58 221.746C1372.53 223.758 1372.28 226.093 1357.34 237.899C1348.98 244.518 1344.81 247.862 1339.67 250.831C1333.33 254.542 1321.22 261.637 1305.89 262.754C1290.91 263.87 1287.03 258.237 1277.01 261.841C1266.23 265.671 1261.46 275.555 1260.84 276.964C1256.48 286.624 1261.85 291.668 1264.53 306.743C1266.79 319.623 1269.27 333.669 1260.3 344.906C1253.62 353.252 1243.51 356.375 1223.45 362.588C1201.52 369.322 1186.36 374.042 1176.65 367.881C1167.37 361.992 1165.65 347.789 1171.87 343.46L1172.14 343.477Z" fill="#47650C"/>
<path d="M1187.49 371.041C1178.9 375.086 1167.7 358.443 1144.43 358.262C1130.39 358.142 1112.72 364.151 1107.27 374.392C1101.82 384.703 1113.21 390.99 1119.8 416.38C1123.87 431.918 1127.55 446.349 1118.59 452.994C1108.85 460.222 1088.03 455.559 1065.35 450.535C1046.02 446.245 1045.43 443.466 1033.93 443.197C1029.45 443.057 1003.29 442.897 990.453 456.167C985.575 461.215 985.671 465.128 977.336 472.383C968.912 479.57 963.663 480.224 961.821 480.282C956.826 480.578 953.178 478.524 948.195 475.743C921.594 461.051 923.575 463.087 914.383 456.871C899.124 446.578 897.557 443.55 897.313 440.761C896.834 435.53 901.167 433.297 904.266 427.255C908.62 418.727 904.313 414.875 900.273 393.322C896.329 372.115 894.401 361.476 897.21 354.394C897.955 352.553 899.867 348.227 897.998 343.6C896.783 340.561 893.992 337.711 888.391 334.739C877.546 329.134 869.682 330.499 859.006 328.176C840.563 324.068 842.183 314.996 824.141 309.336C821.488 308.51 802.214 302.68 784.551 308.898C778.461 311.047 775.387 314.5 769.047 320.783C757.994 331.689 753.712 339.586 747.014 349.167C734.379 367.116 728.199 376.331 718.568 380.829C699.565 389.606 689.044 379.305 664.538 389.164C651.764 394.32 650.122 398.917 632.635 405.129C627.59 406.966 617.495 410.429 605.681 411.778C582.14 414.473 576.655 405.553 550.19 403.515C533.045 402.233 518.801 404.708 490.924 409.497C471.786 412.824 462.993 415.686 449.332 413.317C436.11 410.933 437.066 406.987 421.95 402.565C408.338 398.585 393.95 398.756 365.531 399.366C340.707 399.864 340.305 401.345 333.24 399.538C321.584 396.616 313.055 388.841 296.087 373.287C286.032 364.091 280.195 358.679 274.624 349.832C268.323 339.819 270.754 338.763 264.732 329.371C256.152 315.932 250.839 317.567 240.119 302.727C231.579 290.896 233.434 287.831 226.125 283.234C218.906 278.704 210.719 277.702 209.179 272.155C208.215 268.619 210.799 266.65 208.975 263.84C206.513 260.07 199.13 259.602 195.348 259.301C183.211 258.212 172.296 253.309 160.728 250.384C144.832 246.336 130.968 242.854 118.645 234.218C106.324 225.652 109.387 221.71 91.9489 208.479C76.1203 196.456 68.6493 195.991 65.5784 196.017C54.4364 196.156 48.0277 203.211 43.7567 200.827C40.0187 198.706 41.1437 190.908 45.4941 185.806C51.7188 178.408 64.6645 176.674 73.4594 177.447C85.1549 178.41 92.6669 184.119 107.251 195.482C119.687 205.163 121.447 208.954 133.887 218.775C148.204 230.006 151.26 232.917 157.183 234.69C166.552 237.404 170.531 235.041 183.31 237.229C194.149 239.057 201.515 242.393 208.527 245.601C229.474 255.225 243.03 267.599 250.915 274.205C286.929 304.129 306.772 297.353 339.777 326.252C343.812 329.762 351.078 339.745 367.689 358.597C373.736 365.401 377.164 369.21 383.603 370.547C394.011 372.669 400.34 365.966 416.825 365.38C423.489 365.172 428.25 366.072 437.778 368.081C459.123 372.448 460.285 376.888 477.673 380.959C497.092 385.526 515.855 384.798 521.553 384.55C536.806 383.863 539.736 381.673 548.65 383.702C561.975 386.711 562.395 393.062 576.073 396.131C586.661 398.457 595.922 396.768 604.222 395.249C616.278 393.053 626.849 391.114 632.125 384.375C638.081 376.775 630.494 371.558 633.577 357.754C635.478 349.372 642.047 334.55 653.837 332.223C664.578 330.068 668.345 340.51 690.684 346.035C696.776 347.523 716.112 352.302 732.337 344.731C739.539 341.358 743.291 336.905 747.641 331.803C761.798 315.065 755.698 306.095 765.592 298.022C778.582 287.405 803.681 290.955 818.65 293.004C833.621 295.123 838.35 298.261 865.933 306.489C897.228 315.79 896.54 312.804 904.802 316.881C925.414 327.146 943.505 349.098 939.429 368.947C936.995 380.633 929.193 380.947 925.566 397.635C922.879 409.748 924.878 419.686 926.28 426.706C928.478 437.617 929.578 443.107 935.141 448.038C941.69 453.847 953.024 457.968 963.514 456.311C969.809 455.345 970.456 453.087 987.169 443.961C996.522 438.843 1001.2 436.249 1006.76 434.186C1013.63 431.593 1026.76 426.637 1042.07 428.115C1057.02 429.535 1059.89 435.74 1070.38 433.873C1081.65 431.911 1088.02 422.97 1088.86 421.685C1094.79 412.897 1090.34 407.022 1090.23 391.71C1090.17 378.634 1090.09 364.37 1100.82 354.802C1108.81 347.699 1119.31 346.321 1140.12 343.571C1162.87 340.621 1178.61 338.519 1187.14 346.225C1195.31 353.592 1194.61 367.881 1187.75 371.103L1187.49 371.041Z" fill="#3A4E82"/>
</svg>
