<svg width="1440" height="466" viewBox="0 0 1440 466" fill="none" xmlns="http://www.w3.org/2000/svg">
<path d="M-55.8585 429.493C-46.4845 419.982 -23.488 437.897 7.3705 427.545C26.0076 421.309 46.4269 404.945 48.6085 388.294C50.7535 371.546 32.6009 368.04 11.4081 335.924C-1.60621 316.286 -13.5763 298.006 -4.98331 284.729C4.34869 270.291 34.1882 267.248 66.6551 263.862C94.326 260.988 96.478 264.561 111.827 259.69C117.82 257.841 152.499 246.141 162.962 221.933C166.935 212.727 164.885 207.358 172.346 193.524C179.958 179.743 186.581 176.446 188.989 175.526C195.451 172.84 201.286 174.018 209.244 175.594C251.651 183.792 248.03 181.878 263.243 186.287C288.486 193.568 292.045 197.043 293.739 200.79C296.942 207.806 292.308 212.871 291.177 222.64C289.607 236.422 297.197 239.786 313.13 267.758C328.765 295.294 336.543 309.132 336.305 320.208C336.225 323.095 335.821 329.95 340.566 335.499C343.667 339.149 348.759 341.819 357.629 343.376C374.728 346.186 384.461 340.713 399.724 339.06C426.139 336.336 428.453 349.624 455.1 349.228C459.015 349.162 487.376 348.441 507.686 331.79C514.687 326.041 517.057 319.863 522.357 308.283C531.62 288.159 533.405 275.284 537.557 258.979C545.453 228.391 549.101 212.828 559.631 202.217C580.457 181.413 599.435 190.866 627.009 166.059C641.374 153.105 641.287 145.998 661.368 129.434C667.139 124.594 678.792 115.202 693.757 107.951C723.573 93.493 735.211 103.331 771.222 94.0879C794.53 88.0459 812.157 78.1311 846.681 58.7996C870.362 45.475 880.588 37.5068 899.823 34.5578C918.485 31.8277 919.159 37.7222 941.326 36.9493C961.289 36.2493 980.238 29.4548 1017.53 15.6572C1050.12 3.65422 1049.93 1.4219 1060.16 0.70091C1077.02 -0.570222 1092.12 6.29789 1122.21 20.0779C1140.02 28.2154 1150.41 33.0408 1162.12 42.7394C1175.38 53.7177 1172.68 56.2856 1185.26 66.5323C1203.21 81.2105 1209.44 76.5271 1230.91 92.1682C1248.02 104.641 1247.07 109.727 1259 112.753C1270.77 115.728 1282.09 113.383 1286.86 120.353C1289.87 124.806 1287.42 128.707 1291.21 131.763C1296.32 135.855 1306.32 133.137 1311.47 131.83C1328.06 127.804 1344.9 129.611 1361.64 128.384C1384.66 126.737 1404.71 125.235 1425.25 131.563C1445.76 137.796 1443.65 144.645 1473.21 154.998C1500.06 164.414 1510.17 161.652 1514.22 160.216C1528.89 154.945 1533.9 142.266 1540.72 143.617C1546.71 144.847 1549.05 156.146 1545.8 165.186C1541.21 178.256 1524.93 186.556 1512.92 189.494C1496.97 193.494 1484.23 189.021 1459.36 179.951C1438.15 172.229 1433.96 167.787 1412.68 159.872C1388.22 150.863 1382.75 148.229 1374.04 148.477C1360.32 148.993 1356.21 154.075 1338.23 156.874C1323 159.285 1311.61 158.028 1300.76 156.788C1268.33 153.023 1241.36 130.25 1227.69 124.706C1165.34 99.7304 1125.51 61.5733 1101.21 43.1427C1075.28 23.472 1084.14 63.5125 1041.67 65.8715C1027.78 66.6431 1007.24 56.0378 998.064 57.1235C983.254 58.9325 984.303 79.2042 966.375 86.048C957.662 89.3744 950.922 90.2998 937.331 91.8628C906.95 95.5515 903.232 89.9404 878.23 92.2348C850.298 94.7688 825.836 104.327 818.42 107.268C798.58 115.171 795.78 119.536 782.992 120.792C763.887 122.703 760.212 114.11 740.611 116.1C725.462 117.709 714.041 124.266 703.808 130.15C688.937 138.683 675.906 146.184 672.238 157.91C668.093 171.137 680.693 174.895 683.396 195.395C685 207.855 683.592 231.351 669.139 239.945C655.989 247.821 645.876 235.094 613.611 237.634C604.822 238.353 576.895 240.556 559.152 258.425C551.283 266.372 548.507 274.242 545.259 283.282C534.755 312.887 547.232 322.515 538.109 338.191C526.141 358.799 491.196 365.328 470.388 369.317C449.543 373.21 441.746 371.024 401.216 372.215C355.249 373.615 357.625 377.432 344.693 375.558C312.384 370.755 277.668 348.635 273.308 319.321C270.786 302.048 280.953 298.057 277.553 273.32C275.155 255.341 267.628 242.505 262.326 233.434C254.057 219.344 249.904 212.251 240.124 207.966C228.607 202.915 211.589 202.381 198.526 209.455C190.674 213.661 190.928 217.08 173.302 237.32C163.445 248.663 158.535 254.382 152.186 259.772C144.373 266.49 129.44 279.331 108.465 284.262C87.9862 289.114 81.1378 281.842 68.1849 289.203C54.2367 297.055 50.2131 312.322 49.7254 314.486C46.2019 329.343 54.9676 335.444 62.6396 356.573C69.1403 374.633 76.2632 394.324 66.7633 412.451C59.6877 425.918 46.4785 432.608 20.2895 445.902C-8.34862 460.35 -28.1441 470.433 -43.2086 463.661C-57.6316 457.193 -63.7226 437.109 -56.2391 429.528L-55.8585 429.493Z" fill="#A40616"/>
</svg>
