<svg width="10349" height="991" viewBox="0 0 2349 691" fill="none" xmlns="http://www.w3.org/2000/svg">
<path d="M2309.69 218.543C2302.7 224.97 2287.04 212.434 2264.79 219.212C2251.35 223.294 2236.28 234.307 2234.14 245.709C2232.02 257.178 2244.77 259.776 2258.64 282.036C2267.17 295.649 2275 308.319 2268.43 317.338C2261.3 327.146 2240.03 328.919 2216.88 330.9C2197.16 332.579 2195.76 330.105 2184.71 333.285C2180.39 334.491 2155.38 342.153 2147.09 358.653C2143.95 364.928 2145.21 368.634 2139.42 378.047C2133.53 387.423 2128.72 389.616 2126.98 390.221C2122.3 391.996 2118.2 391.126 2112.62 389.961C2082.84 383.888 2085.34 385.239 2074.71 382.053C2057.07 376.791 2054.67 374.369 2053.61 371.779C2051.59 366.931 2055.05 363.505 2056.2 356.814C2057.81 347.374 2052.55 344.985 2042.26 325.624C2032.16 306.564 2027.14 296.987 2027.7 289.389C2027.86 287.409 2028.39 282.71 2025.23 278.852C2023.16 276.315 2019.65 274.429 2013.41 273.267C2001.39 271.158 1994.29 274.811 1983.41 275.784C1964.58 277.374 1963.42 268.232 1944.51 268.222C1941.73 268.226 1921.59 268.421 1906.6 279.632C1901.43 283.503 1899.52 287.717 1895.35 295.607C1888.06 309.318 1886.33 318.133 1882.8 329.278C1876.11 350.182 1872.97 360.823 1865.12 367.993C1849.61 382.047 1836.49 375.361 1816.05 392.091C1805.4 400.828 1805.2 405.706 1790.37 416.859C1786.11 420.119 1777.51 426.441 1766.64 431.258C1744.97 440.864 1737.08 433.991 1711.21 439.953C1694.47 443.852 1681.61 450.469 1656.44 463.369C1639.17 472.262 1631.63 477.622 1617.89 479.442C1604.56 481.118 1604.29 477.067 1588.55 477.363C1574.37 477.632 1560.69 482.095 1533.75 491.168C1510.21 499.06 1510.26 500.594 1502.98 500.98C1490.99 501.675 1480.52 496.803 1459.68 487.029C1447.34 481.258 1440.15 477.837 1432.19 471.058C1423.19 463.385 1425.19 461.652 1416.64 454.488C1404.44 444.227 1399.85 447.375 1385.19 436.415C1373.5 427.676 1374.36 424.197 1366.01 421.994C1357.77 419.829 1349.66 421.318 1346.53 416.485C1344.55 413.398 1346.43 410.747 1343.85 408.61C1340.37 405.748 1333.19 407.508 1329.49 408.35C1317.58 410.938 1305.7 409.52 1293.79 410.185C1277.41 411.072 1263.14 411.891 1248.8 407.331C1234.48 402.838 1236.22 398.161 1215.63 390.745C1196.93 384.001 1189.66 385.789 1186.74 386.731C1176.15 390.193 1172.14 398.84 1167.35 397.841C1163.15 396.934 1161.89 389.156 1164.52 382.988C1168.25 374.068 1180.09 368.545 1188.71 366.655C1200.16 364.079 1209.03 367.283 1226.35 373.769C1241.11 379.292 1243.92 382.384 1258.73 388.04C1275.75 394.479 1279.53 396.345 1285.71 396.267C1295.47 396.057 1298.56 392.614 1311.41 390.883C1322.3 389.39 1330.32 390.372 1337.97 391.338C1360.84 394.264 1377.47 402.022 1386.97 405.971C1430.28 423.767 1447.19 411.372 1487.32 429.089C1492.22 431.233 1502.14 438.589 1523.63 451.616C1531.43 456.303 1535.84 458.913 1542.38 458.265C1552.95 457.18 1556.99 448.893 1572.54 443.409C1578.84 441.218 1583.65 440.654 1593.35 439.725C1615.02 437.515 1617.46 441.404 1635.27 440.094C1655.16 438.65 1672.85 432.35 1678.22 430.411C1692.57 425.197 1694.71 422.232 1703.82 421.505C1717.44 420.395 1719.73 426.331 1733.7 425.172C1744.5 424.228 1752.84 419.849 1760.3 415.92C1771.15 410.222 1780.66 405.213 1783.68 397.205C1787.1 388.173 1778.3 385.461 1777.12 371.367C1776.42 362.8 1778.27 346.692 1788.82 340.948C1798.43 335.683 1805.14 344.522 1828.11 343.12C1834.37 342.72 1854.25 341.503 1867.47 329.43C1873.34 324.06 1875.59 318.689 1878.21 312.52C1886.72 292.317 1878.22 285.579 1885.25 274.919C1894.48 260.905 1919.49 256.794 1934.39 254.276C1949.31 251.825 1954.76 253.408 1983.54 253.018C2016.18 252.543 2014.64 249.899 2023.74 251.322C2046.48 254.958 2070.3 270.503 2072.34 290.663C2073.51 302.542 2066.16 305.173 2067.68 322.183C2068.74 334.545 2073.61 343.432 2077.05 349.712C2082.41 359.467 2085.1 364.378 2091.88 367.422C2099.86 371.009 2111.91 371.555 2121.43 366.839C2127.15 364.036 2127.09 361.688 2140.31 347.986C2147.71 340.307 2151.4 336.434 2156.09 332.803C2161.87 328.276 2172.92 319.622 2187.97 316.46C2202.66 313.347 2207.26 318.41 2216.71 313.495C2226.88 308.255 2230.28 297.822 2230.7 296.342C2233.73 286.185 2227.74 281.906 2223.05 267.327C2219.09 254.866 2214.75 241.279 2222.13 228.941C2227.63 219.776 2237.24 215.325 2256.29 206.48C2277.11 196.868 2291.51 190.158 2301.95 194.964C2311.94 199.555 2315.54 213.4 2309.96 218.523L2309.69 218.543Z" fill="#D49634"/>
<path d="M21.0956 351.748C29.1086 346.656 42.3124 361.762 65.4117 359.021C79.36 357.377 96.1335 349.198 100.258 338.354C104.371 327.44 92.2844 322.632 82.5581 298.27C76.5722 283.366 71.1006 269.512 79.1593 261.795C87.914 253.401 109.16 255.412 132.289 257.551C151.999 259.381 152.938 262.063 164.384 260.886C168.845 260.462 194.815 257.338 205.885 242.561C210.091 236.941 209.505 233.07 216.862 224.827C224.317 216.639 229.443 215.331 231.263 215.043C236.181 214.122 240.059 215.701 245.351 217.835C273.586 229.072 271.365 227.301 281.265 232.314C297.696 240.609 299.63 243.417 300.222 246.154C301.354 251.282 297.336 254.042 295.02 260.425C291.771 269.433 296.528 272.713 303.241 293.589C309.815 314.132 313.064 324.446 311.166 331.824C310.658 333.744 309.304 338.276 311.739 342.632C313.326 345.494 316.453 347.972 322.383 350.216C333.845 354.416 341.476 352.074 352.359 353.039C371.172 354.799 370.703 364.003 389.313 367.353C392.049 367.839 411.903 371.204 428.645 362.818C434.417 359.922 437.034 356.11 442.535 349.081C452.131 336.874 455.388 328.502 460.83 318.156C471.112 298.762 476.086 288.844 485.076 283.173C502.828 272.08 514.558 280.978 537.633 268.121C549.659 261.403 550.711 256.636 567.28 248.278C572.054 245.822 581.634 241.119 593.186 238.298C616.202 232.669 622.763 240.829 649.275 239.53C666.445 238.649 680.266 234.406 707.321 226.155C725.89 220.453 734.254 216.508 748.105 217.144C761.522 217.849 761.068 221.884 776.619 224.374C790.624 226.613 804.877 224.638 832.994 220.465C857.559 216.855 857.772 215.335 865.008 216.241C876.939 217.676 886.376 224.32 905.162 237.62C916.292 245.482 922.762 250.118 929.4 258.196C936.908 267.339 934.628 268.691 941.782 277.253C951.981 289.508 957.047 287.219 969.545 300.596C979.503 311.262 978.047 314.536 985.875 318.179C993.606 321.766 1001.85 321.733 1004.08 327.042C1005.48 330.43 1003.16 332.708 1005.32 335.267C1008.24 338.697 1015.62 338.235 1019.41 338.059C1031.59 337.615 1043.04 341.11 1054.88 342.559C1071.16 344.58 1085.35 346.294 1098.66 353.315C1111.96 360.266 1109.41 364.562 1128.37 375.499C1145.59 385.44 1153.06 384.963 1156.1 384.552C1167.14 383.015 1172.61 375.212 1177.15 377.041C1181.12 378.676 1180.98 386.554 1177.31 392.161C1172.06 400.282 1159.44 403.627 1150.61 403.964C1138.89 404.477 1130.72 399.756 1114.83 390.314C1101.27 382.271 1099.05 378.731 1085.48 370.549C1069.86 361.204 1066.46 358.699 1060.37 357.684C1050.73 356.168 1047.08 359.011 1034.13 358.445C1023.14 357.992 1015.42 355.607 1008.06 353.305C986.069 346.386 971.067 335.812 962.415 330.248C922.929 305.082 904.094 314.295 867.723 289.768C863.279 286.792 854.817 277.8 835.971 261.183C829.118 255.192 825.239 251.843 818.682 251.325C808.091 250.527 802.653 257.97 786.372 260.621C779.787 261.665 774.95 261.369 765.246 260.572C743.522 258.919 741.812 254.661 724.05 252.804C704.211 250.711 685.688 253.788 680.066 254.75C665.02 257.346 662.388 259.887 653.29 258.993C639.692 257.68 638.479 251.432 624.524 250.105C613.728 249.126 604.752 251.964 596.708 254.513C585.023 258.205 574.778 261.456 570.391 268.804C565.435 277.091 573.618 281.315 572.292 295.396C571.458 303.95 566.802 319.48 555.397 323.269C545.011 326.755 539.963 316.868 517.108 314.191C510.877 313.48 491.094 311.166 475.948 320.714C469.227 324.964 466.064 329.853 462.388 335.461C450.444 353.843 457.622 361.977 448.82 371.228C437.265 383.392 411.919 383.021 396.811 382.867C381.692 382.644 376.607 380.124 348.21 375.424C315.995 370.125 317.052 373.001 308.344 369.993C286.606 362.397 265.902 342.889 267.454 322.686C268.402 310.787 276.103 309.496 277.607 292.484C278.751 280.13 275.52 270.522 273.249 263.734C269.698 253.185 267.917 247.876 261.78 243.682C254.554 238.741 242.792 236.075 232.592 239.037C226.469 240.785 226.111 243.107 210.675 254.258C202.039 260.51 197.727 263.67 192.464 266.415C185.974 269.85 173.57 276.416 158.2 276.87C143.186 277.339 139.557 271.544 129.389 274.713C118.451 278.074 113.262 287.743 112.584 289.124C107.807 298.586 112.953 303.857 114.987 319.034C116.686 331.999 118.563 346.139 109.114 356.979C102.082 365.029 91.841 367.713 71.5318 373.055C49.3372 378.837 33.9805 382.898 24.5543 376.324C15.5271 370.041 14.43 355.777 20.8252 351.72L21.0956 351.748Z" fill="#D49634"/>
</svg>
