<svg width="1440" height="701" viewBox="0 0 1440 701" fill="none" xmlns="http://www.w3.org/2000/svg">
<path d="M-18.4121 625.182C-9.60266 615.677 12.4724 625.939 41.7078 611.708C59.3649 603.127 78.6033 585.965 80.4912 571.998C82.3433 557.96 65.0375 558.518 44.5185 536.356C31.919 522.814 20.3279 510.182 28.3521 497.757C37.0662 484.248 65.4146 476.16 96.2582 467.299C122.546 459.756 124.633 462.26 139.177 455.409C144.858 452.777 177.711 436.731 187.391 415.055C191.067 406.813 189.057 402.827 195.998 390.161C203.084 377.51 209.346 373.58 211.626 372.379C217.742 368.977 223.306 368.839 230.893 368.625C271.321 367.327 267.856 366.45 282.376 367.179C306.467 368.361 309.892 370.52 311.545 373.253C314.671 378.362 310.32 383.357 309.354 391.524C308.016 403.039 315.273 404.351 330.742 424.129C345.923 443.608 353.478 453.411 353.376 462.474C353.332 464.839 353.025 470.496 357.601 474.122C360.591 476.51 365.464 477.727 373.919 477.327C390.214 476.399 399.41 470.113 413.91 465.898C439.005 458.714 441.355 469.097 466.696 463.765C470.419 462.975 497.388 457.055 516.519 439.68C523.113 433.684 525.298 428.208 530.209 417.784C538.794 399.658 540.346 388.84 544.113 374.784C551.28 348.397 554.575 335.04 564.471 324.421C584.047 303.568 602.204 307.696 628.153 282.315C641.671 269.068 641.509 263.298 660.422 246.037C665.857 241.011 676.836 231.174 690.989 222.457C719.187 205.079 730.367 210.901 764.515 196.605C786.618 187.303 803.273 175.917 835.894 153.687C858.269 138.386 867.906 129.976 886.169 123.959C903.889 118.227 904.596 122.9 925.672 118.102C944.652 113.779 962.6 104.685 997.917 86.4395C1028.78 70.5391 1028.57 68.7584 1038.3 66.2473C1054.32 62.0435 1068.76 64.7958 1097.53 70.3578C1114.57 73.6327 1124.5 75.6095 1135.75 81.3029C1148.48 87.7488 1145.94 90.3468 1158.03 96.3236C1175.27 104.899 1181.14 99.9151 1201.73 108.612C1218.15 115.55 1217.3 119.869 1228.68 120.091C1239.92 120.298 1250.66 116.261 1255.27 121.04C1258.18 124.098 1255.9 127.736 1259.54 129.51C1264.44 131.881 1273.92 127.789 1278.81 125.757C1294.54 119.359 1310.59 117.663 1326.49 113.516C1348.37 107.849 1367.42 102.855 1387.03 104.145C1406.61 105.364 1404.68 111.337 1432.92 114.207C1458.56 116.826 1468.14 112.676 1471.98 110.746C1485.87 103.696 1490.5 92.4309 1497 92.2481C1502.71 92.1238 1505.07 100.883 1502.08 108.853C1497.85 120.359 1482.46 130.176 1471.07 134.827C1455.95 141.081 1443.78 139.835 1420.02 137.128C1399.76 134.828 1395.72 132 1375.39 129.557C1352.03 126.821 1346.79 125.705 1338.51 127.544C1325.46 130.545 1321.62 135.454 1304.55 141.113C1290.08 145.941 1279.24 147.058 1268.91 148.088C1238.01 151.122 1215.05 146.732 1201.98 144.789C1142.4 136.177 1120.81 155.48 1065.49 146.062C1058.74 144.934 1044.82 139.118 1014.9 129.924C1004.04 126.638 997.901 124.826 989.186 127.435C975.119 131.692 970.424 142.544 950.05 153.367C941.8 157.713 935.399 159.734 922.49 163.562C893.633 172.277 890.034 168.408 866.278 174.977C839.738 182.291 816.578 194.673 809.557 198.461C790.775 208.626 788.161 212.706 776.012 216.133C757.86 221.282 754.268 214.976 735.646 220.282C721.255 224.44 710.465 231.925 700.798 238.64C686.75 248.383 674.439 256.94 671.083 267.177C667.288 278.725 679.315 279.416 682.116 295.597C683.782 305.44 682.707 324.834 669.057 334.548C656.637 343.433 646.874 334.973 616.214 343.107C607.862 345.345 581.323 352.389 564.647 370.273C557.251 378.223 554.7 385.153 551.712 393.123C542.054 419.201 554.029 424.694 545.529 439.172C534.376 458.2 501.211 470.086 481.463 477.246C461.68 484.335 454.239 484.021 415.702 492.611C371.995 502.394 374.298 505.054 361.976 505.96C331.191 508.124 297.921 496.643 293.444 473.596C290.851 460.008 300.478 454.847 296.965 435.347C294.482 421.159 287.178 412.125 282.033 405.736C274.01 395.819 269.98 390.825 260.629 389.175C249.617 387.229 233.424 389.994 221.079 398.209C213.657 403.11 213.937 405.845 197.4 425.638C188.152 436.726 183.546 442.306 177.567 447.888C170.211 454.826 156.151 468.088 136.256 476.046C116.832 483.847 110.236 479.214 97.998 487.643C84.8191 496.658 81.1636 509.844 80.724 511.697C77.5395 524.456 85.9458 527.775 93.4807 543.534C99.867 557.016 106.863 571.708 98.0311 588.253C91.4523 600.547 78.9633 608.478 54.2024 624.225C27.1249 641.372 8.40936 653.303 -5.99579 650.622C-19.7872 648.068 -25.8066 632.861 -18.7736 625.283L-18.4121 625.182Z" fill="#A40616"/>
</svg>
