<svg width="1440" height="1196" viewBox="0 0 1440 1196" fill="none" xmlns="http://www.w3.org/2000/svg">
<path d="M1450.55 780.003C1437.04 781.738 1429.55 753.501 1398.11 742.704C1379.12 736.17 1352.4 736.52 1340.28 748.298C1328.12 760.174 1340.65 774.084 1337.85 812.4C1336.18 835.864 1334.52 857.616 1319.29 862.797C1302.75 868.44 1276.68 852.51 1248.26 835.238C1224.05 820.507 1224.53 816.371 1209.06 810.782C1203.06 808.557 1167.68 796.476 1144.14 809.12C1135.2 813.932 1133.52 819.421 1118.87 825.736C1104.13 831.918 1096.71 830.447 1094.19 829.693C1087.28 827.841 1083.29 823.329 1077.82 817.2C1048.55 784.697 1050.3 788.428 1040.71 775.612C1024.79 754.373 1024.06 749.45 1025.02 745.457C1026.79 737.963 1033.69 736.819 1040.69 729.818C1050.53 719.925 1046.47 712.614 1050.96 680.793C1055.41 649.498 1057.71 633.82 1064.8 625.24C1066.66 623.016 1071.25 617.863 1070.85 610.578C1070.61 605.798 1068.14 600.568 1061.92 593.893C1049.82 581.178 1038.53 579.512 1025.13 571.44C1002.03 557.363 1008.42 545.474 986.579 529.42C983.365 527.068 959.934 510.217 933.12 510.861C923.872 511.09 918.109 514.501 906.612 520.369C886.59 530.533 877.136 539.579 863.63 549.874C838.209 569.12 825.573 579.14 810.441 581.032C780.626 584.629 771.126 565.527 733.353 568.135C713.656 569.517 709.306 575.169 682.732 575.885C675.046 576.153 659.762 576.395 643.125 572.916C609.971 565.994 606.659 551.096 571.729 536.261C549.083 526.706 528.633 523.69 488.633 517.716C461.156 513.668 447.914 513.665 430.493 504.175C413.672 494.864 416.792 489.807 398.348 476.801C381.736 465.092 362.155 458.807 323.353 446.772C289.476 436.21 288.246 438.089 279.505 432.371C265.056 423.021 257.09 408.336 241.279 379.002C231.9 361.648 226.49 351.471 223.028 336.636C219.114 319.847 222.898 319.481 219.075 303.681C213.657 281.093 205.699 280.96 198.028 255.451C191.92 235.117 195.852 231.693 188.069 221.984C180.377 212.408 169.744 207.302 170.22 198.886C170.547 193.528 174.96 191.96 173.786 187.223C172.191 180.862 162.4 176.864 157.414 174.73C141.465 167.713 128.937 155.942 114.609 146.628C94.9334 133.789 77.7516 122.659 65.0398 105.056C52.2981 87.5517 58.2712 83.4547 40.75 57.1392C24.8517 33.2347 14.9402 29.2001 10.7657 27.8444C-4.40085 22.9866 -16.3477 29.8965 -21.035 24.6432C-25.1214 19.9975 -19.9927 9.65742 -11.7382 4.53135C0.118134 -2.94049 18.4667 0.515758 30.0301 5.57945C45.4379 12.221 52.9812 23.5705 67.4974 45.9917C79.8797 65.1003 80.514 71.1737 92.8364 90.4783C107.052 112.596 109.848 118.032 117.057 123.184C128.502 131.208 134.987 129.724 151.297 138.561C165.144 146.02 173.586 154.001 181.608 161.642C205.553 184.531 218.208 207.893 225.842 220.66C260.828 278.623 290.855 278.191 322.235 333.364C326.083 340.078 331.317 357.262 345.12 391.023C350.171 403.232 353.058 410.086 361.168 414.866C374.294 422.536 385.971 416.08 408.585 422.738C417.715 425.469 423.753 428.88 435.738 435.995C462.651 451.749 462.175 458.452 483.862 472C508.073 487.159 533.84 494.653 541.679 496.891C562.671 502.85 567.655 501.131 578.799 507.995C595.47 518.224 593.103 527.25 610.225 537.721C623.501 545.758 636.834 547.606 648.786 549.256C666.143 551.667 681.368 553.761 691.633 546.776C703.219 538.902 695.346 528.203 705.905 510.394C712.354 499.593 728.108 481.948 745.165 484.055C760.72 485.927 761 502.164 788.725 519.978C796.295 524.81 820.296 540.227 845.787 537.048C857.106 535.62 864.25 531.124 872.504 525.998C899.429 509.127 895.306 493.88 912.448 487.133C934.963 478.25 967.342 494.568 986.685 504.205C1006 513.941 1010.96 520.452 1044.54 544.405C1082.66 571.534 1083.11 567.068 1092.42 576.486C1115.62 600.113 1129.99 638.86 1115.29 664.63C1106.6 679.786 1095.87 676.686 1083.25 698.261C1074.01 713.897 1072.12 728.631 1070.78 739.034C1068.72 755.212 1067.67 763.35 1072.93 772.733C1079.12 783.785 1092.58 794.657 1107.56 797.107C1116.54 798.617 1118.46 795.768 1145.34 790.648C1160.38 787.766 1167.91 786.276 1176.41 785.93C1186.92 785.436 1207.01 784.492 1227.07 793.489C1246.68 802.244 1247.71 812.179 1262.79 814.335C1278.97 816.717 1291.73 807.16 1293.47 805.756C1305.56 796.216 1302.25 786.026 1309.18 764.669C1315.14 746.449 1321.62 726.563 1340.59 718.117C1354.7 711.854 1369.56 714.696 1399.05 720.309C1431.25 726.515 1453.56 730.73 1461.55 745.317C1469.22 759.27 1461.66 778.833 1450.88 780.208L1450.55 780.003Z" fill="#D49634"/>
</svg>
