<svg width="1440" height="1010" viewBox="0 0 1440 1010" fill="none" xmlns="http://www.w3.org/2000/svg">
<path d="M2114.97 1006.65C2107.44 1013.1 2091.92 1005.82 2071.34 1002.29C2037.27 996.354 2031.76 1007.82 2001.57 1006.14C1967.36 1004.16 1927.9 986.407 1904.31 961.851C1879.64 936.167 1890.26 922 1862.21 896.453C1843.35 879.287 1822.62 871.297 1805.27 864.5C1756.07 845.474 1741.39 856.822 1711.24 843.645C1667.53 824.51 1641.04 775.409 1633.94 740.642C1622.73 685.34 1658.3 654.135 1629.98 622.331C1627.35 619.387 1618.03 609.206 1602.95 604.091C1574.46 594.529 1562.4 615.9 1525.92 615.04C1496.15 614.337 1456.56 598.919 1438.61 574.578C1428.95 561.519 1429.09 550.632 1417.03 545.304C1403.32 539.164 1394.25 549.398 1376.89 546.877C1355.72 543.804 1340.32 524.455 1325.37 505.65C1305.7 480.928 1282.7 451.779 1287.71 421.91C1291.34 400.144 1305.68 402.734 1327.13 358.808C1339.03 334.596 1338.81 325.107 1336.64 317.102C1334.1 307.834 1324.7 296.898 1306.23 275.246C1293.6 260.495 1287.13 253.01 1276.58 244.18C1275.14 242.976 1260.58 230.896 1241.73 220.666C1196.73 196.375 1170.38 206.317 1113.84 185.221C1073 169.967 1075.93 160.734 1040.36 151.369C997.252 140.039 961.22 145.473 954.913 146.434C917.587 152.319 914.372 165.179 870.151 169.682C858.696 170.829 850.571 170.798 840.11 175.264C821.26 183.181 814.525 197.325 806.188 211.556C797.172 226.965 780.236 256.108 755.792 277.537C742.063 289.687 715.211 313.385 687.144 306.128C667.637 301.064 664.637 285.646 647.952 283.421C641.519 282.584 627.159 282.94 592.068 327.087C559.494 368.105 559.708 383.2 538.154 388.746C529.928 390.905 511.995 387.371 476.3 380.34C438.543 372.851 419.733 369.27 396.924 360.966C359.738 347.555 357.722 339.732 340.747 339.803C312.824 339.806 312.62 361.005 280.832 365.02C261.775 367.58 244.974 362.083 213.225 351.797C176.392 339.792 172.792 331.912 148.968 328.842C132.799 326.731 119.769 329.152 93.6909 334.138C70.698 338.481 47.6687 343.11 25.696 357.563C12.7821 366.059 14.9895 368.171 7.20728 371.019C-23.5416 382.198 -82.9028 358.263 -94.1789 325.814C-98.2029 314.3 -97.2404 298.285 -88.2366 295.561C-74.4369 291.245 -55.5781 322.425 -14.9709 331.136C-3.7967 333.614 4.40162 333.072 20.6256 331.949C56.9463 329.825 71.9504 320.17 102.689 313.267C135.41 306.066 152.06 302.972 170.608 307.234C205.642 315.298 214.694 337.37 250.326 340.699C267.789 342.359 282.412 338.52 288.62 336.946C313.658 330.402 315.768 320.691 333.196 317.032C353.71 312.73 362.421 323.513 400.586 331.977C413.995 334.951 454.276 343.442 496.996 334.033C514.08 330.298 535.715 325.507 552.585 309.479C564.622 298.134 563.167 291.467 589.099 252.665C601.526 234.03 605.147 230.555 611.156 227.756C623.761 221.7 633.605 224.916 666.433 222.46C677.319 221.628 688.91 220.806 702.664 218.25C725.295 213.975 747.392 209.729 760.316 194.154C767.186 185.941 763.323 184.347 772.013 168.718C775.67 162.153 786.243 142.811 801.763 133.271C820.55 121.652 840.618 127.873 881.887 129.944C921.916 132.035 910.779 126.467 979.149 125.255C1044.51 124.111 1077.96 123.711 1107.79 137.998C1118.96 143.279 1128.41 149.652 1149.48 157.718C1176.1 168.048 1194.46 170.941 1206.29 173.859C1239.38 181.934 1245.19 196.059 1320.54 250.094C1383.09 294.947 1401.24 301.036 1404.2 319.544C1406.7 334.704 1395.77 348.508 1373.92 375.971C1361.32 391.765 1351 400.689 1338.71 422.452C1329.57 438.865 1328.25 446.539 1328.43 453.512C1328.48 455.884 1329.72 476.814 1348.48 494.841C1365.48 511.3 1387.7 515.931 1406.28 519.905C1440.36 527.167 1451.41 519.438 1474.11 531.406C1483.39 536.268 1483.79 538.717 1499.29 547.467C1514.65 556.035 1525.86 562.359 1537.07 564.55C1568.11 570.695 1576.67 540.727 1606.72 544.883C1628.59 547.965 1646.84 567.207 1654.76 580.029C1658.29 585.679 1660.97 592.469 1662.14 637.726C1662.88 665.477 1661.91 666.147 1662.73 683.442C1664.11 713.105 1664.89 727.884 1671.52 746.763C1677.91 764.704 1685.61 786.326 1706.62 801.902C1726.51 816.494 1739.14 811.624 1787.84 823.456C1840.3 836.271 1867.39 842.869 1885.73 862.723C1908.44 887.232 1897.12 909.654 1925.56 929.386C1933.36 934.803 1942.61 938.479 1961.28 946.011C1979.1 953.21 1992.56 957.226 2007.56 961.586C2040.46 971.097 2056.82 975.905 2074.73 978.253C2097.16 981.163 2109.18 979.699 2115.64 987.327C2120.39 993.101 2120.3 1002.23 2115.33 1006.58L2114.97 1006.65Z" fill="#47650C"/>
</svg>
