<svg width="1440" height="1343" viewBox="0 0 1440 1343" fill="none" xmlns="http://www.w3.org/2000/svg">
<path d="M1458.86 30.6272C1448.24 40.0662 1425.68 28.3809 1392.49 41.7519C1372.45 49.8135 1349.68 66.6973 1345.98 81.0901C1342.31 95.5583 1361.02 95.7985 1380.49 119.749C1392.45 134.387 1403.43 148.034 1393.31 160.537C1382.31 174.132 1350.81 181.176 1316.53 188.904C1287.31 195.48 1285.36 192.784 1268.88 199.2C1262.44 201.66 1225.14 216.743 1212.13 238.759C1207.19 247.132 1208.88 251.36 1199.89 264.164C1190.75 276.946 1183.54 280.724 1180.94 281.862C1173.95 285.1 1167.93 284.98 1159.74 284.842C1116.03 284.274 1119.66 285.348 1104.1 283.904C1078.29 281.538 1074.86 279.137 1073.4 276.225C1070.64 270.779 1075.92 265.806 1077.94 257.385C1080.75 245.508 1073.09 243.804 1058.78 222.565C1044.74 201.649 1037.77 191.126 1038.96 181.734C1039.29 179.284 1040.29 173.432 1035.8 169.457C1032.86 166.839 1027.75 165.347 1018.6 165.361C1000.93 165.551 990.277 171.634 974.154 175.318C946.265 181.579 944.969 170.702 917.034 175.031C912.929 175.674 883.171 180.535 860.492 197.645C852.674 203.55 849.668 209.124 843.136 219.701C831.729 238.088 828.769 249.231 823.037 263.627C812.175 290.648 807.035 304.342 795.108 314.884C771.537 335.579 752.467 330.439 721.491 355.528C705.35 368.623 704.838 374.614 682.407 391.616C675.953 396.57 662.955 406.25 646.669 414.618C614.222 431.302 602.872 424.736 564.381 437.943C539.462 446.541 520.164 457.559 482.375 479.064C456.448 493.87 445.065 502.133 424.674 507.508C404.901 512.612 404.696 507.734 381.419 511.71C360.457 515.294 340.039 523.875 299.819 541.121C264.673 556.146 264.688 558.002 253.912 560.146C236.156 563.746 220.926 560.209 190.591 553.08C172.623 548.877 162.163 546.357 150.719 539.921C137.771 532.635 140.814 530.062 128.509 523.292C110.958 513.585 104.042 518.474 82.8867 508.481C66.0297 500.51 67.4544 496.072 55.2226 495.304C43.1447 494.557 31.091 498.235 26.6954 493.061C23.918 489.752 26.8157 486.089 23.1026 484.076C18.1004 481.386 7.40241 485.18 1.89942 487.056C-15.814 492.945 -33.3013 493.944 -50.9333 497.49C-75.1733 502.332 -96.2949 506.607 -117.269 504.341C-138.213 502.151 -135.418 496.048 -165.5 491.736C-192.81 487.807 -203.632 491.656 -207.994 493.476C-223.803 500.128 -230.126 511.589 -237.154 511.471C-243.318 511.329 -244.813 502.136 -240.644 494.013C-234.719 482.283 -216.976 472.833 -204.147 468.549C-187.113 462.78 -174.15 464.649 -148.874 468.58C-127.323 471.924 -123.311 475.048 -101.7 478.543C-76.856 482.486 -71.3499 483.891 -62.2124 482.377C-47.7952 479.882 -43.0681 474.975 -24.0053 469.915C-7.84644 465.594 3.96585 464.949 15.2226 464.37C48.869 462.687 73.0824 468.326 86.9324 470.959C150.091 482.709 175.652 463.717 234.119 476.101C241.258 477.589 255.567 484.28 286.703 495.229C298.014 499.15 304.408 501.32 314.107 499.027C329.768 495.279 336.118 484.25 359.356 473.992C368.762 469.876 375.898 468.084 390.261 464.726C422.385 457.055 425.803 461.237 452.177 455.551C481.639 449.223 508.064 437.481 516.079 433.885C537.523 424.235 540.825 420.129 554.322 417.15C574.489 412.671 577.608 419.38 598.301 414.76C614.3 411.13 626.815 403.879 638.029 397.374C654.323 387.937 668.604 379.647 673.44 369.192C678.903 357.398 666.028 356.112 664.937 339.201C664.315 328.917 667.782 308.858 683.645 299.432C698.083 290.807 707.592 300.042 741.591 293.059C750.856 291.134 780.285 285.087 800.379 267.333C809.293 259.44 812.866 252.376 817.035 244.253C830.545 217.67 818.298 211.408 829.179 196.799C843.459 177.597 880.604 166.843 902.731 160.354C924.888 153.94 932.866 154.618 975.405 147.535C1023.66 139.461 1021.49 136.594 1034.87 136.238C1068.3 135.451 1102.77 148.931 1104.85 173.039C1106.02 187.251 1095.04 192.147 1096.5 212.532C1097.49 227.36 1104.28 237.074 1109.06 243.941C1116.52 254.604 1120.27 259.973 1130.15 262.126C1141.78 264.666 1159.55 262.565 1173.83 254.632C1182.41 249.902 1182.43 247.052 1202.61 227.312C1213.89 216.253 1219.52 210.686 1226.62 205.181C1235.37 198.336 1252.1 185.25 1274.48 177.94C1296.33 170.771 1302.89 175.887 1317.08 167.727C1332.35 159.004 1337.86 145.504 1338.55 143.603C1343.5 130.525 1334.84 126.686 1328.6 109.989C1323.32 95.7071 1317.54 80.1422 1329.02 63.4058C1337.57 50.9697 1351.97 43.3379 1380.52 28.1826C1411.73 11.6848 1433.32 0.199422 1448.52 3.66144C1463.07 6.96259 1467.74 23.015 1459.26 30.5402L1458.86 30.6272Z" fill="#3A4E82"/>
</svg>
